<svg width="18" height="18" viewBox="0 0 18 18" fill="none" xmlns="http://www.w3.org/2000/svg">
<g clip-path="url(#clip0_282_2478)">
<path d="M18.0001 8.96036C17.913 9.16962 17.8005 9.35912 17.5779 9.44871C17.2884 9.56517 17.0244 9.51357 16.7996 9.30016C16.6214 9.1311 16.4539 8.95085 16.2422 8.73542C16.2422 8.84227 16.2422 8.90184 16.2422 8.96141C16.2421 9.74062 16.2441 10.5199 16.2412 11.2991C16.2398 11.6712 15.987 11.946 15.6101 11.9977C15.2768 12.0435 14.9495 11.8188 14.8598 11.474C14.8382 11.3908 14.8375 11.3006 14.8374 11.2136C14.8361 9.9715 14.8351 8.72943 14.8389 7.48741C14.8392 7.37294 14.8052 7.29338 14.7246 7.2125C13.0172 5.49793 11.3127 3.78058 9.60738 2.06398C9.22421 1.6783 8.84601 1.67645 8.46442 2.05738C6.74359 3.77508 5.02369 5.49366 3.29983 7.20827C3.19989 7.30769 3.16189 7.40543 3.16216 7.54509C3.16625 9.92958 3.16418 12.3141 3.16572 14.6986C3.16612 15.3097 3.40202 15.7951 3.96914 16.0667C4.14265 16.1498 4.34884 16.1956 4.54177 16.2015C5.12711 16.2193 5.7133 16.2093 6.29913 16.2096C6.32696 16.2096 6.35483 16.2042 6.3996 16.1995C6.3996 16.1234 6.3996 16.0546 6.3996 15.9859C6.3996 14.1813 6.40749 12.3768 6.39362 10.5724C6.39049 10.1654 6.65158 9.77377 7.19369 9.77584C8.424 9.78051 9.65436 9.77971 10.8847 9.77619C11.41 9.7747 11.6818 10.1539 11.6784 10.579C11.6639 12.3775 11.6722 14.1762 11.6722 15.9749C11.6722 16.0444 11.6722 16.1139 11.6722 16.1755C11.6917 16.1905 11.7006 16.2032 11.7094 16.2032C12.3419 16.2031 12.9753 16.2222 13.6067 16.1952C14.1967 16.1699 14.7401 15.6142 14.8065 15.0239C14.8176 14.9251 14.8284 14.8262 14.8389 14.7274C14.8761 14.3802 15.2061 14.0926 15.5535 14.1046C15.9213 14.1175 16.2272 14.4148 16.2413 14.7733C16.2972 16.1894 15.1267 17.5268 13.7151 17.6029C12.8096 17.6517 11.8999 17.6364 10.9923 17.63C10.5337 17.6268 10.2668 17.3233 10.2667 16.86C10.2662 15.0496 10.2665 13.2392 10.2665 11.4289C10.2665 11.3598 10.2665 11.2907 10.2665 11.2121C9.44404 11.2121 8.63784 11.2121 7.80532 11.2121C7.80532 11.2778 7.80532 11.3456 7.80532 11.4133C7.80532 13.2178 7.79674 15.0224 7.81162 16.8268C7.81514 17.2553 7.5482 17.6431 7.00723 17.636C6.10537 17.6242 5.20183 17.6503 4.30186 17.6044C3.05182 17.5405 1.95901 16.4864 1.79505 15.2426C1.77295 15.0752 1.76102 14.905 1.7608 14.7361C1.75846 12.8203 1.7593 10.9044 1.7593 8.98867C1.7593 8.92447 1.7593 8.86033 1.7593 8.74911C1.56985 8.93786 1.40672 9.09993 1.24409 9.26252C1.05943 9.44708 0.845811 9.54337 0.578563 9.49323C0.0518588 9.39434 -0.178098 8.78293 0.156689 8.3633C0.211239 8.29488 0.274551 8.23306 0.33663 8.17107C2.72496 5.78693 5.11364 3.40313 7.50219 1.01925C8.37795 0.145208 9.69147 0.143139 10.5611 1.01806C12.9442 3.41572 15.327 5.81365 17.7054 8.21594C17.8253 8.3371 17.9027 8.50036 18 8.64402C18.0001 8.74942 18.0001 8.85491 18.0001 8.96036Z" fill="#43C5FF"/>
</g>
<defs>
<clipPath id="clip0_282_2478">
<rect width="18" height="17.2746" fill="white" transform="translate(0 0.362793)"/>
</clipPath>
</defs>
</svg>
