<svg width="18" height="16" viewBox="0 0 18 16" fill="none" xmlns="http://www.w3.org/2000/svg">
<path d="M0 9.9518C0.0452746 9.78546 0.0833635 9.61679 0.137092 9.45315C0.369195 8.74636 0.820485 8.21595 1.4741 7.86027C1.59109 7.7966 1.62233 7.72961 1.62214 7.60511C1.61847 5.31837 1.61894 3.03157 1.61993 0.744778C1.62012 0.285544 1.93225 -0.0167715 2.38105 0.000720949C2.70662 0.0134088 3.00038 0.280226 3.02222 0.606518C3.03805 0.843155 3.02532 1.08166 3.02532 1.34936C3.08981 1.31335 3.12926 1.29535 3.16443 1.27114C3.79325 0.838164 4.48905 0.617247 5.2551 0.617247C7.75084 0.617293 10.2466 0.61748 12.7423 0.617153C13.5082 0.61706 14.2044 0.835645 14.8327 1.26983C14.8655 1.2925 14.9001 1.31251 14.9723 1.35794C14.9723 1.09341 14.9611 0.858269 14.975 0.624617C14.9956 0.279153 15.2908 0.00879078 15.6351 0.000394424C16.0591 -0.00996108 16.3709 0.286617 16.3798 0.70928C16.381 0.767448 16.3801 0.825663 16.3801 0.883831C16.3801 3.12407 16.3811 5.36427 16.3773 7.60451C16.3771 7.72938 16.411 7.79468 16.5252 7.86018C17.4722 8.403 17.9751 9.21619 17.9975 10.3089C18.0006 10.4586 18.0032 10.6153 17.964 10.7573C17.8688 11.1025 17.5427 11.2919 17.1744 11.2415C16.8505 11.1971 16.5888 10.8986 16.5959 10.5553C16.6049 10.117 16.5326 9.70984 16.2181 9.37651C15.9585 9.10134 15.6429 8.94442 15.2598 8.93122C15.2013 8.92922 15.1427 8.92637 15.0842 8.92637C11.0301 8.92614 6.97591 8.92661 2.92181 8.92516C2.64241 8.92507 2.37377 8.95846 2.12838 9.102C1.6799 9.36429 1.42258 9.75775 1.41347 10.2695C1.39553 11.2758 1.40835 12.2826 1.40896 13.2892C1.40896 13.2996 1.41629 13.31 1.42761 13.3399C1.49458 13.3399 1.56878 13.3399 1.64299 13.3399C6.83365 13.3399 12.0244 13.3398 17.215 13.34C17.6138 13.34 17.8784 13.5186 17.9745 13.8556C17.9916 13.916 17.9979 13.9812 17.9982 14.0442C18.0002 14.4573 18.0006 14.8705 17.9989 15.2836C17.9973 15.6936 17.6987 15.9933 17.2954 15.9931C16.8928 15.9928 16.5961 15.6925 16.5937 15.2818C16.5927 15.1084 16.5935 14.9349 16.5935 14.751C11.5309 14.751 6.48343 14.751 1.40596 14.751C1.40596 14.9131 1.40619 15.0788 1.40591 15.2445C1.40525 15.6297 1.18616 15.9198 0.846457 15.9856C0.491775 16.0543 0.186453 15.8756 0.0307154 15.509C0.0243281 15.4939 0.0104263 15.482 0 15.4686C0 13.6297 0 11.7907 0 9.9518ZM9.0167 4.96031C9.05206 4.90937 9.0708 4.87135 9.09931 4.84304C9.61264 4.33361 10.2277 4.02803 10.9563 4.01339C11.8871 3.99468 12.8187 4.00681 13.7499 4.01357C14.1116 4.01623 14.4515 4.12468 14.7778 4.27517C14.8338 4.30096 14.8887 4.32895 14.9464 4.35703C14.9566 4.32718 14.9629 4.31663 14.9635 4.30577C15.0267 3.09529 14.012 2.02606 12.787 2.02424C10.2739 2.02051 7.76079 2.02219 5.24772 2.0235C4.28846 2.02401 3.449 2.62971 3.14753 3.53367C3.05947 3.79774 3.02532 4.06791 3.0404 4.34607C3.27161 4.25837 3.47849 4.15864 3.69674 4.10304C3.91564 4.04725 4.14559 4.01147 4.37121 4.00872C5.23796 3.99818 6.10498 4.00037 6.97182 4.00755C7.15724 4.00909 7.3452 4.03811 7.527 4.07724C8.10477 4.2016 8.58475 4.49944 9.0167 4.96031ZM3.01001 7.49983C4.80367 7.49983 6.54505 7.49983 8.29258 7.49983C8.29258 7.2318 8.30846 6.97553 8.28963 6.72177C8.2328 5.95686 7.64376 5.41352 6.8747 5.40993C6.05497 5.40611 5.23518 5.40583 4.41545 5.41087C3.78701 5.41474 3.23042 5.82709 3.09732 6.43564C3.02288 6.77607 3.03688 7.13552 3.01001 7.49983ZM14.9587 7.5044C14.9587 7.24225 14.9761 6.98672 14.9554 6.73432C14.8892 5.92552 14.3211 5.41138 13.5049 5.40933C12.7028 5.40732 11.9005 5.40126 11.0986 5.41525C10.9057 5.41861 10.6974 5.45989 10.5248 5.54264C9.69798 5.93895 9.63495 6.6552 9.7308 7.50445C11.4686 7.5044 13.2061 7.5044 14.9587 7.5044Z" fill="#43C5FF"/>
</svg>
