<svg width="18" height="18" viewBox="0 0 18 18" fill="none" xmlns="http://www.w3.org/2000/svg">
<path d="M-0.000135422 9.176C0.111349 9.47425 0.285746 9.71627 0.613571 9.79183C0.75955 9.8255 0.914274 9.8212 1.08171 9.83554C1.08451 9.8973 1.08963 9.95919 1.0897 10.021C1.09018 11.1225 1.08888 12.2239 1.09038 13.3253C1.09263 14.9582 2.10398 16.3094 3.67165 16.7712C3.78033 16.8031 3.82015 16.8536 3.81271 16.9673C3.80554 17.0772 3.81728 17.1896 3.83142 17.2994C3.88669 17.7276 4.24908 18.0191 4.69542 17.9989C5.0947 17.9809 5.42826 17.6445 5.44916 17.2355C5.45422 17.1368 5.44992 17.0376 5.44992 16.9245C7.81668 16.9245 10.1681 16.9245 12.5501 16.9245C12.5501 17.0236 12.5458 17.1269 12.5508 17.2297C12.5715 17.6482 12.9088 17.9855 13.3169 17.9992C13.7627 18.0143 14.1134 17.722 14.1714 17.2876C14.1768 17.2469 14.1953 17.2038 14.1871 17.1663C14.1225 16.8702 14.2893 16.7909 14.5384 16.6996C15.8245 16.2283 16.5904 15.2961 16.8626 13.9597C16.9053 13.7498 16.9074 13.5291 16.9083 13.3133C16.9126 12.2236 16.9103 11.1339 16.9103 10.0441C16.9103 9.98002 16.9103 9.91588 16.9103 9.835C17.0379 9.82612 17.1581 9.82017 17.2779 9.80897C17.6881 9.77072 18.0003 9.41939 18 8.99887C17.9997 8.5789 17.6865 8.22846 17.2752 8.19151C17.1704 8.18208 17.0648 8.17907 16.9595 8.17907C12.3076 8.17846 7.65574 8.17859 3.00384 8.17859C2.92275 8.17859 2.84174 8.17859 2.75102 8.17859C2.74494 8.11862 2.73654 8.07401 2.73654 8.0294C2.73592 6.36549 2.73319 4.70157 2.73749 3.03772C2.7392 2.37961 3.11436 1.87835 3.7196 1.69746C4.54514 1.45072 5.38174 2.0453 5.44445 2.93471C5.46453 3.21915 5.44759 3.5062 5.44759 3.79658C5.31282 3.80847 5.19115 3.81489 5.07065 3.83054C4.64876 3.88525 4.34656 4.24566 4.36165 4.67178C4.37661 5.09244 4.71236 5.44206 5.13985 5.448C5.89544 5.45845 6.6513 5.45838 7.40689 5.448C7.83226 5.44219 8.16302 5.0975 8.18618 4.67035C8.20865 4.25652 7.89463 3.88471 7.47335 3.83019C7.35764 3.81523 7.24076 3.80936 7.09826 3.79706C7.09826 3.67964 7.09634 3.55914 7.0986 3.4387C7.10803 2.92753 7.09354 2.41957 6.8951 1.93675C6.45764 0.872604 5.67589 0.234443 4.54001 0.0342238C4.51378 0.0295786 4.48987 0.0117495 4.46487 0C4.21875 0 3.97269 0 3.72657 0C3.6491 0.0194003 3.57205 0.0405084 3.49417 0.0579277C2.04079 0.383566 1.09127 1.56774 1.09031 3.05972C1.08922 4.69392 1.09004 6.32812 1.09004 7.96225C1.09004 8.02968 1.09004 8.0971 1.09004 8.16418C0.91407 8.17928 0.759346 8.17497 0.613365 8.20872C0.285677 8.28434 0.111347 8.5263 -6.86646e-05 8.82447C-0.000135422 8.94163 -0.000135422 9.05878 -0.000135422 9.176ZM2.73592 9.83425C6.92687 9.83425 11.0886 9.83425 15.255 9.83425C15.2587 9.88664 15.2639 9.92708 15.2639 9.96752C15.2643 11.098 15.2646 12.2285 15.2632 13.359C15.2631 13.4581 15.2615 13.5592 15.2432 13.6561C15.0574 14.6418 14.3114 15.2629 13.3048 15.2637C10.4346 15.2657 7.56441 15.2646 4.69419 15.2636C4.57752 15.2635 4.45838 15.2644 4.34444 15.243C3.35858 15.0582 2.73893 14.3116 2.73647 13.3051C2.7338 12.2039 2.73585 11.1027 2.73579 10.0015C2.73592 9.94942 2.73592 9.89743 2.73592 9.83425Z" fill="#43C5FF"/>
</svg>
