<svg width="18" height="19" viewBox="0 0 18 19" fill="none" xmlns="http://www.w3.org/2000/svg">
<path d="M15.2294 14.3438C14.2817 14.3438 13.3602 14.3499 12.4388 14.3397C12.2038 14.3371 11.9627 14.3084 11.7359 14.2482C10.5975 13.9457 9.60015 12.8342 9.69073 11.3488C9.76352 10.1548 10.7553 9.05426 11.9848 8.84689C12.1331 8.82187 12.285 8.80737 12.4353 8.8071C14.0359 8.8043 15.6364 8.80505 17.237 8.80548C17.7244 8.80564 17.9975 9.07939 17.9976 9.56799C17.9982 10.9093 17.9983 12.2506 17.9976 13.5919C17.9973 14.0667 17.7215 14.3423 17.2478 14.3438C17.0466 14.3444 16.8455 14.3439 16.6134 14.3439C16.6134 14.4307 16.6134 14.5067 16.6134 14.5827C16.6133 15.2101 16.6165 15.8375 16.6124 16.4648C16.6053 17.5606 15.6778 18.4955 14.5834 18.4966C10.8343 18.5002 7.0852 18.5023 3.33613 18.4957C1.76351 18.4929 0.267882 17.1761 0.0472503 15.6201C0.0180268 15.4141 0.00233673 15.2044 0.00217497 14.9964C-0.000520919 11.5566 -0.000197412 8.11679 0.000449602 4.67694C0.000773109 2.73093 1.53786 1.19071 3.47923 1.1892C3.91181 1.18888 4.3444 1.18867 4.77698 1.18926C5.23377 1.18991 5.53965 1.47109 5.53744 1.88706C5.53528 2.29123 5.22854 2.56864 4.7869 2.57414C4.25408 2.58082 3.71539 2.54659 3.18975 2.61318C2.12411 2.74819 1.39838 3.60192 1.38625 4.6764C1.37692 5.49838 1.3842 6.32057 1.3842 7.14266C1.3842 9.74597 1.38242 12.3492 1.38511 14.9526C1.38619 15.9886 2.00911 16.8047 2.98389 17.0455C3.1705 17.0916 3.36832 17.1109 3.56097 17.1111C7.18032 17.1149 10.7997 17.1141 14.419 17.1136C14.9544 17.1135 15.2284 16.837 15.2292 16.2985C15.2301 15.6574 15.2294 15.0163 15.2294 14.3438ZM16.602 12.9596C16.602 12.0191 16.602 11.1135 16.602 10.2119C16.5776 10.2025 16.5647 10.1934 16.5519 10.1933C15.1754 10.1923 13.7986 10.1747 12.4224 10.1977C11.5478 10.2123 10.9458 11.01 11.1154 11.8634C11.2412 12.497 11.8173 12.9558 12.5101 12.9582C13.8218 12.9627 15.1336 12.9595 16.4453 12.9595C16.4939 12.9596 16.5425 12.9596 16.602 12.9596Z" fill="#43C5FF"/>
<path d="M8.96015 5.34293C7.13589 5.34288 5.31163 5.34341 3.48737 5.34244C3.11685 5.34223 2.85831 5.15918 2.76849 4.84101C2.66378 4.47005 2.85955 4.13689 3.28615 3.9711C3.849 3.75235 4.41352 3.53787 4.97712 3.32117C7.33231 2.41562 9.68761 1.51023 12.0425 0.60398C12.6311 0.377417 12.942 0.511511 13.1781 1.10089C13.531 1.9819 13.8864 2.86195 14.2313 3.7461C14.2915 3.90057 14.3585 3.96468 14.5377 3.96414C15.6951 3.96075 16.6077 4.87686 16.6131 6.03092C16.6143 6.26892 16.6168 6.50696 16.6124 6.7449C16.6052 7.12896 16.3009 7.42152 15.9164 7.41995C15.5355 7.41839 15.2359 7.12087 15.23 6.73477C15.227 6.5329 15.2305 6.33092 15.2292 6.12894C15.2258 5.62497 14.9423 5.34358 14.4329 5.34331C12.6086 5.34234 10.7844 5.34293 8.96015 5.34293ZM12.0696 2.0899C10.4696 2.70532 8.89264 3.31179 7.31576 3.91826C7.3184 3.92786 7.3211 3.9374 7.32374 3.947C9.14535 3.947 10.967 3.947 12.8095 3.947C12.5614 3.32435 12.3202 2.71896 12.0696 2.0899Z" fill="#43C5FF"/>
</svg>
