<svg width="77" height="80" viewBox="0 0 77 80" fill="none" xmlns="http://www.w3.org/2000/svg">
<path d="M16.0802 34.8588C15.7283 33.9681 15.1418 33.6773 14.2295 33.7323C11.2892 33.9105 8.36723 33.7585 5.56773 32.7368C5.03598 32.5429 4.4547 32.1447 4.17058 31.6758C2.83079 29.4752 1.60046 27.2091 0.302372 24.9797C-0.153785 24.1937 -0.0912259 23.5362 0.500475 22.8393C2.10875 20.9504 3.69618 19.0459 5.25493 17.1151C5.83099 16.4025 6.4644 16.2034 7.31155 16.5178C8.13524 16.8217 9.00585 17.0129 9.80086 17.3797C11.9539 18.3778 14.1643 18.4538 16.4529 18.0137C17.6989 17.7753 18.9631 17.6024 20.2273 17.5185C20.9519 17.4688 21.7 17.6076 22.4221 17.7517C22.959 17.8591 23.483 18.0766 23.9834 18.3045C27.1218 19.7427 30.3905 20.3741 33.8442 20.0754C35.0094 19.9759 36.1954 20.1462 37.3606 20.0414C39.8368 19.8213 42.1307 20.3427 44.3332 21.4482C45.0866 21.8254 45.9467 22.0088 46.6688 22.4306C48.7906 23.6671 51.0192 23.7195 53.3547 23.3056C54.8275 23.0436 56.3237 22.8707 57.8172 22.8052C58.6957 22.7659 59.6314 22.8812 60.4656 23.1589C62.5639 23.8584 64.6049 24.7203 66.6928 25.4512C67.2506 25.6451 67.9074 25.7132 68.4939 25.6425C70.3994 25.4198 72.297 25.1054 74.1972 24.8251C75.4796 24.6365 76.1574 25.2573 75.9723 26.5332C75.7012 28.4063 75.3493 30.269 75.0782 32.1421C74.9583 32.9647 74.5595 33.4756 73.8271 33.8633C69.1378 36.3468 64.4563 38.8487 59.7957 41.3925C59.303 41.6624 58.8286 42.1654 58.5888 42.6762C57.1969 45.6261 55.8857 48.6126 54.5199 51.5756C54.3035 52.0471 54.2905 52.3799 54.6346 52.8016C55.354 53.6871 56.0239 54.6145 56.699 55.5367C57.3741 56.4588 57.3845 57.0169 56.5635 57.7687C51.2851 62.5917 46.9633 68.2504 42.5686 73.8437C42.029 74.53 41.4295 74.8025 40.5693 74.792C37.3762 74.7553 34.1831 74.7501 30.99 74.8025C30.4218 74.813 29.7805 75.0304 29.3061 75.3526C27.3121 76.7097 25.3545 78.1217 23.4152 79.5548C22.6098 80.1495 21.9294 80.1442 21.1214 79.5443C19.0257 77.9908 16.8908 76.4922 14.7717 74.9754C13.4423 74.0244 13.3954 73.8751 13.9167 72.2875C14.047 71.8919 14.1565 71.4937 14.2947 71.03C12.5534 70.2808 10.8539 69.5446 9.15182 68.8189C7.06392 67.9256 6.95966 67.6767 7.83809 65.615C8.56794 63.9042 9.33949 62.2119 10.0042 60.4776C10.2101 59.9431 10.2753 59.2699 10.1632 58.7066C9.66271 56.2126 9.10229 53.7264 8.50277 51.2534C8.24472 50.1923 8.4741 49.451 9.39684 48.8222C10.4708 48.0913 11.8575 47.439 12.384 46.3884C12.9079 45.3405 12.6733 43.8237 12.53 42.54C12.2693 40.2294 12.9158 38.3353 14.5788 36.7293C15.1548 36.1739 15.598 35.4692 16.0802 34.8588ZM63.4501 36.3626C63.4267 36.2866 63.4058 36.2106 63.3824 36.1346C63.0305 36.1346 62.6812 36.1346 62.3293 36.1346C49.1711 36.1346 36.0129 36.132 22.8548 36.1373C21.3951 36.1373 19.7268 35.7548 18.5356 36.339C17.3418 36.9232 16.5937 38.4689 15.7205 39.6451C15.4364 40.0276 15.2383 40.5699 15.2252 41.0467C15.1679 42.8413 15.1653 44.641 15.2174 46.4356C15.2461 47.4101 14.9567 48.1175 14.12 48.6572C13.3015 49.1864 12.5665 49.8465 11.761 50.3967C11.2788 50.7242 11.1876 51.0543 11.3309 51.6227C11.7298 53.2025 12.0999 54.7953 12.3736 56.4012C12.5274 57.3103 12.8767 57.5906 13.8229 57.588C26.4936 57.5513 39.1617 57.5539 51.8325 57.5827C52.8204 57.5854 53.5189 57.3129 54.0116 56.4169C53.3521 55.5341 52.7344 54.6119 52.0175 53.7683C51.3398 52.9693 51.2642 52.2227 51.71 51.2638C53.3391 47.7795 54.8796 44.2533 56.5192 40.7716C56.7746 40.232 57.2829 39.7159 57.8042 39.4146C59.6575 38.3457 61.5629 37.3738 63.4501 36.3626ZM73.0763 27.7016C71.4159 27.9374 69.9171 28.202 68.4053 28.3382C67.6885 28.4037 66.9039 28.3513 66.2288 28.1208C63.9532 27.3401 61.7167 26.4441 59.4568 25.6163C59.1049 25.4879 58.6983 25.4014 58.3307 25.4381C56.4853 25.6163 54.6268 25.7525 52.8021 26.0695C50.5161 26.4651 48.3917 26.2712 46.2882 25.1945C44.6434 24.3509 42.8762 23.7457 41.148 23.0751C40.6762 22.8917 40.1496 22.7764 39.6466 22.7738C36.1954 22.7476 32.7416 22.7712 29.2905 22.7476C28.7509 22.745 28.1879 22.6428 27.6744 22.4725C26.3476 22.035 25.0157 21.5923 23.7332 21.0421C22.0441 20.3191 20.3498 19.9706 18.5226 20.4108C17.7667 20.5915 16.969 20.5863 16.2027 20.7356C13.9897 21.1679 11.8288 21.16 9.73048 20.1855C9.05537 19.8711 8.31509 19.7061 7.61392 19.4415C7.16037 19.2685 6.858 19.3419 6.53739 19.7453C5.50256 21.05 4.44428 22.3337 3.35211 23.5859C2.98458 24.0077 2.97936 24.3195 3.25566 24.7832C4.17058 26.3262 5.00731 27.9164 5.95611 29.4359C6.21417 29.8498 6.70942 30.1982 7.1734 30.379C9.44897 31.2671 11.8523 31.1545 14.2165 31.0235C15.916 30.9292 17.1776 31.3378 18.0664 32.8573C18.2567 33.1848 18.8458 33.452 19.2498 33.452C35.6011 33.4808 51.9524 33.5227 68.301 33.3917C69.6669 33.3813 71.0223 32.1709 72.3778 31.5081C72.4429 31.4767 72.4742 31.3378 72.4899 31.2461C72.6828 30.1065 72.8678 28.9617 73.0763 27.7016ZM22.2709 77.0634C24.304 75.6094 26.2955 74.1371 28.3469 72.7538C28.8734 72.3975 29.5903 72.1696 30.2237 72.1565C33.349 72.0963 36.4769 72.112 39.6049 72.1434C40.2591 72.1513 40.6736 71.9469 41.0724 71.4256C42.5034 69.563 43.9787 67.7343 45.4567 65.9084C46.9659 64.0457 48.4986 62.2014 50.1095 60.2444C49.768 60.2444 49.4917 60.2444 49.2154 60.2444C37.4544 60.2444 25.696 60.2444 13.9349 60.2444C13.7733 60.2444 13.5909 60.1999 13.4501 60.2575C13.239 60.3466 12.9575 60.4619 12.8767 60.6426C12.0347 62.5446 11.2293 64.4622 10.39 66.4297C11.9435 67.103 13.4267 67.7658 14.9229 68.3919C17.1776 69.3376 17.8787 69.3141 16.7266 72.2351C16.7136 72.2666 16.6927 72.3006 16.7006 72.3294C16.7944 72.6517 16.7892 73.1101 17.0055 73.2725C18.7285 74.5562 20.4906 75.7902 22.2709 77.0634Z" fill="#43C5FF"/>
<path d="M17.9987 4.70261C17.9882 2.10642 20.0292 0.0184587 22.5993 0.000120325C25.2268 -0.0182181 27.3069 2.06188 27.299 4.69737C27.2886 7.27261 25.2059 9.37105 22.6515 9.37367C20.11 9.37891 18.0117 7.26999 17.9987 4.70261ZM22.6697 2.69587C21.5671 2.68539 20.6574 3.56563 20.6444 4.65546C20.6313 5.73218 21.5463 6.6622 22.6254 6.67268C23.7071 6.68316 24.6351 5.77934 24.6507 4.69737C24.669 3.61541 23.7697 2.70635 22.6697 2.69587Z" fill="#43C5FF"/>
<path d="M68.6868 72.3006C68.6868 72.7905 68.7337 73.283 68.6764 73.7651C68.593 74.4541 68.1837 74.8968 67.4643 74.9466C66.698 74.999 66.1532 74.5955 66.0854 73.862C65.9916 72.8298 65.9942 71.7767 66.0854 70.7445C66.1506 70.0083 66.7006 69.5944 67.4591 69.6546C68.2098 69.7123 68.6243 70.1891 68.6842 70.9331C68.7207 71.3863 68.692 71.8448 68.692 72.3006C68.692 72.3006 68.6894 72.3006 68.6868 72.3006Z" fill="#43C5FF"/>
<path d="M68.692 64.2265C68.692 64.7164 68.7363 65.2089 68.6816 65.6935C68.5982 66.4297 68.1759 66.8908 67.407 66.917C66.6354 66.9405 66.1323 66.5057 66.0724 65.7721C65.9916 64.7688 65.9916 63.7497 66.0776 62.7489C66.1402 62.0128 66.6641 61.5779 67.4226 61.6172C68.1733 61.6539 68.6086 62.1149 68.6842 62.8616C68.7285 63.3095 68.692 63.768 68.692 64.2265Z" fill="#43C5FF"/>
<path d="M71.3273 69.6232C70.8712 69.6232 70.4124 69.6651 69.9641 69.6127C69.229 69.5289 68.7572 69.094 68.7207 68.3421C68.6842 67.5824 69.1247 67.0532 69.852 66.9877C70.8503 66.8986 71.8695 66.896 72.8678 66.9825C73.5898 67.0453 74.0304 67.5457 74.0069 68.3264C73.9835 69.1045 73.5169 69.521 72.7922 69.6127C72.31 69.6704 71.8148 69.6232 71.3273 69.6232Z" fill="#43C5FF"/>
<path d="M63.3068 69.6284C62.8845 69.6284 62.4596 69.6546 62.04 69.6232C61.2554 69.5603 60.7445 69.1281 60.7132 68.3316C60.6793 67.5248 61.1746 67.0244 61.9487 66.9641C62.8845 66.8934 63.8359 66.8908 64.7717 66.9641C65.5406 67.027 66.0255 67.509 65.9916 68.3369C65.9577 69.1621 65.4468 69.5603 64.67 69.6206C64.2191 69.6573 63.7629 69.6284 63.3068 69.6284Z" fill="#43C5FF"/>
<path d="M75.4849 47.7429C75.4901 48.4947 74.815 49.1811 74.0643 49.1864C73.3136 49.1916 72.6332 48.5157 72.6306 47.7612C72.6254 46.9988 73.2875 46.3282 74.0486 46.3229C74.8045 46.3151 75.4796 46.9831 75.4849 47.7429Z" fill="#43C5FF"/>
<path d="M1.96539 3.64422C1.1808 3.63898 0.55 2.97618 0.57346 2.18239C0.594313 1.42528 1.19644 0.81487 1.94454 0.796531C2.7187 0.778193 3.38599 1.43052 3.39121 2.20859C3.39642 2.99976 2.74998 3.64946 1.96539 3.64422Z" fill="#43C5FF"/>
</svg>
