<svg width="12" height="12" viewBox="0 0 12 12" fill="none" xmlns="http://www.w3.org/2000/svg">
<path d="M5.68241 0.0160465C5.3705 0.0723305 5.01403 0.227114 4.79358 0.400659C4.64818 0.515574 0.886484 3.9208 0.626167 4.17642C0.325982 4.46723 0.166509 4.72989 0.0539395 5.12154L0 5.30446V7.8021C0 10.1637 0.0023452 10.3091 0.0445587 10.4639C0.220448 11.1276 0.715285 11.674 1.33207 11.8851C1.43761 11.9203 1.59239 11.9625 1.67682 11.9742C1.77766 11.9906 3.2223 12 6.01543 12C10.014 12 10.211 11.9977 10.415 11.9554C11.1538 11.803 11.7307 11.2261 11.93 10.4381L11.984 10.2294V7.75519V5.28101L11.9183 5.07464C11.7987 4.69002 11.6556 4.46488 11.3484 4.1647C11.2335 4.05447 10.4596 3.34857 9.62703 2.59576C8.79449 1.84061 7.92911 1.05497 7.70397 0.850936C7.47883 0.644559 7.23493 0.433491 7.16223 0.379552C6.98869 0.252911 6.72602 0.123925 6.50792 0.0629501C6.31092 0.00666523 5.86534 -0.0191317 5.68241 0.0160465ZM6.30623 1.29652C6.35548 1.31998 7.3217 2.18066 8.45209 3.20551C10.0656 4.67126 10.5206 5.09574 10.5792 5.19424C10.7387 5.46159 10.7316 5.3115 10.7246 7.91936L10.7175 10.2763L10.6519 10.4006C10.5651 10.5647 10.4244 10.7008 10.2626 10.7782L10.1312 10.8391H5.96852H1.8058L1.64867 10.7617C1.46809 10.6726 1.3438 10.546 1.25703 10.3607L1.19605 10.2294L1.18901 7.90998C1.18667 6.43954 1.19136 5.54367 1.20778 5.46394C1.2195 5.39358 1.24764 5.29977 1.26875 5.25287C1.29455 5.19893 1.56425 4.93861 2.03798 4.5071C4.97651 1.83826 5.47603 1.39033 5.55812 1.34812C5.72697 1.259 5.8325 1.23555 6.02715 1.24493C6.14911 1.24962 6.24526 1.26838 6.30623 1.29652Z" fill="#43C5FF"/>
</svg>
