<svg width="18" height="19" viewBox="0 0 18 19" fill="none" xmlns="http://www.w3.org/2000/svg">
<g clip-path="url(#clip0_179_33)">
<path d="M8.65546 0.0390863C8.49022 0.08883 8.27226 0.323336 8.22655 0.500991C8.20194 0.593372 8.1914 0.849197 8.19843 1.15476C8.20897 1.63088 8.21249 1.66641 8.3039 1.80143C8.44804 2.02172 8.6203 2.11411 8.89452 2.11411C9.16874 2.11411 9.34101 2.02172 9.48515 1.80143C9.58007 1.65931 9.58007 1.64865 9.58007 1.06949C9.58007 0.511651 9.57655 0.472566 9.49569 0.344654C9.33046 0.0746176 8.96483 -0.0568476 8.65546 0.0390863Z" fill="#43C5FF"/>
<path d="M4.55261 1.19741C4.19753 1.38573 4.05691 1.76947 4.21511 2.11767C4.3487 2.41613 4.67917 2.9491 4.7741 3.01306C5.00964 3.18005 5.24167 3.20137 5.50535 3.07701C5.78308 2.94555 5.93425 2.66485 5.89206 2.35573C5.87097 2.19939 5.51589 1.5243 5.36472 1.3573C5.18191 1.14767 4.78464 1.07305 4.55261 1.19741Z" fill="#43C5FF"/>
<path d="M13.0817 1.28268C12.9059 1.35374 12.7969 1.47099 12.593 1.80143C12.2731 2.3344 12.259 2.36637 12.2766 2.59733C12.3188 3.17648 12.9833 3.46784 13.4086 3.09121C13.4719 3.03436 13.6336 2.80696 13.7672 2.58667C13.9711 2.24557 14.0098 2.16029 14.0204 1.98974C14.0415 1.69128 13.9043 1.45322 13.6336 1.3111C13.493 1.24004 13.2258 1.22583 13.0817 1.28268Z" fill="#43C5FF"/>
<path d="M8.25101 3.60641C7.33694 3.73788 6.46155 4.10385 5.70921 4.66524C5.40335 4.89264 4.81272 5.49312 4.6053 5.78447C4.00413 6.63011 3.65608 7.52195 3.55062 8.52037C3.47327 9.22744 3.5471 9.51169 3.85647 9.70356C4.04632 9.82436 4.39085 9.82436 4.58069 9.70356C4.82327 9.55077 4.89007 9.4051 4.92522 8.92898C4.97444 8.23257 5.10101 7.76711 5.38226 7.21282C5.60022 6.7829 5.82171 6.48444 6.19437 6.12557C6.54944 5.78092 6.82015 5.58905 7.25257 5.38297C8.55687 4.75052 10.0967 4.86777 11.292 5.68854C11.5768 5.88396 12.0514 6.34942 12.2729 6.64433C12.5998 7.08136 12.8916 7.74934 13.0041 8.31429C13.0252 8.42088 13.0569 8.69803 13.0744 8.92898C13.1096 9.4051 13.1764 9.55077 13.419 9.70356C13.6194 9.83147 13.9604 9.82436 14.1573 9.6929C14.4701 9.48326 14.5369 9.1777 14.435 8.40312C14.2733 7.14532 13.753 6.07938 12.867 5.18755C12.0444 4.35257 11.0881 3.84447 9.94905 3.63839C9.52718 3.56022 8.67288 3.54246 8.25101 3.60641Z" fill="#43C5FF"/>
<path d="M1.52914 4.31703C1.23734 4.42007 1.01937 4.78604 1.07211 5.0774C1.10726 5.25861 1.21625 5.45758 1.32523 5.53575C1.61351 5.73473 2.16195 6.01542 2.29906 6.02963C2.49242 6.05451 2.67875 5.99055 2.83343 5.85198C3.0057 5.70275 3.06898 5.55707 3.06898 5.32967C3.06898 4.98857 2.94945 4.83934 2.42211 4.53733C1.91234 4.24597 1.79984 4.2211 1.52914 4.31703Z" fill="#43C5FF"/>
<path d="M16.0137 4.34546C15.8133 4.42363 15.2895 4.73275 15.1629 4.8429C15.0047 4.98147 14.9414 5.13426 14.9414 5.36521C14.9414 5.78803 15.3211 6.12557 15.7254 6.06162C15.9469 6.02609 16.6922 5.58905 16.8082 5.42561C17.202 4.87488 16.6324 4.10385 16.0137 4.34546Z" fill="#43C5FF"/>
<path d="M0.464038 8.42444C0.298804 8.47418 0.080835 8.70869 0.0316162 8.8899C-0.0492432 9.20612 0.0738037 9.53656 0.340991 9.70356C0.467554 9.78528 0.506226 9.78883 1.05818 9.78883C1.63123 9.78883 1.64177 9.78883 1.7824 9.6929C2.00037 9.54722 2.09177 9.37312 2.09177 9.09598C2.09177 8.81883 2.00037 8.64473 1.7824 8.49905C1.64529 8.40667 1.62068 8.40312 1.11091 8.39601C0.819116 8.39246 0.527319 8.40312 0.464038 8.42444Z" fill="#43C5FF"/>
<path d="M16.3547 8.42444C16.1894 8.47418 15.9715 8.70869 15.9222 8.8899C15.8414 9.20612 15.9644 9.53656 16.2316 9.70356C16.3582 9.78528 16.3969 9.78883 16.9488 9.78883C17.5219 9.78883 17.5324 9.78883 17.673 9.6929C17.891 9.54722 17.9824 9.37312 17.9824 9.09598C17.9824 8.81883 17.891 8.64473 17.673 8.49905C17.5359 8.40667 17.5113 8.40312 17.0015 8.39601C16.7097 8.39246 16.4179 8.40312 16.3547 8.42444Z" fill="#43C5FF"/>
<path d="M1.589 11.1568C1.20229 11.2598 0.931583 11.4197 0.632755 11.7253C0.326895 12.0309 0.172208 12.3044 0.0702546 12.7059C-0.200448 13.779 0.407755 14.884 1.4765 15.2535L1.70502 15.3317L7.19291 15.3495L12.6773 15.3672L12.8214 15.4632C13.0429 15.6088 13.1308 15.7829 13.1308 16.0636C13.1308 16.2555 13.1132 16.3195 13.0359 16.4403C12.9831 16.5184 12.8812 16.6215 12.8074 16.6677L12.6738 16.7529L9.40424 16.7707L6.13471 16.7885L6.00111 16.8737C5.92729 16.9199 5.82533 17.023 5.7726 17.1011C5.69525 17.222 5.67768 17.2859 5.67768 17.4778C5.67768 17.7585 5.76557 17.9326 5.98705 18.0783L6.13119 18.1742L9.38315 18.1848C13.0148 18.1955 12.9093 18.2026 13.405 17.9503C13.7214 17.7904 14.1363 17.3818 14.3015 17.0656C14.9167 15.8895 14.3402 14.4612 13.0781 14.0241L12.8496 13.946L7.36518 13.9282L1.8808 13.9104L1.74721 13.8252C1.67338 13.779 1.57143 13.6759 1.51869 13.5978C1.44135 13.477 1.42377 13.413 1.42377 13.2211C1.42377 12.9404 1.51166 12.7663 1.73315 12.6207L1.87729 12.5247L9.69955 12.507L17.5253 12.4892L17.6589 12.4039C17.7328 12.3577 17.8347 12.2547 17.8874 12.1765C17.9683 12.0557 17.9824 11.9918 17.9824 11.7963C17.9824 11.6009 17.9683 11.537 17.8874 11.4162C17.8347 11.338 17.7328 11.235 17.6589 11.1888L17.5253 11.1035L9.68549 11.0964C2.0601 11.0893 1.83861 11.0928 1.589 11.1568Z" fill="#43C5FF"/>
</g>
<defs>
<clipPath id="clip0_179_33">
<rect width="18" height="18.1919" fill="white"/>
</clipPath>
</defs>
</svg>
