<svg width="18" height="19" viewBox="0 0 18 19" fill="none" xmlns="http://www.w3.org/2000/svg">
<g clip-path="url(#clip0_179_23)">
<path d="M8.11744 0.0452862C6.03267 0.315323 4.17291 1.47719 2.99517 3.24309C2.07408 4.62525 1.64517 6.41602 1.83853 8.07532C1.9897 9.37932 2.41509 10.4914 3.24478 11.735C3.76509 12.5167 4.1483 12.9857 5.46666 14.4567C6.88345 16.0379 7.38267 16.649 7.97681 17.5337C8.39517 18.152 8.41978 18.1662 8.99634 18.1662C9.55181 18.1662 9.61158 18.1342 9.91744 17.6723C10.5186 16.7662 11.0178 16.1444 12.3643 14.6344C12.526 14.4532 12.6807 14.2506 12.7088 14.1831C12.8284 13.8953 12.7194 13.5294 12.4522 13.341C12.185 13.1492 11.8124 13.1811 11.5698 13.4192C11.1092 13.874 9.90338 15.2881 9.38306 15.981C9.18619 16.2439 9.01041 16.4607 8.99634 16.4607C8.97877 16.4607 8.83463 16.283 8.67642 16.0698C8.31783 15.5866 7.68853 14.8191 7.18228 14.2542C6.97134 14.0197 6.51431 13.508 6.16627 13.1172C4.86548 11.664 4.29595 10.8894 3.84595 9.96558C3.16744 8.58342 3.01978 7.14085 3.4065 5.71606C3.99713 3.5451 5.77955 1.91778 8.02252 1.49496C8.42681 1.42034 9.48853 1.40968 9.87525 1.47719C12.1604 1.88225 13.9393 3.46338 14.5651 5.6521C15.0432 7.32206 14.769 9.04532 13.7635 10.662C13.3909 11.2625 13.3628 11.3797 13.5104 11.7031C13.6405 11.9837 13.9182 12.1365 14.2276 12.0939C14.544 12.0513 14.6987 11.8772 15.1803 11.0351C16.1577 9.31891 16.4424 7.40023 15.9924 5.5384C15.3807 3.00503 13.4295 0.969095 10.937 0.262026C10.1073 0.0239677 8.9647 -0.0613079 8.11744 0.0452862Z" fill="#43C5FF"/>
<path d="M7.17523 3.90396C7.01352 3.95371 6.79203 4.18821 6.74633 4.35876C6.72172 4.4547 6.71117 5.45668 6.7182 7.54946L6.72875 10.598L6.81312 10.733C6.85883 10.8077 6.96078 10.9107 7.03812 10.964C7.15766 11.0457 7.22094 11.0599 7.4143 11.0599C7.60766 11.0599 7.67094 11.0457 7.79047 10.964C7.86781 10.9107 7.96977 10.8077 8.01547 10.733C8.09984 10.598 8.09984 10.5838 8.11039 9.48591L8.12094 8.37734H9.11234C10.2584 8.37734 10.4377 8.34891 10.8948 8.12506C11.1268 8.00781 11.2534 7.91543 11.4608 7.70224C12.308 6.83884 12.3432 5.48865 11.5381 4.61103C11.2569 4.30547 10.9967 4.12781 10.6135 3.99279L10.3147 3.88265L8.80297 3.87554C7.89945 3.87199 7.24555 3.88265 7.17523 3.90396ZM10.3182 5.41048C10.6311 5.60946 10.7787 5.98609 10.6803 6.3414C10.6205 6.56169 10.3393 6.86371 10.1389 6.91701C10.0545 6.94188 9.62562 6.95609 9.05961 6.95609H8.11742V6.11755V5.28257L9.12992 5.29323L10.1459 5.30389L10.3182 5.41048Z" fill="#43C5FF"/>
</g>
<defs>
<clipPath id="clip0_179_23">
<rect width="18" height="18.1919" fill="white"/>
</clipPath>
</defs>
</svg>
