<svg width="80" height="80" viewBox="0 0 80 80" fill="none" xmlns="http://www.w3.org/2000/svg">
<g clip-path="url(#clip0_53_835)">
<path d="M46.0683 79.9994C44.6831 79.5742 43.6048 78.6944 42.7031 77.6063C42.1661 76.9582 41.5477 76.7974 40.7377 76.7999C32.0581 76.8253 23.3783 76.8111 14.6986 76.8196C13.1333 76.8213 11.725 76.4359 10.8358 75.0696C10.4286 74.4438 10.0775 73.6501 10.0592 72.9234C9.97313 69.5151 10.004 66.1036 10.0121 62.6932C10.0138 61.9524 10.5006 61.4534 11.1302 61.4476C11.7775 61.4417 12.2763 61.9605 12.2815 62.7532C12.3002 65.6169 12.2911 68.4807 12.2923 71.3447C12.2925 71.6572 12.2873 71.9696 12.294 72.2819C12.3269 73.8086 13.0233 74.5032 14.5688 74.5069C18.155 74.5157 21.7413 74.5099 25.3275 74.5099C29.7194 74.5099 34.1113 74.5099 38.5031 74.5099C38.7848 74.5099 39.0663 74.5099 39.5861 74.5099C38.8592 73.7794 38.1923 73.2446 37.6954 72.5817C36.6636 71.2055 35.3692 70.7315 33.6702 70.8994C32.229 71.0419 30.7625 70.9305 29.3073 70.9282C28.2752 70.9265 27.6933 70.4934 27.7098 69.7461C27.7256 69.024 28.2913 68.6078 29.2727 68.6057C30.6729 68.6026 32.0731 68.6049 33.5983 68.6049C33.4123 68.3742 33.3063 68.2167 33.175 68.0844C32.039 66.9399 30.8965 65.8015 29.7594 64.658C27.5238 62.4096 27.5158 59.7453 29.739 57.5134C31.2592 55.9874 32.7838 54.4655 34.409 52.8392C29.3129 52.1092 25.4648 49.6678 22.9871 45.2471C21.2415 42.1328 20.7702 38.779 21.47 35.2911C22.8646 28.3401 29.0811 23.4132 36.2713 23.6226C42.9636 23.8174 49.3 28.7436 50.4911 36.9055C50.9283 36.4057 51.37 35.9096 51.8025 35.4055C53.8606 33.0055 57.2263 33.2801 58.8783 35.208C58.9381 35.2778 59.0254 35.3236 59.2477 35.4938C59.2477 35.0601 59.2477 34.7876 59.2477 34.5153C59.2481 32.1461 59.2392 29.7769 59.2538 27.4078C59.2594 26.4794 59.8056 25.8959 60.5227 25.9849C61.17 26.0651 61.5379 26.558 61.54 27.4094C61.5473 30.4034 61.5908 33.3986 61.5179 36.3909C61.4917 37.4699 61.8215 38.2117 62.5875 38.9613C65.9894 42.2901 69.3317 45.6799 72.6908 49.0526C74.924 51.2949 74.9286 53.9682 72.7042 56.2005C69.1792 59.7382 65.6567 63.2786 62.1115 66.7959C61.6858 67.2182 61.5158 67.6382 61.5315 68.2276C61.5681 69.6065 61.5546 70.9871 61.5402 72.3667C61.5121 75.0501 59.8579 76.7417 57.1704 76.8074C55.7419 76.8424 54.3115 76.8355 52.8829 76.8044C52.3477 76.7928 51.9565 76.9384 51.5896 77.3401C50.5567 78.4711 49.4881 79.5705 47.94 79.999C47.3161 79.9994 46.6921 79.9994 46.0683 79.9994ZM47.0504 77.9128C47.6904 77.5405 48.3288 77.324 48.7577 76.8965C56.2756 69.4059 63.7708 61.8924 71.2627 54.3753C72.3079 53.3265 72.3171 51.9517 71.2773 50.9057C66.5825 46.1834 61.8779 41.4707 57.1648 36.7665C56.1079 35.7117 54.7577 35.7159 53.7079 36.7661C46.1865 44.2903 38.6704 51.8201 31.1604 59.3557C30.144 60.3757 30.1304 61.7513 31.1394 62.7663C35.8525 67.5071 40.5706 72.2432 45.3192 76.9484C45.7456 77.3713 46.4019 77.5611 47.0504 77.9128ZM23.5467 39.404C23.7754 41.5657 24.4469 43.458 25.6502 45.1715C26.5775 44.8513 27.4488 44.5505 28.319 44.2499C28.0988 42.6144 27.8829 41.0111 27.6667 39.404C26.3015 39.404 24.9842 39.404 23.5467 39.404ZM28.3161 32.2174C27.4554 31.9203 26.5608 31.6113 25.634 31.2911C24.4744 33.0419 23.7281 34.8982 23.5815 37.0046C25.0188 37.0046 26.354 37.0046 27.6792 37.0046C27.8946 35.3851 28.1025 33.823 28.3161 32.2174ZM47.994 37.0607C47.7652 34.8784 47.0838 32.9938 45.895 31.2913C44.9486 31.6228 44.055 31.9357 43.2475 32.2186C43.4198 33.6955 43.5686 35.109 43.7671 36.5155C43.7952 36.7149 44.0608 37.0305 44.2261 37.0365C45.4371 37.0811 46.6506 37.0607 47.994 37.0607ZM34.5306 43.3624C34.5306 42.0165 34.5306 40.7053 34.5306 39.4153C32.9915 39.4153 31.5496 39.4153 29.9975 39.4153C30.1986 40.8901 30.3919 42.3086 30.5873 43.7421C31.9713 43.6088 33.2248 43.488 34.5306 43.3624ZM36.9819 39.4155C36.9819 40.7628 36.9819 42.0674 36.9819 43.3599C38.3233 43.4871 39.5986 43.6082 40.9763 43.739C41.1679 42.2759 41.3536 40.8603 41.5429 39.4155C39.9288 39.4155 38.465 39.4155 36.9819 39.4155ZM34.5842 33.124C33.2823 32.9917 32.0029 32.8617 30.5881 32.718C30.395 34.1367 30.2021 35.5538 30.0029 37.0161C31.6119 37.0161 33.0763 37.0161 34.584 37.0161C34.5842 35.7071 34.5842 34.4446 34.5842 33.124ZM36.9781 33.1207C36.9781 34.4474 36.9781 35.7267 36.9781 37.0078C38.5065 37.0078 39.9715 37.0078 41.55 37.0078C41.3417 35.523 41.1431 34.1086 40.9481 32.7192C39.5158 32.8638 38.2571 32.9911 36.9781 33.1207ZM54.7665 74.4551C55.6498 74.4551 56.6675 74.5736 57.6367 74.4074C58.1594 74.3178 58.91 73.8138 59.0144 73.3688C59.2758 72.2549 59.2271 71.0678 59.3033 69.9028C57.7025 71.509 56.2131 73.0036 54.7665 74.4551ZM31.3619 30.484C32.5023 30.5934 33.5221 30.6913 34.5627 30.7911C34.5627 29.238 34.5627 27.7784 34.5627 26.2238C32.9 27.234 32.0931 28.7436 31.3619 30.484ZM40.1958 30.4782C39.4317 28.7609 38.6669 27.209 36.98 26.2519C36.98 27.8194 36.98 29.2778 36.98 30.7999C38.0511 30.6928 39.0521 30.5926 40.1958 30.4782ZM31.4558 45.9603C31.8552 47.6799 33.3146 49.6305 34.5733 50.1328C34.5733 48.6771 34.5733 47.243 34.5733 45.7036C33.5029 45.7915 32.4856 45.8753 31.4558 45.9603ZM43.8548 39.4009C43.6631 40.9211 43.4829 42.3513 43.3356 43.5207C44.6398 42.2155 46.0858 40.7684 47.4521 39.4009C46.3742 39.4009 45.1319 39.4009 43.8548 39.4009ZM36.9481 50.1553C38.3483 48.9265 39.6723 47.8271 40.0929 45.9494C39.0204 45.8707 38.005 45.7961 36.9481 45.7186C36.9481 47.2371 36.9481 48.609 36.9481 50.1553ZM30.2898 27.3546C30.2492 27.2999 30.2086 27.2451 30.1679 27.1901C29.2058 27.8799 28.2436 28.5696 27.1058 29.3855C27.9294 29.6413 28.4808 29.8126 29.0306 29.9832C29.4702 29.0657 29.88 28.2101 30.2898 27.3546ZM42.5223 29.9965C43.0925 29.8071 43.6502 29.6219 44.454 29.3551C43.2865 28.544 42.3267 27.8774 41.3669 27.2105C41.3325 27.2638 41.2981 27.3171 41.2636 27.3703C41.6733 28.2251 42.0829 29.0799 42.5223 29.9965ZM27.2342 47.1965C28.2556 47.9109 29.2177 48.5838 30.1798 49.2567C30.0758 48.6551 29.8452 48.2219 29.635 47.779C28.9492 46.3342 28.9519 46.3328 27.4519 47.0117C27.429 47.0219 27.4119 47.0444 27.2342 47.1965Z" fill="#43C5FF"/>
<path d="M53.0867 -0.000559896C53.3802 0.145898 53.6786 0.283398 53.9665 0.440482C55.3198 1.17902 56.0019 2.34715 56.0294 3.86736C56.0638 5.76652 56.0377 7.66652 56.0377 9.69569C56.4929 9.69569 56.9211 9.68965 57.3492 9.69673C59.6783 9.73527 61.4715 11.4355 61.5208 13.7609C61.5752 16.3111 61.5465 18.8634 61.5371 21.4149C61.5342 22.2357 61.0944 22.728 60.4236 22.7403C59.739 22.7528 59.2617 22.2324 59.2552 21.373C59.2375 19.0819 59.2502 16.7909 59.2469 14.4996C59.2442 12.608 58.66 12.019 56.7921 12.019C42.8106 12.0186 28.8294 12.0188 14.8479 12.0188C12.864 12.0188 12.2942 12.583 12.2942 14.5603C12.2931 28.463 12.294 42.3659 12.2915 56.2686C12.2915 56.6319 12.2975 57.0024 12.2321 57.3567C12.1236 57.9455 11.7165 58.2682 11.1325 58.2586C10.5146 58.2484 10.1156 57.9024 10.0298 57.2674C9.99522 57.0109 10.0027 56.748 10.0027 56.488C10.0017 42.4551 10.0011 28.4219 10.0027 14.389C10.0031 11.7178 11.1323 10.3365 13.7148 9.6834C22.9544 7.34715 32.1879 4.98673 41.4244 2.63777C42.2788 2.42048 42.8848 2.68361 43.0746 3.3334C43.2808 4.04027 42.8933 4.62111 42.0148 4.84652C36.1223 6.35798 30.2275 7.86069 24.3338 9.36715C24.0929 9.42881 23.8542 9.49902 23.634 9.65902C33.6217 9.65902 43.6094 9.65902 53.7188 9.65902C53.7188 8.92111 53.7188 8.17819 53.7188 7.43548C53.7188 6.3159 53.7238 5.19652 53.7173 4.07694C53.7094 2.74611 52.8523 2.07111 51.5608 2.39319C50.3046 2.70652 49.0579 3.05861 47.7996 3.36257C47.4565 3.44548 47.0006 3.55694 46.7494 3.40361C46.4 3.19048 46.0419 2.77131 45.9636 2.38444C45.8506 1.82527 46.2473 1.40402 46.8136 1.25194C48.2142 0.876107 49.6206 0.521523 51.0236 0.15319C51.1444 0.121523 51.2554 0.0513151 51.3708 -0.000976562C51.9429 -0.000559896 52.5148 -0.000559896 53.0867 -0.000559896Z" fill="#43C5FF"/>
<path d="M35.8115 16.8767C39.9181 16.8767 44.025 16.8765 48.1317 16.8774C48.3654 16.8774 48.6717 16.7926 48.8188 16.908C49.179 17.1901 49.6575 17.5326 49.7244 17.9146C49.7825 18.2467 49.4144 18.7536 49.0977 19.0188C48.864 19.2146 48.4096 19.1882 48.0533 19.1886C39.8658 19.1967 31.6783 19.1963 23.4908 19.1899C23.159 19.1896 22.7252 19.2313 22.5183 19.0492C22.1875 18.758 21.8381 18.309 21.8046 17.9013C21.7594 17.3528 22.1961 16.9649 22.79 16.8882C22.9948 16.8617 23.2052 16.8774 23.4131 16.8774C27.5461 16.8765 31.6788 16.8767 35.8115 16.8767Z" fill="#43C5FF"/>
<path d="M54.6071 61.1759C54.1952 61.9244 53.9611 62.6751 53.4738 63.1803C51.0363 65.7076 48.5458 68.1844 46.0458 70.6505C44.795 71.8842 43.1975 71.8609 41.9586 70.6296C39.4861 68.1728 37.0225 65.7067 34.57 63.2299C33.3154 61.9628 33.3273 60.3517 34.59 59.0792C37.0267 56.6232 39.4717 54.1755 41.9229 51.734C43.2 50.4622 44.7842 50.4276 46.0658 51.6924C48.5652 54.1588 51.0558 56.6355 53.4917 59.1642C53.9773 59.6686 54.2023 60.4253 54.6071 61.1759ZM51.2842 60.1753C48.8948 57.7807 46.6761 55.5569 44.4565 53.3338C44.0823 52.959 43.7836 53.1238 43.4656 53.4438C41.1017 55.823 38.7377 58.2022 36.3519 60.5592C35.8896 61.0161 35.9038 61.3326 36.3596 61.7784C37.9394 63.3234 39.4911 64.8974 41.0504 66.4634C41.6465 67.0619 42.234 67.6688 42.8865 68.3344C43.01 67.2524 43.1169 66.3161 43.2238 65.3807C40.6069 64.4969 39.3956 62.8557 39.6508 60.5428C39.8719 58.5405 41.4352 57.0001 43.4975 56.7524C45.6348 56.4957 47.3596 57.8253 48.2352 60.4317C48.6817 60.3469 49.1308 60.2255 49.5873 60.1849C50.0723 60.1417 50.564 60.1753 51.2842 60.1753ZM50.6861 62.5032C50.6371 62.4967 50.5108 62.4461 50.4027 62.4717C49.5808 62.6661 48.7411 62.8147 47.9479 63.094C46.7733 63.5076 45.7633 62.789 45.8702 61.5432C45.8856 61.3624 45.9167 61.1807 45.9108 61.0003C45.8744 59.8799 44.9142 59.0009 43.8017 59.0607C42.7148 59.119 41.8615 60.0584 41.9135 61.1392C41.9681 62.274 42.9098 63.1211 44.039 63.0515C45.8613 62.9392 46.4611 63.8017 45.7481 65.4803C45.4098 66.2767 45.1575 67.0965 45.3275 67.8746C47.1123 66.0855 48.9 64.2934 50.6861 62.5032Z" fill="#43C5FF"/>
<path d="M54.9996 41.5584C58.2654 41.5744 61.2673 45.2955 60.3898 48.3124C60.2017 48.9588 59.7688 49.5567 59.3567 50.108C58.9711 50.6238 58.4677 51.0526 58.0083 51.5117C57.249 52.2707 56.6461 52.2776 55.8733 51.5088C54.105 49.7494 52.3427 47.9842 50.5879 46.2115C49.91 45.5267 49.9129 44.9499 50.5813 44.2603C51.1236 43.7007 51.6717 43.1449 52.2438 42.6165C53.0171 41.9021 53.9288 41.5126 54.9996 41.5584ZM53.0229 45.1024C54.375 46.4792 55.695 47.8234 57.0331 49.1859C57.7836 48.5409 58.5461 47.8203 58.1888 46.649C57.7673 45.2671 56.8242 44.3074 55.4315 43.9224C54.2519 43.5963 53.5827 44.4417 53.0229 45.1024Z" fill="#43C5FF"/>
<path d="M47.3021 74.2809C46.9081 73.9851 46.4667 73.8119 46.3217 73.5003C46.1738 73.1824 46.2773 72.7209 46.3515 72.3378C46.385 72.1638 46.6069 72.0213 46.7531 71.8747C49.6335 68.9865 52.5117 66.0961 55.4042 63.2203C55.6494 62.9763 55.995 62.6759 56.2904 62.6799C56.674 62.6851 57.2038 62.8707 57.3929 63.1607C57.5829 63.4519 57.4804 63.9751 57.4096 64.3794C57.3754 64.5749 57.1279 64.7392 56.9635 64.9042C54.1202 67.7561 51.279 70.6099 48.424 73.4499C48.1275 73.7449 47.7469 73.9557 47.3021 74.2809Z" fill="#43C5FF"/>
<path d="M56.8227 58.5486C56.4665 58.2999 56.0365 58.1494 55.8894 57.8565C55.7281 57.5353 55.7956 57.0796 55.8306 56.6886C55.844 56.5386 56.0321 56.394 56.1596 56.2661C58.4175 53.9992 60.6673 51.7238 62.9531 49.4855C63.2361 49.2086 63.7258 48.9713 64.1013 48.9959C65.0181 49.0563 65.3956 50.163 64.7648 50.8784C64.1808 51.5407 63.5306 52.1442 62.9061 52.7703C61.2158 54.4644 59.5298 56.1632 57.8261 57.8436C57.5608 58.1053 57.2104 58.2805 56.8227 58.5486Z" fill="#43C5FF"/>
<path d="M59.8406 61.6057C59.5179 61.3613 59.0927 61.1838 58.9231 60.8684C58.769 60.5815 58.8504 60.1374 58.9123 59.7771C58.9425 59.6021 59.1567 59.4515 59.3027 59.3051C61.5246 57.0751 63.7488 54.8474 65.9725 52.6192C66.0277 52.564 66.0815 52.5071 66.1392 52.4549C66.7098 51.9392 67.3238 51.9051 67.805 52.3615C68.2917 52.823 68.3321 53.4926 67.8025 54.0303C65.4654 56.4024 63.1083 58.7549 60.7433 61.099C60.5356 61.3051 60.2171 61.3994 59.8406 61.6057Z" fill="#43C5FF"/>
<path d="M53.7877 55.4763C53.3756 55.2238 53.0529 55.0994 52.8275 54.8765C50.9256 52.9961 49.0352 51.1038 47.1556 49.2009C46.5763 48.6142 46.5506 47.9726 47.0254 47.4794C47.4925 46.994 48.1856 46.9994 48.749 47.5574C50.6679 49.4576 52.5913 51.3544 54.4529 53.3099C54.7244 53.5949 54.8188 54.2292 54.7183 54.6328C54.6373 54.9578 54.1381 55.1782 53.7877 55.4763Z" fill="#43C5FF"/>
</g>
<defs>
<clipPath id="clip0_53_835">
<rect width="80" height="80" fill="white"/>
</clipPath>
</defs>
</svg>
