<svg width="79" height="81" viewBox="0 0 79 81" fill="none" xmlns="http://www.w3.org/2000/svg">
<g clip-path="url(#clip0_71_930)">
<path d="M32.3535 81C30.7598 80.6085 29.2282 80.0922 27.9273 79.0279C24.9498 76.592 24.1164 73.3733 24.6031 69.7308C24.8068 68.2077 26.3509 67.3063 28.1773 67.4285C29.7256 67.5321 30.9918 68.7585 31.0917 70.2732C31.1225 70.7393 31.09 71.2094 31.1065 71.677C31.1527 72.9905 32.1332 74.0583 33.3579 74.1425C34.7088 74.2353 35.7721 73.4098 36.0204 72.0526C36.0761 71.7489 36.0778 71.4325 36.0778 71.1216C36.0805 59.3162 36.0757 47.5109 36.0934 35.7055C36.0942 35.1274 35.9231 34.7217 35.5015 34.3561C32.9432 32.1382 30.0329 31.4895 26.8763 32.6961C23.7274 33.8996 21.9412 36.2875 21.5416 39.6657C21.5049 39.9755 21.4884 40.2882 21.4428 40.5965C21.3444 41.2617 20.8462 41.6945 20.2287 41.6664C19.6102 41.6385 19.1676 41.1725 19.0911 40.5019C19.0148 39.8335 18.9773 39.1527 18.8157 38.5037C17.8117 34.4689 14.3495 31.9648 10.0849 32.1543C6.39902 32.3181 3.15112 35.3211 2.5155 39.1577C2.46047 39.4894 2.40877 39.8246 2.39459 40.1598C2.35394 41.1254 1.93367 41.6635 1.18987 41.6672C0.44168 41.671 -0.00318691 41.119 -5.9918e-05 40.1608C0.0107803 36.7157 0.393942 33.3069 1.39979 30.0135C5.8764 15.3571 15.5146 5.90586 30.3739 2.16951C40.2683 -0.318532 49.7967 1.23079 58.7458 6.17374C59.2448 6.44933 59.7456 6.78267 59.6265 7.40848C59.5544 7.78727 59.2611 8.32261 58.9576 8.41079C58.5285 8.53545 57.9284 8.43935 57.5229 8.2165C54.4578 6.53167 51.2385 5.26107 47.8327 4.47098C46.8265 4.2375 45.8065 4.06322 44.7306 3.92814C54.7893 11.3391 58.5004 21.8683 59.5062 33.8697C61.6245 31.3992 64.1557 29.9723 67.3006 29.7642C70.423 29.5576 73.112 30.5939 75.5786 32.8153C75.3441 31.8826 75.1717 31.1307 74.9636 30.3886C74.7539 29.6404 74.536 28.8924 74.2748 28.1611C71.9283 21.5932 68.0384 16.1147 62.6299 11.7129C62.509 11.6145 62.3837 11.5207 62.2699 11.4146C61.7164 10.8984 61.6347 10.1913 62.066 9.68327C62.5278 9.13917 63.1575 9.08184 63.7979 9.57799C64.4137 10.0552 65.0127 10.5574 65.591 11.0796C72.6417 17.4443 76.9075 25.3251 78.338 34.7111C78.6109 36.5018 78.6424 38.3315 78.7406 40.1458C78.7929 41.1108 78.3272 41.6608 77.5753 41.6666C76.8281 41.6724 76.391 41.1356 76.3607 40.1748C76.23 36.0205 72.8104 32.4132 68.7588 32.1561C64.2664 31.8712 60.4145 34.8837 59.7968 39.171C59.7341 39.6069 59.6962 40.0468 59.6588 40.486C59.5998 41.1834 59.2217 41.588 58.5356 41.6595C57.8942 41.7264 57.3511 41.2563 57.3073 40.534C57.191 38.6219 56.6819 36.871 55.4881 35.33C52.4949 31.4668 46.6397 31.0344 43.1694 34.4758C42.8831 34.7597 42.692 35.2798 42.6911 35.6907C42.6661 47.6781 42.6768 59.6656 42.6676 71.6528C42.6642 75.913 40.2121 79.3479 36.3312 80.5837C35.843 80.7392 35.3442 80.862 34.8503 81C34.0179 81 33.1857 81 32.3535 81ZM38.104 33.4882C38.104 23.7704 38.104 14.1007 38.104 4.3409C37.8059 4.50246 37.5798 4.61378 37.3644 4.74345C32.0177 7.96259 28.0891 12.4454 25.4645 18.093C25.0588 18.9659 24.4276 19.2617 23.7461 18.9427C23.0651 18.624 22.8968 17.9552 23.2971 17.0874C25.4314 12.4592 28.4258 8.49355 32.4048 5.28921C32.9418 4.85685 33.4905 4.43909 34.0335 4.01444C25.929 5.1337 19.0156 8.60445 13.2357 14.3354C8.35548 19.1743 3.22637 28.6741 3.35437 32.6446C5.68669 30.5753 8.37508 29.5512 11.4964 29.7688C14.6253 29.9868 17.1361 31.4257 19.2251 33.8372C19.2604 33.5912 19.2795 33.4899 19.2889 33.3878C19.6095 29.9214 20.0998 26.4848 21.0813 23.1339C21.3602 22.1814 21.8754 21.7964 22.6104 21.9901C23.3544 22.1862 23.6177 22.8021 23.4003 23.7424C23.0152 25.4081 22.5998 27.0692 22.2921 28.7496C22.0248 30.2101 21.8889 31.6946 21.6725 33.3377C26.5162 28.2958 33.9714 28.7994 38.104 33.4882ZM40.6388 33.5946C42.8883 31.0461 45.5894 29.8017 48.7777 29.7359C51.99 29.6694 54.6953 30.9537 56.984 33.3302C57.0799 26.5553 53.6631 16.9819 49.2401 11.5365C46.8546 8.59966 44.0282 6.18624 40.6388 4.3334C40.6388 14.1246 40.6388 23.7798 40.6388 33.5946ZM38.4382 68.0388C38.4382 69.3011 38.442 70.4687 38.4374 71.6363C38.4265 74.3733 36.3544 76.5055 33.6493 76.5676C31.007 76.6283 28.8335 74.4959 28.7429 71.7558C28.7283 71.3151 28.7462 70.8679 28.6747 70.4362C28.5896 69.9236 28.2219 69.7049 27.7089 69.737C27.1754 69.7704 26.9119 70.0785 26.8917 70.5917C26.8733 71.0591 26.8823 71.5279 26.8871 71.9959C26.9215 75.3831 29.3901 78.0894 32.8797 78.5678C35.9967 78.995 39.2537 76.9266 39.9656 73.7692C40.3803 71.9303 40.2975 69.9794 40.4414 68.039C39.654 68.0388 39.0918 68.0388 38.4382 68.0388ZM40.2669 65.5375C40.2669 57.4437 40.2669 49.434 40.2669 41.5382C39.6367 41.5382 39.0534 41.5382 38.4843 41.5382C38.4843 49.4689 38.4843 57.4877 38.4843 65.5375C39.0922 65.5375 39.654 65.5375 40.2669 65.5375Z" fill="#43C5FF"/>
<path d="M24.4647 55.3072C24.6978 50.6221 20.999 46.1032 16.3706 45.4119C10.8087 44.5812 6.07986 47.8949 4.95706 53.4099C3.91494 58.5296 7.77886 64.0213 12.9392 64.7797C16.5895 65.3161 19.641 64.2181 22.1186 61.4953C22.763 60.7871 23.4503 60.6656 24.0023 61.1569C24.5604 61.6537 24.5541 62.3629 23.9079 63.0742C20.5518 66.7684 16.3771 68.1341 11.5765 66.8962C6.86682 65.6819 3.81362 62.5305 2.74231 57.7717C1.15484 50.7209 5.7411 44.1455 12.8873 42.9697C19.3944 41.899 25.9488 46.7911 26.7209 53.3513C26.859 54.5233 26.7762 55.7281 26.7176 56.9138C26.6834 57.6095 26.0639 58.0775 25.4501 58.0133C24.8001 57.9453 24.3778 57.4398 24.3888 56.7087C24.3961 56.2411 24.4382 55.7741 24.4647 55.3072Z" fill="#43C5FF"/>
<path d="M52.4399 55.0695C52.4388 53.1716 52.4282 51.2738 52.4413 49.3761C52.4626 46.272 54.4176 44.34 57.525 44.3379C60.5667 44.3358 63.6084 44.332 66.6502 44.3391C69.4926 44.3458 71.5127 46.344 71.5231 49.1837C71.5375 53.1354 71.5385 57.0871 71.5224 61.0385C71.5112 63.8209 69.4786 65.8366 66.6862 65.8485C63.5665 65.8616 60.4468 65.8597 57.3271 65.8491C54.5176 65.8395 52.507 63.8883 52.449 61.0748C52.4075 59.0737 52.4407 57.0712 52.4399 55.0695ZM54.8197 55.0835C54.8197 57.008 54.816 58.9324 54.821 60.857C54.8251 62.4628 55.7226 63.4115 57.299 63.4201C60.4197 63.4369 63.5405 63.4357 66.6612 63.4203C68.203 63.4128 69.1576 62.4801 69.1647 60.9481C69.1833 57.0472 69.1822 53.1462 69.1653 49.2454C69.1587 47.7136 68.2093 46.7628 66.6746 46.7528C63.554 46.7323 60.4331 46.7327 57.3123 46.7523C55.7307 46.7623 54.8251 47.7163 54.8207 49.3102C54.8157 51.2346 54.8197 53.1589 54.8197 55.0835Z" fill="#43C5FF"/>
<path d="M15.8188 48.969C16.6239 49.379 17.3627 49.6946 18.0362 50.1149C18.7434 50.5558 18.888 51.2642 18.4963 51.8502C18.105 52.4353 17.4331 52.53 16.7212 52.1053C16.464 51.9519 16.2007 51.8087 15.829 51.5975C15.829 52.3499 15.7773 52.9713 15.8561 53.5756C15.8849 53.7958 16.1905 54.0412 16.4273 54.1627C17.5407 54.7343 18.5562 55.3993 18.911 56.6914C19.3731 58.3743 18.4081 60.1446 16.5874 60.8334C16.0077 61.0527 15.775 61.2789 15.8073 61.9147C15.8503 62.7571 15.3541 63.2316 14.6138 63.2141C13.9122 63.1976 13.4925 62.7257 13.4733 61.9237C13.4664 61.6398 13.4723 61.3554 13.4723 61.2533C12.5275 60.6641 11.6524 60.2084 10.8844 59.6143C10.1295 59.03 10.0797 58.2816 10.6005 57.7287C11.1118 57.1861 11.7335 57.2274 12.4514 57.83C12.722 58.0573 13.0214 58.2501 13.4677 58.5751C13.4677 57.5298 13.5094 56.661 13.4368 55.8017C13.4198 55.5999 13.0393 55.3893 12.7879 55.2532C10.8585 54.209 10.2317 52.3805 11.3457 50.7261C11.7055 50.1918 12.2726 49.7265 12.8477 49.4293C13.352 49.1689 13.5357 48.9039 13.4748 48.3807C13.4002 47.739 13.6449 47.2424 14.2617 47.0167C15.0099 46.7427 15.7494 47.2543 15.814 48.0661C15.8407 48.399 15.8188 48.7355 15.8188 48.969ZM15.8532 58.4056C15.9372 58.4456 16.021 58.4857 16.105 58.5257C16.2709 58.1667 16.5576 57.8096 16.5636 57.4481C16.5682 57.1707 16.2184 56.8876 16.0262 56.607C15.9685 56.6447 15.9109 56.6822 15.8532 56.7199C15.8532 57.2816 15.8532 57.8436 15.8532 58.4056Z" fill="#43C5FF"/>
<path d="M61.988 55.14C62.9989 55.1402 64.0101 55.1277 65.0208 55.1439C65.8945 55.1581 66.4632 55.6338 66.4842 56.3268C66.5061 57.046 65.9066 57.5684 65.006 57.5728C62.9582 57.5828 60.9103 57.5832 58.8625 57.5726C57.9759 57.568 57.4391 57.11 57.4193 56.3897C57.3984 55.634 57.9384 55.1579 58.8773 55.1437C59.9142 55.1279 60.9511 55.14 61.988 55.14Z" fill="#43C5FF"/>
<path d="M60.8867 52.753C60.1604 52.753 59.4339 52.7647 58.7078 52.7497C57.938 52.7339 57.432 52.2667 57.417 51.5902C57.4016 50.8983 57.8769 50.4038 58.6555 50.3913C60.1337 50.3678 61.6126 50.3684 63.0908 50.3901C63.8682 50.4015 64.3479 50.8904 64.3387 51.5773C64.3297 52.2617 63.8348 52.7184 63.0654 52.7524C63.0395 52.7537 63.0135 52.7528 62.9876 52.7528C62.2874 52.753 61.5872 52.753 60.8867 52.753Z" fill="#43C5FF"/>
</g>
<defs>
<clipPath id="clip0_71_930">
<rect width="79" height="81" fill="white"/>
</clipPath>
</defs>
</svg>
