<svg width="52" height="21" viewBox="0 0 52 21" fill="none" xmlns="http://www.w3.org/2000/svg">
<g clip-path="url(#clip0_51_658)">
<path d="M13.36 30.4C11.44 30.4 9.78667 30.1333 8.4 29.6C7.04 29.04 5.90667 28.28 5 27.32C4.12 26.3333 3.45333 25.2 3 23.92C2.57333 22.6133 2.32 21.2267 2.24 19.76C2.21333 19.04 2.18667 18.24 2.16 17.36C2.16 16.4533 2.16 15.5467 2.16 14.64C2.18667 13.7333 2.21333 12.9067 2.24 12.16C2.29333 10.6933 2.54667 9.32 3 8.04C3.48 6.76 4.17333 5.64 5.08 4.68C5.98667 3.72 7.12 2.97333 8.48 2.44C9.86667 1.88 11.4933 1.6 13.36 1.6C15.2267 1.6 16.84 1.88 18.2 2.44C19.56 2.97333 20.6933 3.72 21.6 4.68C22.5067 5.64 23.1867 6.76 23.64 8.04C24.12 9.32 24.4 10.6933 24.48 12.16C24.5067 12.9067 24.52 13.7333 24.52 14.64C24.5467 15.5467 24.5467 16.4533 24.52 17.36C24.52 18.24 24.5067 19.04 24.48 19.76C24.4 21.2267 24.1333 22.6133 23.68 23.92C23.2267 25.2 22.5467 26.3333 21.64 27.32C20.76 28.28 19.6267 29.04 18.24 29.6C16.88 30.1333 15.2533 30.4 13.36 30.4ZM13.36 25.2C14.9067 25.2 16.04 24.6933 16.76 23.68C17.48 22.6667 17.8667 21.2933 17.92 19.56C17.9467 18.7867 17.96 17.9867 17.96 17.16C17.9867 16.3333 17.9867 15.5067 17.96 14.68C17.96 13.8533 17.9467 13.08 17.92 12.36C17.8667 10.7067 17.48 9.36 16.76 8.32C16.04 7.28 14.9067 6.74667 13.36 6.72C11.7867 6.74667 10.64 7.28 9.92 8.32C9.22667 9.36 8.85333 10.7067 8.8 12.36C8.77333 13.08 8.74667 13.8533 8.72 14.68C8.72 15.5067 8.72 16.3333 8.72 17.16C8.74667 17.9867 8.77333 18.7867 8.8 19.56C8.85333 21.2933 9.24 22.6667 9.96 23.68C10.68 24.6933 11.8133 25.2 13.36 25.2ZM37.7988 30C37.5321 30 37.2921 29.9067 37.0788 29.72C36.8921 29.5333 36.7988 29.2933 36.7988 29V9.12L31.0388 13.56C30.7988 13.7467 30.5454 13.8133 30.2788 13.76C30.0388 13.7067 29.8254 13.56 29.6388 13.32L27.6388 10.72C27.4788 10.48 27.4121 10.2267 27.4388 9.96C27.4921 9.69333 27.6388 9.48 27.8788 9.32L36.9987 2.28C37.1588 2.17333 37.3054 2.10667 37.4388 2.08C37.5988 2.02667 37.7721 2 37.9588 2H42.1988C42.4654 2 42.6921 2.09333 42.8788 2.28C43.0654 2.46667 43.1588 2.70667 43.1588 3V29C43.1588 29.2933 43.0654 29.5333 42.8788 29.72C42.6921 29.9067 42.4654 30 42.1988 30H37.7988Z" fill="#D9D9D9"/>
</g>
<defs>
<clipPath id="clip0_51_658">
<rect width="52" height="21" fill="white"/>
</clipPath>
</defs>
</svg>
