<svg width="53" height="20" viewBox="0 0 53 20" fill="none" xmlns="http://www.w3.org/2000/svg">
<g clip-path="url(#clip0_71_970)">
<path d="M13.36 30.4C11.44 30.4 9.78667 30.1333 8.4 29.6C7.04 29.04 5.90667 28.28 5 27.32C4.12 26.3333 3.45333 25.2 3 23.92C2.57333 22.6133 2.32 21.2267 2.24 19.76C2.21333 19.04 2.18667 18.24 2.16 17.36C2.16 16.4533 2.16 15.5467 2.16 14.64C2.18667 13.7333 2.21333 12.9067 2.24 12.16C2.29333 10.6933 2.54667 9.32 3 8.04C3.48 6.76 4.17333 5.64 5.08 4.68C5.98667 3.72 7.12 2.97333 8.48 2.44C9.86667 1.88 11.4933 1.6 13.36 1.6C15.2267 1.6 16.84 1.88 18.2 2.44C19.56 2.97333 20.6933 3.72 21.6 4.68C22.5067 5.64 23.1867 6.76 23.64 8.04C24.12 9.32 24.4 10.6933 24.48 12.16C24.5067 12.9067 24.52 13.7333 24.52 14.64C24.5467 15.5467 24.5467 16.4533 24.52 17.36C24.52 18.24 24.5067 19.04 24.48 19.76C24.4 21.2267 24.1333 22.6133 23.68 23.92C23.2267 25.2 22.5467 26.3333 21.64 27.32C20.76 28.28 19.6267 29.04 18.24 29.6C16.88 30.1333 15.2533 30.4 13.36 30.4ZM13.36 25.2C14.9067 25.2 16.04 24.6933 16.76 23.68C17.48 22.6667 17.8667 21.2933 17.92 19.56C17.9467 18.7867 17.96 17.9867 17.96 17.16C17.9867 16.3333 17.9867 15.5067 17.96 14.68C17.96 13.8533 17.9467 13.08 17.92 12.36C17.8667 10.7067 17.48 9.36 16.76 8.32C16.04 7.28 14.9067 6.74667 13.36 6.72C11.7867 6.74667 10.64 7.28 9.92 8.32C9.22667 9.36 8.85333 10.7067 8.8 12.36C8.77333 13.08 8.74667 13.8533 8.72 14.68C8.72 15.5067 8.72 16.3333 8.72 17.16C8.74667 17.9867 8.77333 18.7867 8.8 19.56C8.85333 21.2933 9.24 22.6667 9.96 23.68C10.68 24.6933 11.8133 25.2 13.36 25.2ZM29.4388 30C29.1454 30 28.9054 29.9067 28.7188 29.72C28.5321 29.5333 28.4388 29.2933 28.4388 29V26.6C28.4388 26.3867 28.4921 26.1067 28.5988 25.76C28.7321 25.3867 29.0121 25.0267 29.4388 24.68L34.7188 19.44C36.6654 17.9467 38.2388 16.68 39.4388 15.64C40.6654 14.6 41.5721 13.6533 42.1588 12.8C42.7454 11.9467 43.0388 11.12 43.0388 10.32C43.0388 9.28 42.7454 8.42667 42.1588 7.76C41.5988 7.06667 40.6788 6.72 39.3988 6.72C38.5454 6.72 37.8254 6.90667 37.2388 7.28C36.6788 7.62667 36.2388 8.09333 35.9188 8.68C35.5988 9.26666 35.3854 9.90667 35.2788 10.6C35.1988 10.9467 35.0254 11.1867 34.7588 11.32C34.5188 11.4533 34.2654 11.52 33.9988 11.52H29.7588C29.4921 11.52 29.2788 11.44 29.1188 11.28C28.9588 11.0933 28.8788 10.8933 28.8788 10.68C28.9054 9.45333 29.1588 8.29333 29.6388 7.2C30.1454 6.10667 30.8521 5.13333 31.7588 4.28C32.6654 3.42667 33.7588 2.76 35.0388 2.28C36.3188 1.77333 37.7721 1.52 39.3988 1.52C41.6388 1.52 43.5188 1.89333 45.0388 2.64C46.5588 3.36 47.7054 4.36 48.4788 5.64C49.2521 6.92 49.6388 8.4 49.6388 10.08C49.6388 11.36 49.3721 12.5467 48.8388 13.64C48.3321 14.7333 47.5854 15.7867 46.5988 16.8C45.6121 17.7867 44.4388 18.8133 43.0788 19.88L38.3588 24.6H49.2388C49.5321 24.6 49.7721 24.6933 49.9588 24.88C50.1454 25.0667 50.2387 25.3067 50.2387 25.6V29C50.2387 29.2933 50.1454 29.5333 49.9588 29.72C49.7721 29.9067 49.5321 30 49.2388 30H29.4388Z" fill="#D9D9D9"/>
</g>
<defs>
<clipPath id="clip0_71_970">
<rect width="53" height="20" fill="white"/>
</clipPath>
</defs>
</svg>
