<svg width="53" height="20" viewBox="0 0 53 20" fill="none" xmlns="http://www.w3.org/2000/svg">
<g clip-path="url(#clip0_71_980)">
<path d="M13.36 30.4C11.44 30.4 9.78667 30.1333 8.4 29.6C7.04 29.04 5.90667 28.28 5 27.32C4.12 26.3333 3.45333 25.2 3 23.92C2.57333 22.6133 2.32 21.2267 2.24 19.76C2.21333 19.04 2.18667 18.24 2.16 17.36C2.16 16.4533 2.16 15.5467 2.16 14.64C2.18667 13.7333 2.21333 12.9067 2.24 12.16C2.29333 10.6933 2.54667 9.32 3 8.04C3.48 6.76 4.17333 5.64 5.08 4.68C5.98667 3.72 7.12 2.97333 8.48 2.44C9.86667 1.88 11.4933 1.6 13.36 1.6C15.2267 1.6 16.84 1.88 18.2 2.44C19.56 2.97333 20.6933 3.72 21.6 4.68C22.5067 5.64 23.1867 6.76 23.64 8.04C24.12 9.32 24.4 10.6933 24.48 12.16C24.5067 12.9067 24.52 13.7333 24.52 14.64C24.5467 15.5467 24.5467 16.4533 24.52 17.36C24.52 18.24 24.5067 19.04 24.48 19.76C24.4 21.2267 24.1333 22.6133 23.68 23.92C23.2267 25.2 22.5467 26.3333 21.64 27.32C20.76 28.28 19.6267 29.04 18.24 29.6C16.88 30.1333 15.2533 30.4 13.36 30.4ZM13.36 25.2C14.9067 25.2 16.04 24.6933 16.76 23.68C17.48 22.6667 17.8667 21.2933 17.92 19.56C17.9467 18.7867 17.96 17.9867 17.96 17.16C17.9867 16.3333 17.9867 15.5067 17.96 14.68C17.96 13.8533 17.9467 13.08 17.92 12.36C17.8667 10.7067 17.48 9.36 16.76 8.32C16.04 7.28 14.9067 6.74667 13.36 6.72C11.7867 6.74667 10.64 7.28 9.92 8.32C9.22667 9.36 8.85333 10.7067 8.8 12.36C8.77333 13.08 8.74667 13.8533 8.72 14.68C8.72 15.5067 8.72 16.3333 8.72 17.16C8.74667 17.9867 8.77333 18.7867 8.8 19.56C8.85333 21.2933 9.24 22.6667 9.96 23.68C10.68 24.6933 11.8133 25.2 13.36 25.2ZM39.4388 30.4C37.4654 30.4 35.7721 30.16 34.3588 29.68C32.9454 29.2 31.7854 28.5867 30.8788 27.84C29.9721 27.0933 29.2921 26.28 28.8388 25.4C28.3854 24.4933 28.1454 23.6267 28.1188 22.8C28.1188 22.56 28.1988 22.36 28.3588 22.2C28.5188 22.04 28.7188 21.96 28.9588 21.96H33.3588C33.6521 21.96 33.8921 22.0267 34.0788 22.16C34.2654 22.2667 34.4388 22.4667 34.5988 22.76C34.8121 23.3733 35.1588 23.8667 35.6388 24.24C36.1188 24.6133 36.6788 24.88 37.3188 25.04C37.9854 25.1733 38.6921 25.24 39.4388 25.24C40.9321 25.24 42.1054 24.8933 42.9588 24.2C43.8121 23.5067 44.2388 22.5333 44.2388 21.28C44.2388 20 43.8388 19.08 43.0388 18.52C42.2388 17.96 41.1054 17.68 39.6388 17.68H35.3588C35.0921 17.68 34.8654 17.5867 34.6788 17.4C34.4921 17.2133 34.3988 16.9867 34.3988 16.72V14.76C34.3988 14.44 34.4521 14.1733 34.5588 13.96C34.6921 13.7467 34.8254 13.5867 34.9588 13.48L41.8388 7.16H30.5588C30.2654 7.16 30.0254 7.06667 29.8388 6.88C29.6521 6.69333 29.5588 6.46667 29.5588 6.2V3C29.5588 2.70667 29.6521 2.46667 29.8388 2.28C30.0254 2.09333 30.2654 2 30.5588 2H48.3188C48.6121 2 48.8521 2.09333 49.0388 2.28C49.2254 2.46667 49.3187 2.70667 49.3187 3V5.88C49.3187 6.17333 49.2654 6.42667 49.1588 6.64C49.0521 6.82667 48.9188 6.97333 48.7587 7.08L42.2388 13.52L42.6388 13.56C44.2121 13.72 45.6121 14.1067 46.8388 14.72C48.0654 15.3333 49.0254 16.2133 49.7188 17.36C50.4388 18.48 50.7988 19.9067 50.7988 21.64C50.7988 23.4533 50.3054 25.0133 49.3187 26.32C48.3321 27.6267 46.9854 28.64 45.2788 29.36C43.5721 30.0533 41.6254 30.4 39.4388 30.4Z" fill="#D9D9D9"/>
</g>
<defs>
<clipPath id="clip0_71_980">
<rect width="53" height="20" fill="white"/>
</clipPath>
</defs>
</svg>
