<svg width="51" height="20" viewBox="0 0 51 20" fill="none" xmlns="http://www.w3.org/2000/svg">
<g clip-path="url(#clip0_71_965)">
<path d="M13.36 30.4C11.44 30.4 9.78667 30.1333 8.4 29.6C7.04 29.04 5.90667 28.28 5 27.32C4.12 26.3333 3.45333 25.2 3 23.92C2.57333 22.6133 2.32 21.2267 2.24 19.76C2.21333 19.04 2.18667 18.24 2.16 17.36C2.16 16.4533 2.16 15.5467 2.16 14.64C2.18667 13.7333 2.21333 12.9067 2.24 12.16C2.29333 10.6933 2.54667 9.32 3 8.04C3.48 6.76 4.17333 5.64 5.08 4.68C5.98667 3.72 7.12 2.97333 8.48 2.44C9.86667 1.88 11.4933 1.6 13.36 1.6C15.2267 1.6 16.84 1.88 18.2 2.44C19.56 2.97333 20.6933 3.72 21.6 4.68C22.5067 5.64 23.1867 6.76 23.64 8.04C24.12 9.32 24.4 10.6933 24.48 12.16C24.5067 12.9067 24.52 13.7333 24.52 14.64C24.5467 15.5467 24.5467 16.4533 24.52 17.36C24.52 18.24 24.5067 19.04 24.48 19.76C24.4 21.2267 24.1333 22.6133 23.68 23.92C23.2267 25.2 22.5467 26.3333 21.64 27.32C20.76 28.28 19.6267 29.04 18.24 29.6C16.88 30.1333 15.2533 30.4 13.36 30.4ZM13.36 25.2C14.9067 25.2 16.04 24.6933 16.76 23.68C17.48 22.6667 17.8667 21.2933 17.92 19.56C17.9467 18.7867 17.96 17.9867 17.96 17.16C17.9867 16.3333 17.9867 15.5067 17.96 14.68C17.96 13.8533 17.9467 13.08 17.92 12.36C17.8667 10.7067 17.48 9.36 16.76 8.32C16.04 7.28 14.9067 6.74667 13.36 6.72C11.7867 6.74667 10.64 7.28 9.92 8.32C9.22667 9.36 8.85333 10.7067 8.8 12.36C8.77333 13.08 8.74667 13.8533 8.72 14.68C8.72 15.5067 8.72 16.3333 8.72 17.16C8.74667 17.9867 8.77333 18.7867 8.8 19.56C8.85333 21.2933 9.24 22.6667 9.96 23.68C10.68 24.6933 11.8133 25.2 13.36 25.2ZM42.3988 30C42.1321 30 41.9054 29.9067 41.7188 29.72C41.5321 29.5333 41.4388 29.2933 41.4388 29V24.2H28.8388C28.5721 24.2 28.3454 24.1067 28.1588 23.92C27.9721 23.7333 27.8788 23.4933 27.8788 23.2V19.96C27.8788 19.7733 27.9188 19.5733 27.9988 19.36C28.0788 19.1467 28.1854 18.9467 28.3188 18.76L40.0388 2.68C40.3854 2.22667 40.8788 2 41.5188 2H46.5988C46.8654 2 47.0921 2.09333 47.2787 2.28C47.4654 2.46667 47.5588 2.70667 47.5588 3V18.88H51.1188C51.4388 18.88 51.6788 18.9733 51.8388 19.16C52.0254 19.3467 52.1188 19.5733 52.1188 19.84V23.2C52.1188 23.4933 52.0254 23.7333 51.8388 23.92C51.6521 24.1067 51.4254 24.2 51.1588 24.2H47.5588V29C47.5588 29.2933 47.4654 29.5333 47.2787 29.72C47.0921 29.9067 46.8654 30 46.5988 30H42.3988ZM34.0788 19.08H41.5588V8.56L34.0788 19.08Z" fill="#D9D9D9"/>
</g>
<defs>
<clipPath id="clip0_71_965">
<rect width="51" height="20" fill="white"/>
</clipPath>
</defs>
</svg>
