<svg width="52" height="20" viewBox="0 0 52 20" fill="none" xmlns="http://www.w3.org/2000/svg">
<g clip-path="url(#clip0_71_975)">
<path d="M13.36 30.4C11.44 30.4 9.78667 30.1333 8.4 29.6C7.04 29.04 5.90667 28.28 5 27.32C4.12 26.3333 3.45333 25.2 3 23.92C2.57333 22.6133 2.32 21.2267 2.24 19.76C2.21333 19.04 2.18667 18.24 2.16 17.36C2.16 16.4533 2.16 15.5467 2.16 14.64C2.18667 13.7333 2.21333 12.9067 2.24 12.16C2.29333 10.6933 2.54667 9.32 3 8.04C3.48 6.76 4.17333 5.64 5.08 4.68C5.98667 3.72 7.12 2.97333 8.48 2.44C9.86667 1.88 11.4933 1.6 13.36 1.6C15.2267 1.6 16.84 1.88 18.2 2.44C19.56 2.97333 20.6933 3.72 21.6 4.68C22.5067 5.64 23.1867 6.76 23.64 8.04C24.12 9.32 24.4 10.6933 24.48 12.16C24.5067 12.9067 24.52 13.7333 24.52 14.64C24.5467 15.5467 24.5467 16.4533 24.52 17.36C24.52 18.24 24.5067 19.04 24.48 19.76C24.4 21.2267 24.1333 22.6133 23.68 23.92C23.2267 25.2 22.5467 26.3333 21.64 27.32C20.76 28.28 19.6267 29.04 18.24 29.6C16.88 30.1333 15.2533 30.4 13.36 30.4ZM13.36 25.2C14.9067 25.2 16.04 24.6933 16.76 23.68C17.48 22.6667 17.8667 21.2933 17.92 19.56C17.9467 18.7867 17.96 17.9867 17.96 17.16C17.9867 16.3333 17.9867 15.5067 17.96 14.68C17.96 13.8533 17.9467 13.08 17.92 12.36C17.8667 10.7067 17.48 9.36 16.76 8.32C16.04 7.28 14.9067 6.74667 13.36 6.72C11.7867 6.74667 10.64 7.28 9.92 8.32C9.22667 9.36 8.85333 10.7067 8.8 12.36C8.77333 13.08 8.74667 13.8533 8.72 14.68C8.72 15.5067 8.72 16.3333 8.72 17.16C8.74667 17.9867 8.77333 18.7867 8.8 19.56C8.85333 21.2933 9.24 22.6667 9.96 23.68C10.68 24.6933 11.8133 25.2 13.36 25.2ZM39.2388 30.44C36.8388 30.44 34.8254 30.0533 33.1988 29.28C31.5721 28.5067 30.3321 27.4933 29.4788 26.24C28.6521 24.9867 28.2121 23.6533 28.1588 22.24C28.1588 22 28.2388 21.8 28.3988 21.64C28.5588 21.48 28.7588 21.4 28.9988 21.4H33.5188C33.8388 21.4 34.0921 21.48 34.2788 21.64C34.4921 21.7733 34.6521 21.96 34.7588 22.2C35.0254 22.92 35.3721 23.5067 35.7988 23.96C36.2521 24.4133 36.7721 24.7467 37.3588 24.96C37.9454 25.1733 38.5721 25.28 39.2388 25.28C40.0921 25.28 40.8788 25.1067 41.5988 24.76C42.3188 24.3867 42.8921 23.8533 43.3188 23.16C43.7454 22.4667 43.9588 21.6133 43.9588 20.6C43.9588 19.72 43.7588 18.9467 43.3588 18.28C42.9588 17.6133 42.3988 17.0933 41.6788 16.72C40.9588 16.3467 40.1454 16.16 39.2388 16.16C38.5454 16.16 37.9721 16.24 37.5188 16.4C37.0921 16.56 36.7321 16.76 36.4388 17C36.1454 17.2133 35.8788 17.4133 35.6388 17.6C35.3988 17.76 35.1321 17.84 34.8388 17.84H30.3988C30.1588 17.84 29.9454 17.76 29.7588 17.6C29.5988 17.4133 29.5188 17.2 29.5188 16.96L30.9188 3.16C30.9721 2.78666 31.1054 2.50666 31.3188 2.32C31.5588 2.10666 31.8388 2 32.1588 2H47.6788C47.9721 2 48.2121 2.09333 48.3988 2.28C48.5854 2.46667 48.6788 2.70667 48.6788 3V6.2C48.6788 6.46667 48.5854 6.69333 48.3988 6.88C48.2121 7.06667 47.9721 7.16 47.6788 7.16H36.1188L35.5188 13.04C36.0521 12.6933 36.7054 12.3867 37.4788 12.12C38.2788 11.8267 39.3854 11.68 40.7988 11.68C42.0788 11.68 43.2921 11.8933 44.4388 12.32C45.6121 12.72 46.6521 13.32 47.5588 14.12C48.4654 14.92 49.1721 15.88 49.6788 17C50.2121 18.0933 50.4788 19.3467 50.4788 20.76C50.4788 22.68 50.0254 24.3733 49.1188 25.84C48.2121 27.28 46.9188 28.4133 45.2388 29.24C43.5588 30.04 41.5588 30.44 39.2388 30.44Z" fill="#D9D9D9"/>
</g>
<defs>
<clipPath id="clip0_71_975">
<rect width="52" height="20" fill="white"/>
</clipPath>
</defs>
</svg>
