<svg width="52" height="20" viewBox="0 0 52 20" fill="none" xmlns="http://www.w3.org/2000/svg">
<g clip-path="url(#clip0_73_985)">
<path d="M13.36 30.4C11.44 30.4 9.78667 30.1333 8.4 29.6C7.04 29.04 5.90667 28.28 5 27.32C4.12 26.3333 3.45333 25.2 3 23.92C2.57333 22.6133 2.32 21.2267 2.24 19.76C2.21333 19.04 2.18667 18.24 2.16 17.36C2.16 16.4533 2.16 15.5467 2.16 14.64C2.18667 13.7333 2.21333 12.9067 2.24 12.16C2.29333 10.6933 2.54667 9.32 3 8.04C3.48 6.76 4.17333 5.64 5.08 4.68C5.98667 3.72 7.12 2.97333 8.48 2.44C9.86667 1.88 11.4933 1.6 13.36 1.6C15.2267 1.6 16.84 1.88 18.2 2.44C19.56 2.97333 20.6933 3.72 21.6 4.68C22.5067 5.64 23.1867 6.76 23.64 8.04C24.12 9.32 24.4 10.6933 24.48 12.16C24.5067 12.9067 24.52 13.7333 24.52 14.64C24.5467 15.5467 24.5467 16.4533 24.52 17.36C24.52 18.24 24.5067 19.04 24.48 19.76C24.4 21.2267 24.1333 22.6133 23.68 23.92C23.2267 25.2 22.5467 26.3333 21.64 27.32C20.76 28.28 19.6267 29.04 18.24 29.6C16.88 30.1333 15.2533 30.4 13.36 30.4ZM13.36 25.2C14.9067 25.2 16.04 24.6933 16.76 23.68C17.48 22.6667 17.8667 21.2933 17.92 19.56C17.9467 18.7867 17.96 17.9867 17.96 17.16C17.9867 16.3333 17.9867 15.5067 17.96 14.68C17.96 13.8533 17.9467 13.08 17.92 12.36C17.8667 10.7067 17.48 9.36 16.76 8.32C16.04 7.28 14.9067 6.74667 13.36 6.72C11.7867 6.74667 10.64 7.28 9.92 8.32C9.22667 9.36 8.85333 10.7067 8.8 12.36C8.77333 13.08 8.74667 13.8533 8.72 14.68C8.72 15.5067 8.72 16.3333 8.72 17.16C8.74667 17.9867 8.77333 18.7867 8.8 19.56C8.85333 21.2933 9.24 22.6667 9.96 23.68C10.68 24.6933 11.8133 25.2 13.36 25.2ZM39.7188 30.4C37.3721 30.4 35.3321 29.9733 33.5988 29.12C31.8921 28.2667 30.5588 27.0933 29.5988 25.6C28.6654 24.08 28.1988 22.3733 28.1988 20.48C28.1988 19.68 28.3188 18.88 28.5588 18.08C28.7988 17.28 29.0921 16.5333 29.4388 15.84C29.7854 15.12 30.1321 14.48 30.4788 13.92C30.8521 13.36 31.1588 12.9067 31.3988 12.56L38.5988 2.8C38.7321 2.66666 38.9054 2.50666 39.1188 2.32C39.3321 2.10666 39.6254 2 39.9988 2H44.4788C44.7188 2 44.9188 2.09333 45.0788 2.28C45.2388 2.44 45.3188 2.64 45.3188 2.88C45.3188 2.98667 45.3054 3.09333 45.2788 3.2C45.2521 3.28 45.2121 3.34666 45.1588 3.4L39.6388 10.96C39.8521 10.9067 40.0921 10.8667 40.3588 10.84C40.6521 10.8133 40.9054 10.8 41.1188 10.8C42.3988 10.8533 43.6254 11.12 44.7988 11.6C45.9988 12.08 47.0654 12.7467 47.9988 13.6C48.9321 14.4267 49.6654 15.4133 50.1988 16.56C50.7588 17.7067 51.0388 18.9867 51.0388 20.4C51.0388 22.1867 50.5721 23.84 49.6388 25.36C48.7321 26.88 47.4254 28.1067 45.7188 29.04C44.0388 29.9467 42.0388 30.4 39.7188 30.4ZM39.6388 25.24C40.5188 25.24 41.3321 25.0667 42.0788 24.72C42.8254 24.3467 43.4254 23.8 43.8788 23.08C44.3321 22.36 44.5588 21.4933 44.5588 20.48C44.5588 19.44 44.3321 18.5733 43.8788 17.88C43.4254 17.16 42.8254 16.6267 42.0788 16.28C41.3321 15.9067 40.5188 15.72 39.6388 15.72C38.7588 15.72 37.9454 15.9067 37.1988 16.28C36.4521 16.6267 35.8521 17.16 35.3988 17.88C34.9454 18.5733 34.7188 19.44 34.7188 20.48C34.7188 21.4933 34.9454 22.36 35.3988 23.08C35.8788 23.8 36.4788 24.3467 37.1988 24.72C37.9454 25.0667 38.7588 25.24 39.6388 25.24Z" fill="#D9D9D9"/>
</g>
<defs>
<clipPath id="clip0_73_985">
<rect width="52" height="20" fill="white"/>
</clipPath>
</defs>
</svg>
