<svg width="19" height="19" viewBox="0 0 19 19" fill="none" xmlns="http://www.w3.org/2000/svg">
<g clip-path="url(#clip0_59_16)">
<path d="M18.7534 9.4603C18.6664 9.66956 18.5539 9.85906 18.3312 9.94865C18.0417 10.0651 17.7778 10.0135 17.5529 9.8001C17.3748 9.63104 17.2073 9.45079 16.9956 9.23536C16.9956 9.34221 16.9956 9.40178 16.9956 9.46135C16.9955 10.2406 16.9974 11.0198 16.9945 11.799C16.9931 12.1711 16.7404 12.446 16.3634 12.4977C16.0302 12.5434 15.7029 12.3187 15.6132 11.9739C15.5915 11.8907 15.5908 11.8005 15.5907 11.7135C15.5894 10.4714 15.5884 9.22937 15.5922 7.98735C15.5926 7.87288 15.5585 7.79332 15.478 7.71244C13.7706 5.99787 12.066 4.28052 10.3607 2.56392C9.97754 2.17824 9.59934 2.17639 9.21775 2.55732C7.49693 4.27502 5.77703 5.99359 4.05316 7.70821C3.95322 7.80763 3.91523 7.90537 3.91549 8.04502C3.91958 10.4295 3.91752 12.8141 3.91906 15.1986C3.91945 15.8097 4.15535 16.295 4.72247 16.5666C4.89599 16.6498 5.10217 16.6955 5.2951 16.7014C5.88045 16.7192 6.46663 16.7092 7.05247 16.7096C7.08029 16.7096 7.10816 16.7041 7.15294 16.6995C7.15294 16.6233 7.15294 16.5545 7.15294 16.4858C7.15294 14.6813 7.16082 12.8768 7.14695 11.0724C7.14383 10.6654 7.40491 10.2737 7.94702 10.2758C9.17733 10.2804 10.4077 10.2797 11.638 10.2761C12.1633 10.2746 12.4351 10.6538 12.4317 11.0789C12.4172 12.8775 12.4256 14.6762 12.4256 16.4748C12.4256 16.5443 12.4256 16.6139 12.4256 16.6755C12.4451 16.6904 12.4539 16.7031 12.4627 16.7031C13.0952 16.7031 13.7286 16.7221 14.36 16.6951C14.95 16.6698 15.4935 16.1141 15.5599 15.5238C15.571 15.425 15.5817 15.3262 15.5923 15.2273C15.6294 14.8801 15.9594 14.5925 16.3069 14.6046C16.6746 14.6174 16.9805 14.9148 16.9946 15.2733C17.0506 16.6893 15.8801 18.0268 14.4685 18.1029C13.5629 18.1517 12.6533 18.1363 11.7456 18.1299C11.287 18.1267 11.0202 17.8232 11.02 17.3599C11.0195 15.5495 11.0198 13.7392 11.0198 11.9288C11.0198 11.8597 11.0198 11.7906 11.0198 11.712C10.1974 11.712 9.39118 11.712 8.55866 11.712C8.55866 11.7777 8.55866 11.8455 8.55866 11.9133C8.55866 13.7178 8.55007 15.5223 8.56495 17.3267C8.56848 17.7552 8.30153 18.1431 7.76057 18.136C6.8587 18.1242 5.95516 18.1502 5.05519 18.1043C3.80516 18.0405 2.71234 16.9863 2.54838 15.7426C2.52628 15.5751 2.51435 15.405 2.51413 15.236C2.5118 13.3202 2.51263 11.4044 2.51263 9.48861C2.51263 9.42441 2.51263 9.36027 2.51263 9.24905C2.32318 9.4378 2.16006 9.59986 1.99742 9.76246C1.81277 9.94702 1.59915 10.0433 1.3319 9.99317C0.805193 9.89428 0.575236 9.28286 0.910023 8.86324C0.964573 8.79482 1.02789 8.733 1.08996 8.67101C3.47829 6.28686 5.86698 3.90307 8.25553 1.51919C9.13128 0.645147 10.4448 0.643078 11.3144 1.518C13.6975 3.91566 16.0803 6.31359 18.4587 8.71588C18.5786 8.83704 18.6561 9.00029 18.7533 9.14396C18.7534 9.24936 18.7534 9.35485 18.7534 9.4603Z" fill="#43C5FF"/>
</g>
<defs>
<clipPath id="clip0_59_16">
<rect width="18" height="17.2746" fill="white" transform="translate(0.753418 0.862701)"/>
</clipPath>
</defs>
</svg>
