<svg width="19" height="19" viewBox="0 0 19 19" fill="none" xmlns="http://www.w3.org/2000/svg">
<g clip-path="url(#clip0_59_25)">
<path d="M0.753418 11.4518C0.798693 11.2855 0.836782 11.1168 0.89051 10.9531C1.12261 10.2464 1.5739 9.71595 2.22752 9.36027C2.34451 9.2966 2.37574 9.22961 2.37556 9.10511C2.37189 6.81837 2.37236 4.53157 2.37335 2.24478C2.37354 1.78554 2.68567 1.48323 3.13447 1.50072C3.46003 1.51341 3.7538 1.78023 3.77564 2.10652C3.79147 2.34316 3.77874 2.58166 3.77874 2.84936C3.84322 2.81335 3.88267 2.79535 3.91785 2.77114C4.54667 2.33816 5.24246 2.11725 6.00852 2.11725C8.50426 2.11729 11 2.11748 13.4957 2.11715C14.2616 2.11706 14.9578 2.33565 15.5861 2.76983C15.6189 2.7925 15.6536 2.81251 15.7257 2.85794C15.7257 2.59341 15.7145 2.35827 15.7284 2.12462C15.749 1.77915 16.0442 1.50879 16.3885 1.50039C16.8125 1.49004 17.1243 1.78662 17.1332 2.20928C17.1344 2.26745 17.1335 2.32566 17.1335 2.38383C17.1335 4.62407 17.1346 6.86427 17.1308 9.10451C17.1305 9.22938 17.1644 9.29468 17.2787 9.36018C18.2257 9.903 18.7285 10.7162 18.7509 11.8089C18.754 11.9586 18.7567 12.1153 18.7174 12.2573C18.6222 12.6025 18.2961 12.7919 17.9279 12.7415C17.6039 12.6971 17.3422 12.3986 17.3493 12.0553C17.3584 11.617 17.286 11.2098 16.9715 10.8765C16.7119 10.6013 16.3963 10.4444 16.0132 10.4312C15.9547 10.4292 15.8961 10.4264 15.8376 10.4264C11.7835 10.4261 7.72933 10.4266 3.67523 10.4252C3.39583 10.4251 3.12719 10.4585 2.8818 10.602C2.43332 10.8643 2.176 11.2578 2.16689 11.7695C2.14895 12.7758 2.16177 13.7826 2.16238 14.7892C2.16238 14.7996 2.16971 14.81 2.18102 14.8399C2.248 14.8399 2.3222 14.8399 2.39641 14.8399C7.58707 14.8399 12.7778 14.8398 17.9684 14.84C18.3673 14.84 18.6318 15.0186 18.7279 15.3556C18.7451 15.416 18.7513 15.4812 18.7516 15.5442C18.7537 15.9573 18.754 16.3705 18.7523 16.7836C18.7507 17.1936 18.4521 17.4933 18.0488 17.4931C17.6462 17.4928 17.3495 17.1925 17.3471 16.7818C17.3461 16.6084 17.3469 16.4349 17.3469 16.251C12.2843 16.251 7.23685 16.251 2.15937 16.251C2.15937 16.4131 2.15961 16.5788 2.15933 16.7445C2.15867 17.1297 1.93958 17.4198 1.59988 17.4856C1.24519 17.5543 0.939871 17.3756 0.784133 17.009C0.777746 16.9939 0.763844 16.982 0.753418 16.9686C0.753418 15.1297 0.753418 13.2907 0.753418 11.4518ZM9.77011 6.46031C9.80548 6.40937 9.82422 6.37135 9.85273 6.34304C10.3661 5.83361 10.9811 5.52803 11.7097 5.51339C12.6405 5.49468 13.5721 5.50681 14.5033 5.51357C14.8651 5.51623 15.2049 5.62468 15.5312 5.77517C15.5872 5.80096 15.6421 5.82895 15.6998 5.85703C15.71 5.82718 15.7164 5.81663 15.7169 5.80577C15.7801 4.59529 14.7654 3.52606 13.5404 3.52424C11.0273 3.52051 8.51421 3.52219 6.00114 3.5235C5.04187 3.52401 4.20241 4.12971 3.90094 5.03367C3.81288 5.29774 3.77874 5.56791 3.79382 5.84607C4.02503 5.75837 4.23191 5.65864 4.45016 5.60304C4.66906 5.54725 4.89901 5.51147 5.12463 5.50872C5.99137 5.49818 6.8584 5.50037 7.72524 5.50755C7.91066 5.50909 8.09862 5.53811 8.28042 5.57724C8.85819 5.7016 9.33817 5.99944 9.77011 6.46031ZM3.76343 8.99983C5.55708 8.99983 7.29847 8.99983 9.046 8.99983C9.046 8.7318 9.06188 8.47553 9.04304 8.22177C8.98621 7.45686 8.39718 6.91352 7.62812 6.90993C6.80838 6.90611 5.9886 6.90583 5.16887 6.91087C4.54042 6.91474 3.98384 7.32709 3.85074 7.93564C3.7763 8.27607 3.79029 8.63552 3.76343 8.99983ZM15.7121 9.0044C15.7121 8.74225 15.7296 8.48672 15.7088 8.23432C15.6426 7.42552 15.0745 6.91138 14.2584 6.90933C13.4562 6.90732 12.6539 6.90126 11.852 6.91525C11.6592 6.91861 11.4508 6.95989 11.2783 7.04264C10.4514 7.43895 10.3884 8.1552 10.4842 9.00445C12.222 9.0044 13.9596 9.0044 15.7121 9.0044Z" fill="#43C5FF"/>
</g>
<defs>
<clipPath id="clip0_59_25">
<rect width="18" height="18" fill="white" transform="translate(0.753418 0.5)"/>
</clipPath>
</defs>
</svg>
