<svg width="19" height="19" viewBox="0 0 19 19" fill="none" xmlns="http://www.w3.org/2000/svg">
<g clip-path="url(#clip0_59_32)">
<path d="M0.753405 9.67606C0.864889 9.97431 1.03929 10.2163 1.36711 10.2919C1.51309 10.3256 1.66781 10.3213 1.83525 10.3356C1.83805 10.3974 1.84317 10.4592 1.84324 10.5211C1.84372 11.6225 1.84242 12.724 1.84392 13.8254C1.84617 15.4582 2.85752 16.8095 4.42519 17.2712C4.53387 17.3032 4.57369 17.3537 4.56625 17.4673C4.55908 17.5772 4.57082 17.6896 4.58496 17.7995C4.64023 18.2276 5.00262 18.5191 5.44896 18.499C5.84824 18.4809 6.1818 18.1446 6.2027 17.7355C6.20776 17.6368 6.20346 17.5377 6.20346 17.4246C8.57022 17.4246 10.9216 17.4246 13.3036 17.4246C13.3036 17.5237 13.2993 17.627 13.3044 17.7298C13.3251 18.1483 13.6623 18.4856 14.0705 18.4993C14.5162 18.5143 14.867 18.2221 14.925 17.7876C14.9304 17.747 14.9488 17.7038 14.9406 17.6664C14.876 17.3703 15.0428 17.291 15.292 17.1996C16.578 16.7283 17.3439 15.7962 17.6161 14.4598C17.6589 14.2498 17.661 14.0292 17.6619 13.8134C17.6662 12.7237 17.6638 11.6339 17.6638 10.5442C17.6638 10.4801 17.6638 10.4159 17.6638 10.3351C17.7914 10.3262 17.9117 10.3202 18.0314 10.309C18.4416 10.2708 18.7539 9.91945 18.7535 9.49893C18.7532 9.07896 18.4401 8.72852 18.0288 8.69157C17.924 8.68214 17.8183 8.67913 17.713 8.67913C13.0611 8.67852 8.40928 8.67866 3.75738 8.67866C3.67629 8.67866 3.59528 8.67866 3.50456 8.67866C3.49848 8.61868 3.49008 8.57407 3.49008 8.52946C3.48946 6.86555 3.48673 5.20163 3.49103 3.53778C3.49274 2.87967 3.8679 2.37841 4.47314 2.19752C5.29868 1.95078 6.13528 2.54536 6.19799 3.43477C6.21807 3.71921 6.20113 4.00626 6.20113 4.29665C6.06636 4.30853 5.94469 4.31495 5.82419 4.3306C5.4023 4.38531 5.1001 4.74572 5.11519 5.17185C5.13015 5.5925 5.4659 5.94212 5.89339 5.94806C6.64898 5.95851 7.40484 5.95845 8.16043 5.94806C8.5858 5.94226 8.91656 5.59756 8.93972 5.17041C8.96219 4.75658 8.64817 4.38477 8.22689 4.33026C8.11118 4.31529 7.9943 4.30942 7.8518 4.29712C7.8518 4.1797 7.84988 4.0592 7.85214 3.93877C7.86157 3.42759 7.84708 2.91963 7.64864 2.43681C7.21118 1.37266 6.42943 0.734504 5.29355 0.534285C5.26732 0.52964 5.24341 0.511811 5.21841 0.500061C4.97229 0.500061 4.72623 0.500061 4.48011 0.500061C4.40264 0.519461 4.32559 0.540569 4.24771 0.557989C2.79433 0.883627 1.84481 2.0678 1.84385 3.55978C1.84276 5.19398 1.84358 6.82818 1.84358 8.46231C1.84358 8.52974 1.84358 8.59716 1.84358 8.66424C1.66761 8.67934 1.51289 8.67504 1.36691 8.70878C1.03922 8.7844 0.864887 9.02636 0.753471 9.32454C0.753405 9.44169 0.753405 9.55884 0.753405 9.67606ZM3.48946 10.3343C7.68041 10.3343 11.8422 10.3343 16.0085 10.3343C16.0122 10.3867 16.0175 10.4271 16.0175 10.4676C16.0178 11.5981 16.0182 12.7286 16.0167 13.8591C16.0166 13.9582 16.015 14.0593 15.9968 14.1562C15.8109 15.1419 15.065 15.763 14.0583 15.7637C11.1881 15.7658 8.31795 15.7647 5.44773 15.7637C5.33106 15.7636 5.21192 15.7644 5.09798 15.7431C4.11212 15.5582 3.49247 14.8117 3.49001 13.8052C3.48734 12.7039 3.48939 11.6028 3.48933 10.5015C3.48946 10.4495 3.48946 10.3975 3.48946 10.3343Z" fill="#43C5FF"/>
</g>
<defs>
<clipPath id="clip0_59_32">
<rect width="18.0001" height="18" fill="white" transform="matrix(-1 0 0 1 18.7535 0.5)"/>
</clipPath>
</defs>
</svg>
