<svg width="19" height="18" viewBox="0 0 19 18" fill="none" xmlns="http://www.w3.org/2000/svg">
<path d="M15.9829 13.8438C15.0353 13.8438 14.1138 13.8499 13.1924 13.8397C12.9574 13.8371 12.7162 13.8084 12.4894 13.7482C11.3511 13.4457 10.3537 12.3342 10.4443 10.8488C10.5171 9.65483 11.5089 8.55426 12.7384 8.34689C12.8866 8.32187 13.0385 8.30737 13.1888 8.3071C14.7894 8.3043 16.39 8.30505 17.9906 8.30548C18.4779 8.30564 18.751 8.57939 18.7512 9.06799C18.7517 10.4093 18.7518 11.7506 18.7511 13.0919C18.7509 13.5667 18.4751 13.8423 18.0013 13.8438C17.8002 13.8444 17.599 13.8439 17.3669 13.8439C17.3669 13.9307 17.3669 14.0067 17.3669 14.0827C17.3668 14.7101 17.3701 15.3375 17.366 15.9648C17.3588 17.0606 16.4314 17.9955 15.3369 17.9966C11.5879 18.0002 7.83874 18.0023 4.08967 17.9957C2.51705 17.9929 1.02142 16.6761 0.80079 15.1201C0.771567 14.9141 0.755877 14.7044 0.755715 14.4964C0.753019 11.0566 0.753343 7.61679 0.75399 4.17694C0.754313 2.23093 2.2914 0.690714 4.23277 0.689204C4.66535 0.688881 5.09794 0.688665 5.53052 0.689258C5.98731 0.689905 6.29319 0.971087 6.29098 1.38706C6.28882 1.79123 5.98208 2.06864 5.54044 2.07414C5.00762 2.08082 4.46893 2.04659 3.94329 2.11318C2.87765 2.24819 2.15192 3.10192 2.13979 4.1764C2.13046 4.99838 2.13774 5.82057 2.13774 6.64266C2.13774 9.24597 2.13596 11.8492 2.13865 14.4526C2.13973 15.4886 2.76265 16.3047 3.73743 16.5455C3.92404 16.5916 4.12186 16.6109 4.31451 16.6111C7.93386 16.6149 11.5532 16.6141 15.1725 16.6136C15.7079 16.6135 15.982 16.337 15.9828 15.7985C15.9836 15.1574 15.9829 14.5163 15.9829 13.8438ZM17.3555 12.4596C17.3555 11.5191 17.3555 10.6135 17.3555 9.71188C17.3311 9.70255 17.3183 9.69338 17.3055 9.69333C15.929 9.69225 14.5521 9.67467 13.176 9.6977C12.3014 9.71231 11.6994 10.51 11.8689 11.3634C11.9947 11.997 12.5708 12.4558 13.2636 12.4582C14.5754 12.4627 15.8871 12.4595 17.1988 12.4595C17.2475 12.4596 17.296 12.4596 17.3555 12.4596Z" fill="#43C5FF"/>
<path d="M9.71369 4.84293C7.88943 4.84288 6.06517 4.84341 4.24091 4.84244C3.87039 4.84223 3.61185 4.65918 3.52203 4.34101C3.41732 3.97005 3.61309 3.63689 4.03969 3.4711C4.60254 3.25235 5.16706 3.03787 5.73066 2.82117C8.08585 1.91562 10.4411 1.01023 12.7961 0.10398C13.3847 -0.122583 13.6956 0.0115106 13.9317 0.600887C14.2846 1.4819 14.6399 2.36195 14.9848 3.2461C15.0451 3.40057 15.112 3.46468 15.2913 3.46414C16.4487 3.46075 17.3613 4.37686 17.3667 5.53092C17.3678 5.76892 17.3703 6.00696 17.3659 6.2449C17.3588 6.62896 17.0544 6.92152 16.6699 6.91995C16.2891 6.91839 15.9895 6.62087 15.9836 6.23477C15.9805 6.0329 15.9841 5.83092 15.9827 5.62894C15.9794 5.12497 15.6959 4.84358 15.1864 4.84331C13.3621 4.84234 11.5379 4.84293 9.71369 4.84293ZM12.8232 1.5899C11.2231 2.20532 9.64618 2.81179 8.0693 3.41826C8.07194 3.42786 8.07464 3.4374 8.07728 3.447C9.89889 3.447 11.7205 3.447 13.563 3.447C13.315 2.82435 13.0737 2.21896 12.8232 1.5899Z" fill="#43C5FF"/>
</svg>
