<svg width="20" height="31" viewBox="0 0 20 31" fill="none" xmlns="http://www.w3.org/2000/svg">
<g clip-path="url(#clip0_59_76)">
<path d="M6.51216 0C6.1424 0.079324 5.76998 0.148103 5.40329 0.23965C2.57993 0.944339 0.418076 3.39242 0.0724907 6.28038C0.0311832 6.62535 0.0131531 6.97512 0.0129128 7.32267C0.00929451 12.6451 0.0383587 17.9675 0.000370026 23.2896C-0.0241737 26.7264 2.32854 29.74 5.74375 30.4667C6.22953 30.5701 6.73697 30.6092 7.23493 30.6137C9.08093 30.6305 10.9272 30.6251 12.7733 30.6194C16.2102 30.6089 19.1572 28.2317 19.8532 24.8921C19.952 24.4182 19.9909 23.924 19.9917 23.4392C20.0012 18.0172 20.0029 12.5951 19.9958 7.17313C19.9913 3.76124 17.5792 0.828349 14.2288 0.136121C13.9856 0.0858545 13.7403 0.0451739 13.4959 0C11.168 0 8.84009 0 6.51216 0ZM2.41784 15.3031C2.41784 12.6619 2.41471 10.0207 2.42164 7.37953C2.42254 7.0324 2.44299 6.67921 2.50889 6.33933C2.96471 3.98855 4.89344 2.4083 7.32496 2.39404C9.11084 2.38361 10.8971 2.37223 12.6825 2.40392C13.2258 2.41357 13.7901 2.49439 14.3041 2.66418C16.3124 3.32759 17.5834 5.11712 17.5871 7.25947C17.5963 12.6316 17.5916 18.0037 17.5863 23.3758C17.586 23.6829 17.5558 23.9949 17.4963 24.2961C17.0371 26.6223 15.1309 28.2008 12.7283 28.225C10.9125 28.2434 9.09625 28.2384 7.28028 28.2253C6.06503 28.2165 4.97798 27.8333 4.06237 27.0229C2.93938 26.029 2.42001 24.7677 2.41862 23.2865C2.41603 20.6254 2.41784 17.9643 2.41784 15.3031Z" fill="#43C5FF"/>
<path d="M9.98828 25.7357C11.7927 23.8414 13.5826 21.9625 15.4027 20.052C14.8158 19.499 14.2388 18.9552 13.6457 18.3962C12.4267 19.6752 11.2225 20.9385 9.99503 22.2264C8.7778 20.9437 7.5775 19.6789 6.36473 18.401C5.7739 18.9533 5.19917 19.4906 4.60273 20.0482C6.40332 21.9497 8.18618 23.8325 9.98828 25.7357Z" fill="#43C5FF"/>
<path d="M8.80065 6.03444C8.79872 6.70264 9.3225 7.23155 9.99045 7.2358C10.6769 7.24017 11.2103 6.71229 11.2074 6.03144C11.2045 5.36671 10.6743 4.84452 10.0025 4.845C9.33178 4.84553 8.80264 5.36917 8.80065 6.03444Z" fill="#43C5FF"/>
<path d="M8.80065 10.8282C8.80173 11.4941 9.32967 12.019 9.9998 12.0203C10.684 12.0217 11.2134 11.4897 11.2074 10.8068C11.2016 10.1445 10.667 9.62612 9.99322 9.6296C9.32442 9.63295 8.79962 10.1605 8.80065 10.8282Z" fill="#43C5FF"/>
<path d="M11.2074 15.5919C11.2018 14.9294 10.6675 14.4108 9.99389 14.414C9.31321 14.4173 8.78992 14.9558 8.80077 15.6419C8.8112 16.3009 9.35198 16.8129 10.0292 16.8048C10.6941 16.7969 11.2131 16.2627 11.2074 15.5919Z" fill="#43C5FF"/>
</g>
<defs>
<clipPath id="clip0_59_76">
<rect width="20" height="30.625" fill="white" transform="matrix(-1 0 0 1 20 0)"/>
</clipPath>
</defs>
</svg>
