<svg width="40" height="40" viewBox="0 0 40 40" fill="none" xmlns="http://www.w3.org/2000/svg">
<g clip-path="url(#clip0_59_88)">
<path d="M20 39.5C9.23044 39.5 0.5 30.7696 0.5 20C0.5 9.23044 9.23044 0.5 20 0.5C30.7696 0.5 39.5 9.23044 39.5 20C39.5 30.7696 30.7696 39.5 20 39.5Z" stroke="white" stroke-opacity="0.5"/>
<g clip-path="url(#clip1_59_88)">
<path d="M19.7539 15.5078C17.2695 15.5078 15.2656 17.5117 15.2656 19.9961C15.2656 22.4805 17.2695 24.4844 19.7539 24.4844C22.2383 24.4844 24.2422 22.4805 24.2422 19.9961C24.2422 17.5117 22.2383 15.5078 19.7539 15.5078ZM19.7539 22.9141C18.1484 22.9141 16.8359 21.6055 16.8359 19.9961C16.8359 18.3867 18.1445 17.0781 19.7539 17.0781C21.3633 17.0781 22.6719 18.3867 22.6719 19.9961C22.6719 21.6055 21.3594 22.9141 19.7539 22.9141ZM25.4727 15.3242C25.4727 15.9062 25.0039 16.3711 24.4258 16.3711C23.8438 16.3711 23.3789 15.9023 23.3789 15.3242C23.3789 14.7461 23.8477 14.2773 24.4258 14.2773C25.0039 14.2773 25.4727 14.7461 25.4727 15.3242ZM28.4453 16.3867C28.3789 14.9844 28.0586 13.7422 27.0312 12.7187C26.0078 11.6953 24.7656 11.375 23.3633 11.3047C21.918 11.2227 17.5859 11.2227 16.1406 11.3047C14.7422 11.3711 13.5 11.6914 12.4727 12.7148C11.4453 13.7383 11.1289 14.9805 11.0586 16.3828C10.9766 17.8281 10.9766 22.1602 11.0586 23.6055C11.125 25.0078 11.4453 26.25 12.4727 27.2734C13.5 28.2969 14.7383 28.6172 16.1406 28.6875C17.5859 28.7695 21.918 28.7695 23.3633 28.6875C24.7656 28.6211 26.0078 28.3008 27.0312 27.2734C28.0547 26.25 28.375 25.0078 28.4453 23.6055C28.5273 22.1602 28.5273 17.832 28.4453 16.3867ZM26.5781 25.1562C26.2734 25.9219 25.6836 26.5117 24.9141 26.8203C23.7617 27.2773 21.0273 27.1719 19.7539 27.1719C18.4805 27.1719 15.7422 27.2734 14.5938 26.8203C13.8281 26.5156 13.2383 25.9258 12.9297 25.1562C12.4727 24.0039 12.5781 21.2695 12.5781 19.9961C12.5781 18.7227 12.4766 15.9844 12.9297 14.8359C13.2344 14.0703 13.8242 13.4805 14.5938 13.1719C15.7461 12.7148 18.4805 12.8203 19.7539 12.8203C21.0273 12.8203 23.7656 12.7187 24.9141 13.1719C25.6797 13.4766 26.2695 14.0664 26.5781 14.8359C27.0352 15.9883 26.9297 18.7227 26.9297 19.9961C26.9297 21.2695 27.0352 24.0078 26.5781 25.1562Z" fill="white"/>
</g>
</g>
<defs>
<clipPath id="clip0_59_88">
<rect width="40" height="40" fill="white"/>
</clipPath>
<clipPath id="clip1_59_88">
<rect width="17.5" height="20" fill="white" transform="translate(11 10)"/>
</clipPath>
</defs>
</svg>
