<svg width="17" height="17" viewBox="0 0 17 17" fill="none" xmlns="http://www.w3.org/2000/svg">
<path d="M12.1907 13.2741C8.85916 15.8822 4.47436 15.0759 2.15568 12.2577C-0.199698 9.3949 -0.0255106 5.31674 2.57287 2.63418C5.06474 0.061586 9.20714 -0.211567 12.0431 1.95812C14.9541 4.18516 16.0039 8.71489 13.2688 12.2031C13.3254 12.2368 13.4013 12.2642 13.4531 12.3158C14.385 13.2434 15.3162 14.1719 16.2428 15.1048C16.7028 15.5679 16.5193 16.3031 15.9034 16.4697C15.5872 16.5552 15.3181 16.4554 15.0886 16.225C14.1647 15.2981 13.2382 14.3739 12.3143 13.4469C12.2665 13.3991 12.2341 13.3358 12.1907 13.2741ZM13.2587 7.67069C13.2567 4.58307 10.7765 2.09517 7.69818 2.09282C4.5987 2.09042 2.09331 4.59147 2.10175 7.67959C2.11019 10.772 4.6037 13.2606 7.68794 13.2547C10.7849 13.2488 13.2608 10.767 13.2587 7.67069Z" fill="white"/>
</svg>
