<svg width="45" height="45" viewBox="0 0 45 45" fill="none" xmlns="http://www.w3.org/2000/svg">
<circle cx="22.5" cy="22.5" r="22.5" fill="#409EFF"/>
<g clip-path="url(#clip0_59_64)">
<path d="M27.152 28.3709C23.4041 31.3049 18.4711 30.3979 15.8626 27.2274C13.2128 24.0067 13.4088 19.4188 16.332 16.4009C19.1353 13.5068 23.7955 13.1995 26.986 15.6404C30.2608 18.1458 31.4418 23.2417 28.3649 27.1659C28.4285 27.2039 28.5139 27.2347 28.5722 27.2927C29.6207 28.3363 30.6682 29.3808 31.7107 30.4304C32.2282 30.9514 32.0217 31.7784 31.3288 31.9659C30.9731 32.0621 30.6704 31.9498 30.4121 31.6906C29.3728 30.6478 28.3304 29.6081 27.291 28.5653C27.2373 28.5114 27.2009 28.4403 27.152 28.3709ZM28.3536 22.067C28.3513 18.5934 25.5611 15.7945 22.0979 15.7919C18.611 15.7892 15.7925 18.6029 15.802 22.077C15.8115 25.556 18.6167 28.3557 22.0864 28.349C25.5705 28.3423 28.3559 25.5503 28.3536 22.067Z" fill="white"/>
</g>
<defs>
<clipPath id="clip0_59_64">
<rect width="18" height="18" fill="white" transform="translate(14 14)"/>
</clipPath>
</defs>
</svg>
