<svg width="30" height="30" viewBox="0 0 30 30" fill="none" xmlns="http://www.w3.org/2000/svg">
<g clip-path="url(#clip0_59_438)">
<path d="M18.2659 0.381324C18.9417 0.497181 19.344 1.12102 19.2082 1.72349C19.0558 2.39987 18.4638 2.76977 17.772 2.63505C13.0903 1.72311 9.04925 2.93345 5.73384 6.36758C3.86544 8.30289 2.76499 10.6491 2.4399 13.3273C1.92588 17.5606 3.20978 21.1881 6.25932 24.1583C8.22353 26.0714 10.6033 27.1728 13.3297 27.5466C19.7131 28.4217 25.7128 24.2785 27.2731 18.1275C27.7714 16.1635 27.7892 14.1945 27.3641 12.2168C27.2156 11.5255 27.5946 10.9363 28.2752 10.7834C28.8786 10.6479 29.4936 11.0515 29.6223 11.7255C30.7874 17.8215 28.9856 22.8743 24.1919 26.813C22.0303 28.5891 19.4898 29.5564 16.7142 29.8935C9.16577 30.8102 1.99897 25.718 0.359177 18.2777C-1.20724 11.1707 2.46436 4.0185 9.14179 1.19184C10.7669 0.503917 12.4564 0.11189 14.2064 0.0295199C14.4764 0.016818 14.7479 0.0114293 15.0208 0.0135463C15.0256 -0.0184972 17.1939 0.197532 18.2659 0.381324Z" fill="#43C5FF"/>
<path d="M12.2947 15.0282C12.3773 13.167 13.9257 12.0034 15.6522 12.3786C15.7837 12.4072 15.9875 12.3477 16.084 12.2536C17.046 11.3148 17.9963 10.3638 18.937 9.40373C19.0246 9.31443 19.078 9.12852 19.0551 9.00438C18.8749 8.02836 18.67 7.05685 18.4775 6.08304C18.3906 5.64309 18.4862 5.2554 18.8136 4.92919C20.3355 3.41275 21.8493 1.88814 23.376 0.376706C23.9898 -0.230869 24.8711 -0.0853747 25.2712 0.682514C25.6749 1.45743 26.0668 2.23898 26.4418 3.02813C26.5632 3.28342 26.7319 3.43883 26.9827 3.55892C27.7384 3.92083 28.4847 4.30246 29.2312 4.68323C30.109 5.13107 30.2558 5.98643 29.5647 6.68128C28.0922 8.16211 26.6084 9.63178 25.1369 11.1137C24.7636 11.4896 24.3467 11.6078 23.8293 11.4951C22.8821 11.2887 21.9304 11.1021 20.9766 10.9288C20.8544 10.9066 20.6718 10.9755 20.5796 11.0658C19.6195 12.0066 18.6675 12.9558 17.7286 13.9176C17.6364 14.0121 17.5877 14.2186 17.6169 14.3515C17.9485 15.8548 17.0513 17.3007 15.5604 17.6373C14.1406 17.9578 12.7062 17.0448 12.3623 15.592C12.3104 15.3727 12.3075 15.1416 12.2947 15.0282ZM23.8954 3.12629C22.8979 4.12502 21.9307 5.08796 20.9749 6.06206C20.9089 6.12933 20.8926 6.28598 20.9122 6.39C21.0409 7.07081 21.1789 7.75017 21.3334 8.42549C21.3548 8.51883 21.4732 8.63776 21.5664 8.65912C22.242 8.81366 22.9205 8.95877 23.6036 9.07473C23.7371 9.09734 23.9333 9.01959 24.0346 8.92067C24.9183 8.05838 25.7874 7.18108 26.6594 6.30677C26.7214 6.24461 26.7716 6.1708 26.8429 6.08323C26.3322 5.82737 25.8316 5.61836 25.3784 5.33401C25.0986 5.15849 24.8384 4.90128 24.663 4.62203C24.3741 4.16188 24.1609 3.65428 23.8954 3.12629Z" fill="#43C5FF"/>
<path d="M14.9898 21.5342C18.2721 21.5153 21.0444 19.0816 21.4684 15.8232C21.507 15.5264 21.4957 15.2235 21.5277 14.9256C21.6019 14.2363 22.0922 13.8148 22.7659 13.8466C23.3763 13.8755 23.857 14.3964 23.8453 15.0603C23.8102 17.0387 23.2225 18.8389 21.9917 20.3951C20.1447 22.7304 17.7046 23.891 14.7314 23.8375C10.5357 23.762 6.92279 20.5773 6.26548 16.4375C5.50813 11.6677 8.56537 7.27077 13.3193 6.31389C13.8222 6.21266 14.3421 6.17551 14.856 6.15425C15.5763 6.12442 16.1123 6.5916 16.1435 7.22785C16.1781 7.93329 15.7224 8.44483 14.9548 8.47071C13.7799 8.51036 12.6826 8.78816 11.6683 9.38477C9.3027 10.7758 8.07822 13.4985 8.58117 16.2502C9.05946 18.8667 11.2446 20.9873 13.918 21.4197C14.2721 21.477 14.6324 21.497 14.9898 21.5342Z" fill="#43C5FF"/>
</g>
<defs>
<clipPath id="clip0_59_438">
<rect width="30" height="30" fill="white"/>
</clipPath>
</defs>
</svg>
