<svg width="30" height="30" viewBox="0 0 30 30" fill="none" xmlns="http://www.w3.org/2000/svg">
<path d="M23.7088 30C16.5202 30 9.33163 30 2.1431 30C1.75201 29.803 1.49984 29.5209 1.5 29.0501C1.50258 20.565 1.50149 12.0801 1.50266 3.59501C1.50274 2.99628 1.86972 2.63799 2.47369 2.6376C4.09479 2.63666 5.71588 2.63728 7.33698 2.63728C7.43942 2.63728 7.54187 2.63728 7.65543 2.63728C7.65543 2.02525 7.64909 1.45917 7.65731 0.893312C7.66483 0.378018 8.03799 0.00258273 8.54554 0.00211314C11.4752 -0.000704381 14.4049 -0.000704381 17.3347 0.00211314C17.8255 0.00258273 18.1871 0.346869 18.2076 0.83931C18.2247 1.24871 18.2139 1.65929 18.2151 2.06932C18.2156 2.25159 18.2151 2.43387 18.2151 2.63728C18.3605 2.63728 18.4665 2.63728 18.5724 2.63728C20.1935 2.63728 21.8146 2.63627 23.4357 2.63791C23.9969 2.63846 24.3458 2.97953 24.3667 3.54085C24.3703 3.63837 24.3683 3.73612 24.3683 3.83371C24.3684 7.42692 24.3684 11.0201 24.3684 14.6133C24.3684 14.7166 24.3684 14.8199 24.3684 14.9232C24.3901 14.9357 24.4118 14.9482 24.4335 14.9607C24.5787 14.8095 24.7215 14.6558 24.8697 14.5075C25.3666 14.0108 25.8401 14.0109 26.3399 14.5096C27.2247 15.3924 28.1082 16.2765 28.9916 17.1608C29.5275 17.6972 29.5261 18.1554 28.9864 18.6954C27.6472 20.0352 26.3234 21.3912 24.9582 22.704C24.5246 23.1209 24.3349 23.535 24.3528 24.146C24.3992 25.7264 24.3565 27.3093 24.375 28.8908C24.3811 29.4205 24.2115 29.7985 23.7088 30ZM3.28616 28.2225C9.74111 28.2225 16.1611 28.2225 22.5742 28.2225C22.5742 27.1867 22.5742 26.1711 22.5742 25.1356C22.0075 25.6052 22.0075 25.6052 21.2891 25.6052C20.4884 25.6052 19.6877 25.6061 18.887 25.6049C18.2673 25.604 17.9123 25.2477 17.911 24.6226C17.9091 23.7635 17.9222 22.9041 17.9053 22.0453C17.8975 21.6457 18.0266 21.3385 18.3109 21.0575C19.6789 19.7055 21.033 18.3394 22.398 16.9843C22.5396 16.8436 22.6035 16.706 22.6032 16.5021C22.597 12.5677 22.5987 8.63329 22.598 4.69893C22.598 4.60462 22.5892 4.51039 22.5843 4.41185C21.1236 4.41185 19.684 4.41185 18.2151 4.41185C18.2151 4.53395 18.2154 4.63906 18.215 4.74417C18.2133 5.23222 18.2251 5.72091 18.2055 6.20826C18.1863 6.68403 17.8215 7.02871 17.3476 7.02926C14.4086 7.0327 11.4695 7.03215 8.53051 7.02965C8.14631 7.02934 7.83067 6.80033 7.71437 6.43625C7.67101 6.30038 7.65935 6.15003 7.65763 6.00603C7.65129 5.47367 7.65512 4.94124 7.65512 4.41616C6.17248 4.41616 4.73319 4.41616 3.28623 4.41616C3.28616 12.361 3.28616 20.2844 3.28616 28.2225ZM16.424 5.26564C16.424 4.08244 16.424 2.92796 16.424 1.77684C14.0856 1.77684 11.7685 1.77684 9.44801 1.77684C9.44801 2.95018 9.44801 4.10435 9.44801 5.26564C11.7821 5.26564 14.0928 5.26564 16.424 5.26564ZM27.1975 17.9673C26.6444 17.4139 26.1048 16.874 25.561 16.3298C25.5632 16.328 25.5385 16.344 25.5182 16.3643C23.6202 18.2612 21.7226 20.1583 19.8261 22.0566C19.7721 22.1106 19.6932 22.1778 19.6919 22.2401C19.6812 22.7713 19.6858 23.3029 19.6858 23.848C20.1684 23.848 20.6074 23.838 21.0455 23.8525C21.2473 23.8591 21.3872 23.7969 21.5299 23.6535C23.3604 21.8135 25.1974 19.9799 27.0323 18.1442C27.0997 18.0769 27.1625 18.0049 27.1975 17.9673Z" fill="#43C5FF"/>
<path d="M8.53411 13.1939C8.33501 13.1785 8.16533 13.1886 8.00857 13.1484C7.65567 13.0581 7.40663 12.7491 7.3668 12.3924C7.32633 12.0306 7.52724 11.678 7.89571 11.4931C9.26338 10.8066 10.6536 10.1614 11.9936 9.4247C12.6734 9.0509 13.2296 9.06765 13.8993 9.43111C15.2337 10.1552 16.6106 10.8009 17.9665 11.486C18.4925 11.7518 18.6637 12.3 18.3787 12.7621C18.2134 13.03 17.9713 13.1745 17.6533 13.1824C17.5578 13.1848 17.4621 13.1828 17.3361 13.1828C17.3361 13.3066 17.3361 13.4119 17.3361 13.5172C17.3361 14.7182 17.3167 15.9196 17.3436 17.1201C17.3588 17.8017 16.9092 18.1813 16.2791 18.174C14.0332 18.1481 11.7868 18.1641 9.5406 18.1637C8.88075 18.1636 8.53497 17.8166 8.53443 17.1523C8.53341 15.8352 8.53411 14.5181 8.53411 13.1939ZM10.3037 16.3872C10.9092 16.3872 11.4706 16.3872 12.0502 16.3872C12.0502 16.1155 12.0487 15.8631 12.0505 15.6107C12.0547 15.045 12.4142 14.6527 12.9295 14.6492C13.4512 14.6456 13.8073 15.0216 13.8186 15.5941C13.8237 15.8551 13.8195 16.1162 13.8195 16.3832C14.4209 16.3832 14.9887 16.3832 15.5662 16.3832C15.5662 15.0521 15.5702 13.7444 15.5576 12.4369C15.5567 12.3455 15.453 12.2169 15.3636 12.1705C14.62 11.7848 13.8714 11.4085 13.1163 11.0464C13.0165 10.9986 12.852 11.0068 12.7495 11.056C12.0038 11.4141 11.2699 11.7968 10.5237 12.154C10.3408 12.2416 10.2973 12.3509 10.2998 12.5374C10.3092 13.2693 10.3036 14.0014 10.3036 14.7333C10.3037 15.278 10.3037 15.8228 10.3037 16.3872Z" fill="#43C5FF"/>
<path d="M12.9443 22.0895C12.1734 22.0895 11.4023 22.0916 10.6313 22.0888C10.0976 22.0868 9.70215 21.7043 9.70708 21.2027C9.71185 20.712 10.102 20.3343 10.6181 20.3335C12.1601 20.3308 13.7022 20.3311 15.2442 20.3332C15.7842 20.3339 16.1644 20.7056 16.1604 21.2188C16.1563 21.7294 15.775 22.0876 15.2282 22.089C14.4668 22.091 13.7056 22.0895 12.9443 22.0895Z" fill="#43C5FF"/>
<path d="M12.9257 23.8483C13.6967 23.8483 14.4677 23.8465 15.2387 23.8489C15.7809 23.8505 16.1618 24.217 16.1603 24.7292C16.1588 25.2406 15.7776 25.6041 15.2335 25.6048C13.7012 25.6065 12.1689 25.6067 10.6366 25.6047C10.1006 25.604 9.70541 25.2256 9.70697 24.724C9.70846 24.2225 10.1032 23.8505 10.6418 23.8489C11.4032 23.8466 12.1644 23.8483 12.9257 23.8483Z" fill="#43C5FF"/>
</svg>
