<svg width="30" height="30" viewBox="0 0 30 30" fill="none" xmlns="http://www.w3.org/2000/svg">
<g clip-path="url(#clip0_59_472)">
<path d="M25.3823 23.073C23.8029 23.073 22.267 23.0831 20.7314 23.0661C20.3397 23.0618 19.9378 23.014 19.5598 22.9136C17.6625 22.4096 16.0003 20.557 16.1512 18.0814C16.2725 16.0914 17.9256 14.2571 19.9747 13.9115C20.2218 13.8698 20.475 13.8456 20.7254 13.8452C23.3931 13.8405 26.0607 13.8418 28.7284 13.8425C29.5407 13.8427 29.9958 14.299 29.9961 15.1133C29.997 17.3488 29.9972 19.5844 29.996 21.8199C29.9955 22.6112 29.5359 23.0704 28.7463 23.0729C28.4111 23.074 28.0758 23.0731 27.689 23.0731C27.689 23.2178 27.689 23.3445 27.689 23.4711C27.6888 24.5168 27.6942 25.5624 27.6874 26.6081C27.6755 28.4343 26.1297 29.9925 24.3057 29.9943C18.0572 30.0003 11.8087 30.0039 5.56022 29.9928C2.93918 29.9881 0.446471 27.7935 0.0787505 25.2001C0.0300447 24.8568 0.00389455 24.5073 0.00362496 24.1606C-0.000868199 18.4276 -0.000329021 12.6946 0.000749337 6.96156C0.00128852 3.71822 2.56311 1.15119 5.79872 1.14867C6.51969 1.14813 7.24066 1.14778 7.96164 1.14876C8.72296 1.14984 9.23275 1.61848 9.22906 2.31177C9.22547 2.98539 8.71424 3.44773 7.97817 3.4569C7.09014 3.46804 6.19232 3.41098 5.31624 3.52196C3.54019 3.74698 2.33063 5.16987 2.31041 6.96066C2.29487 8.33063 2.307 9.70095 2.307 11.0711C2.307 15.41 2.30403 19.7487 2.30852 24.0876C2.31032 25.8144 3.34851 27.1746 4.97315 27.5759C5.28416 27.6527 5.61387 27.6849 5.93495 27.6852C11.9672 27.6915 17.9994 27.6902 24.0317 27.6893C24.924 27.6892 25.3807 27.2283 25.3821 26.3308C25.3835 25.2623 25.3823 24.1938 25.3823 23.073ZM27.67 20.766C27.67 19.1985 27.67 17.6892 27.67 16.1865C27.6293 16.1709 27.6079 16.1556 27.5866 16.1555C25.2924 16.1538 22.9976 16.1245 20.7041 16.1628C19.2464 16.1872 18.2431 17.5167 18.5256 18.9391C18.7353 19.995 19.6955 20.7596 20.8502 20.7636C23.0364 20.7712 25.2226 20.7659 27.4088 20.7659C27.4899 20.766 27.5709 20.766 27.67 20.766Z" fill="#43C5FF"/>
<path d="M14.9336 8.07155C11.8931 8.07146 8.85272 8.07236 5.81229 8.07074C5.19475 8.07038 4.76386 7.7653 4.61414 7.23501C4.43963 6.61676 4.76592 6.06149 5.47692 5.78516C6.415 5.42059 7.35587 5.06311 8.29521 4.70195C12.2205 3.1927 16.146 1.68372 20.0709 0.173299C21.0519 -0.204305 21.5701 0.0191843 21.9636 1.00148C22.5517 2.46984 23.1439 3.93659 23.7188 5.41016C23.8192 5.66762 23.9308 5.77447 24.2296 5.77357C26.1586 5.76791 27.6796 7.29477 27.6886 9.2182C27.6905 9.61486 27.6947 10.0116 27.6873 10.4082C27.6754 11.0483 27.1682 11.5359 26.5273 11.5333C25.8926 11.5307 25.3932 11.0348 25.3834 10.3913C25.3783 10.0548 25.3842 9.7182 25.382 9.38158C25.3764 8.54163 24.9039 8.07263 24.0548 8.07218C21.0143 8.07056 17.974 8.07155 14.9336 8.07155ZM20.1161 2.64984C17.4493 3.67554 14.8211 4.68632 12.1929 5.6971C12.1973 5.71309 12.2018 5.729 12.2062 5.74499C15.2423 5.74499 18.2783 5.74499 21.3492 5.74499C20.9357 4.70725 20.5337 3.69827 20.1161 2.64984Z" fill="#43C5FF"/>
</g>
<defs>
<clipPath id="clip0_59_472">
<rect width="30" height="30" fill="white"/>
</clipPath>
</defs>
</svg>
