<svg width="80" height="80" viewBox="0 0 80 80" fill="none" xmlns="http://www.w3.org/2000/svg">
<g clip-path="url(#clip0_51_640)">
<path d="M29.3081 75.651C29.3081 65.827 29.3081 56.1224 29.3081 46.3327C28.1132 46.3327 26.9547 46.3156 25.7973 46.3392C25.0925 46.3536 24.4508 46.2869 24.126 45.5455C23.8252 44.8592 24.1358 44.3363 24.5712 43.8155C28.6107 38.9817 32.639 34.1391 36.6703 29.2986C36.7917 29.1527 36.9081 29.0023 36.9266 28.9791C35.5516 27.6209 34.1651 26.3569 32.9131 24.9712C32.2554 24.2435 32.004 23.0697 31.2571 22.5243C30.5178 21.9844 29.3642 22.0467 28.4311 21.7303C26.2309 20.9843 24.4857 19.6015 23.2153 17.6625C22.8838 17.1564 22.5423 16.9929 21.9487 17.0006C19.2284 17.0365 16.5069 16.9862 13.787 17.0329C12.8459 17.0489 12.1989 16.7223 11.9326 15.8473C11.5474 14.5818 10.7614 14.1659 9.46984 14.3201C8.856 14.3933 8.37743 14.4983 7.96071 14.9765C7.46946 15.54 6.92325 16.0586 6.37593 16.5699C5.65085 17.2467 4.81852 17.202 4.21759 16.4164C2.90224 14.6981 1.61404 12.9594 0.327394 11.2198C-0.153179 10.5699 -0.102007 9.91998 0.461776 9.34263C1.29566 8.48872 2.11041 7.60923 3.01148 6.83141C3.34677 6.54196 3.90188 6.37932 4.35775 6.37709C10.2434 6.34772 16.1291 6.34973 22.0148 6.37042C22.5772 6.37242 22.8909 6.19599 23.2042 5.72454C25.8109 1.8012 30.6222 0.0962759 35.1042 1.46947C39.5982 2.84622 42.6661 6.95534 42.673 11.6067C42.6801 16.5185 39.5152 20.6875 34.7804 22.0028C34.6505 22.0389 34.5217 22.0787 34.2732 22.1517C35.3732 24.1082 36.9415 25.4863 38.8444 26.6913C42.1986 22.6696 45.5497 18.6515 49.0161 14.4952C48.0825 13.8246 47.2115 13.1565 46.2973 12.5538C45.3926 11.9575 45.1063 11.313 45.5201 10.5741C45.9553 9.79762 46.7385 9.62941 47.6678 10.2228C48.6924 10.8771 49.6626 11.6164 50.6749 12.3317C52.1042 11.3601 52.4273 11.4147 53.6167 12.8421C56.0149 15.7205 58.4166 18.5959 60.8177 21.472C60.9374 21.6155 61.0649 21.7525 61.2882 22.0048C61.3085 21.6406 61.3323 21.4079 61.3325 21.1749C61.3359 19.3708 61.325 17.5664 61.3388 15.7623C61.3454 14.8977 61.82 14.372 62.6412 14.3615C64.4456 14.3386 66.2504 14.3384 68.0548 14.3631C68.8025 14.3733 69.3145 14.8806 69.3189 15.6297C69.3378 18.7661 69.3376 21.9029 69.3203 25.0396C69.316 25.824 68.7467 26.3415 67.9982 26.3427C67.2164 26.3438 66.676 25.8087 66.6707 24.9597C66.6564 22.6558 66.6655 20.352 66.6653 18.0481C66.6653 17.7451 66.6653 17.4421 66.6653 17.0778C65.786 17.0778 64.9442 17.0778 64.0362 17.0778C64.0235 17.3397 63.9997 17.6076 63.9995 17.8755C63.9964 20.0129 64.0233 22.1506 63.9835 24.2873C63.9703 24.9979 64.1737 25.5335 64.6305 26.0783C69.5686 31.9698 74.4804 37.8833 79.4081 43.7834C79.8595 44.3241 80.2019 44.8596 79.8624 45.5823C79.5155 46.3205 78.8621 46.3501 78.1679 46.338C77.0343 46.3185 75.9003 46.3327 74.7138 46.3327C74.7138 56.1133 74.7138 65.838 74.7138 75.6528C75.1652 75.6528 75.6022 75.6341 76.0369 75.6568C76.8159 75.6977 77.3316 76.247 77.3242 76.9961C77.3169 77.7444 76.7983 78.2656 76.0082 78.3113C75.8145 78.3224 75.6196 78.3139 75.4253 78.3139C54.4643 78.3139 33.5034 78.3139 12.5424 78.3137C12.3204 78.3137 12.0963 78.3293 11.8765 78.3061C11.1592 78.2307 10.6751 77.6707 10.6889 76.9519C10.702 76.2708 11.1743 75.7364 11.8531 75.6605C12.1001 75.633 12.3524 75.6508 12.6022 75.6508C17.8494 75.6505 23.0965 75.6505 28.3439 75.6505C28.6442 75.651 28.9446 75.651 29.3081 75.651ZM75.792 43.6693C67.7835 34.0621 59.9108 24.6175 52.0039 15.1322C48.4338 19.4177 44.9492 23.601 41.3489 27.923C42.2983 28.127 43.0405 28.3551 43.7985 28.4374C46.8228 28.7653 49.5498 28.2396 51.5135 25.6205C52.0375 24.9216 52.8787 24.7955 53.4838 25.2629C54.0794 25.7228 54.1793 26.4864 53.6974 27.1928C52.7183 28.6287 51.414 29.6813 49.8108 30.3443C46.6817 31.6383 43.5309 31.4879 40.4029 30.365C39.7399 30.127 39.3882 30.2382 38.9479 30.7739C36.0415 34.3117 33.0962 37.8172 30.1647 41.3343C29.5549 42.0658 28.9497 42.8012 28.2304 43.6702C30.0622 43.6702 31.6921 43.6566 33.3216 43.6758C34.1568 43.6856 34.6903 44.2496 34.6741 45.0325C34.6587 45.7749 34.1341 46.2949 33.3407 46.3287C32.9102 46.3469 32.4786 46.332 32.0788 46.332C32.0788 56.1787 32.0788 65.902 32.0788 75.6031C36.523 75.6031 40.8984 75.6031 45.3401 75.6031C45.3401 75.2565 45.3401 74.957 45.3401 74.6576C45.3401 69.3564 45.3395 64.0552 45.3406 58.7542C45.3408 57.3803 45.7326 56.9961 47.1303 56.9956C50.3781 56.9945 53.626 56.9945 56.8739 56.9956C58.2702 56.9961 58.6656 57.3828 58.6658 58.7528C58.6669 64.0819 58.6662 69.4107 58.6662 74.7397C58.6662 75.0313 58.6662 75.323 58.6662 75.6094C63.1665 75.6094 67.5422 75.6094 71.9467 75.6094C71.9467 65.8437 71.9467 56.1202 71.9467 46.3329C71.5703 46.3329 71.2426 46.3329 70.9151 46.3329C60.8106 46.3329 50.7059 46.3329 40.6014 46.3327C40.3515 46.3327 40.0995 46.3505 39.8523 46.3236C39.1385 46.2457 38.6577 45.6766 38.6775 44.958C38.7011 44.1038 39.2596 43.6704 40.3538 43.6702C51.7631 43.6691 63.1723 43.6695 74.5816 43.6695C74.9111 43.6693 75.24 43.6693 75.792 43.6693ZM5.60479 13.7548C6.70611 11.5497 8.55564 11.5339 10.4684 11.6874C10.496 11.6896 10.5247 11.6919 10.5516 11.6872C12.2585 11.3833 13.3947 12.0118 13.8773 13.7163C14.0317 14.2616 14.4037 14.3724 14.9473 14.3666C17.6956 14.3372 20.4447 14.3811 23.1926 14.337C24.0935 14.3226 24.6199 14.6612 25.0304 15.4461C26.0107 17.3206 27.5349 18.5963 29.5516 19.2624C29.7407 19.325 29.9509 19.3243 30.2086 19.3612C30.1807 18.9685 30.1723 18.6664 30.1362 18.3676C29.8695 16.1585 30.3883 14.1397 31.5662 12.2652C31.7778 11.9286 31.9364 11.5372 32.0261 11.1494C32.332 9.82832 33.5049 8.94504 34.9093 9.02536C36.0882 9.09277 37.1871 10.1187 37.3306 11.2858C37.4997 12.6621 36.6863 13.9666 35.366 14.2607C34.7967 14.3875 34.1757 14.2818 33.5376 14.2818C32.6459 15.9283 32.6479 17.6761 33.0889 19.5025C33.3007 19.5025 33.4675 19.5277 33.6246 19.4987C37.291 18.8277 40.1609 15.1965 39.9969 11.4434C39.8374 7.7959 37.3482 4.77163 33.8004 3.91505C30.3378 3.07894 26.7713 4.69042 25.025 7.93762C24.6041 8.72055 24.075 9.04027 23.1802 9.03559C17.4333 9.00578 11.6849 9.07898 5.93964 8.97775C4.56622 8.9535 3.90722 9.64565 3.17278 10.522C3.95238 11.559 4.6986 12.5507 5.60479 13.7548ZM48.0623 59.6964C48.0623 65.0421 48.0623 70.3233 48.0623 75.5847C50.7386 75.5847 53.3564 75.5847 55.9601 75.5847C55.9601 70.257 55.9601 64.9956 55.9601 59.6964C53.3192 59.6964 50.7212 59.6964 48.0623 59.6964Z" fill="#43C5FF"/>
<path d="M8.01844 76.9858C8.01666 77.7611 7.42106 78.3358 6.64258 78.3131C5.90214 78.2918 5.35615 77.7247 5.35793 76.9789C5.35971 76.2002 5.9502 75.6306 6.73224 75.6531C7.47379 75.6742 8.02022 76.2402 8.01844 76.9858Z" fill="#43C5FF"/>
</g>
<defs>
<clipPath id="clip0_51_640">
<rect width="80" height="80" fill="white"/>
</clipPath>
</defs>
</svg>
