<svg width="14" height="14" viewBox="0 0 14 14" fill="none" xmlns="http://www.w3.org/2000/svg">
<path d="M11.9767 14C8.65907 14 5.34148 14 2.0239 14C2.00845 13.9918 1.9938 13.979 1.9774 13.9761C0.806815 13.7703 0.000951903 12.8159 0.000769267 11.6332C0.00047705 9.95221 0.00212077 8.27119 2.19624e-06 6.59021C-0.000874457 5.88941 0.260697 5.30729 0.776972 4.83829C2.31126 3.44449 3.84657 2.05183 5.38174 0.659017C6.35417 -0.223242 7.658 -0.217911 8.62736 0.664493C10.1636 2.06289 11.7027 3.45815 13.2423 4.85282C13.5538 5.13497 13.7742 5.47246 13.8961 5.87374C13.9352 6.00255 13.9656 6.13399 14 6.26422C14 8.13209 14 9.99997 14 11.8678C13.9903 11.9016 13.9777 11.9349 13.9713 11.9693C13.8048 12.8583 13.3427 13.517 12.4842 13.8588C12.322 13.9235 12.1462 13.9538 11.9767 14ZM6.97147 12.657C8.47493 12.657 9.97858 12.6451 11.4819 12.6623C12.168 12.6701 12.5389 12.1637 12.5324 11.6217C12.5127 9.98226 12.5237 8.34242 12.5265 6.70273C12.5271 6.34297 12.3904 6.04472 12.1313 5.80872C10.6329 4.4438 9.13063 3.08305 7.62864 1.72204C7.22337 1.35482 6.69803 1.36355 6.29068 1.73299C4.74215 3.13752 3.19095 4.53913 1.64584 5.94738C1.55708 6.02829 1.49119 6.15173 1.4547 6.26794C1.41331 6.39967 1.4036 6.54552 1.4033 6.68528C1.40009 8.34319 1.40056 10.0011 1.40287 11.659C1.40301 11.7624 1.41408 11.8693 1.44169 11.9686C1.56117 12.3985 1.9202 12.6563 2.39272 12.6566C3.91897 12.6575 5.44522 12.657 6.97147 12.657Z" fill="#409EFF"/>
</svg>
