<svg width="80" height="80" viewBox="0 0 80 80" fill="none" xmlns="http://www.w3.org/2000/svg">
<path fill-rule="evenodd" clip-rule="evenodd" d="M40 10.0645C23.467 10.0645 10.0645 23.467 10.0645 40C10.0645 40.8913 10.1044 41.7735 10.1817 42.6452L29.5055 23.3214C29.9086 22.9183 30.5622 22.9183 30.9653 23.3214L57.7945 50.1506C58.1977 50.5538 58.1977 51.2074 57.7945 51.6105L53.6097 55.7953C53.2066 56.1984 52.553 56.1984 52.1499 55.7953L30.2354 33.8808L12.4379 51.6784C16.9902 62.409 27.614 69.9355 40 69.9355C52.8419 69.9355 63.791 61.8454 68.0408 50.4831L51.4385 33.8808L47.4256 37.8937C47.0225 38.2968 46.3689 38.2968 45.9658 37.8937L41.781 33.7089C41.3779 33.3058 41.3779 32.6522 41.781 32.2491L50.7086 23.3214C51.1117 22.9183 51.7653 22.9183 52.1685 23.3214L69.9156 41.0686C69.9287 40.7138 69.9355 40.3576 69.9355 40C69.9355 23.467 56.533 10.0645 40 10.0645ZM8 40C8 22.3268 22.3268 8 40 8C57.6732 8 72 22.3268 72 40C72 41.1869 71.9307 42.3554 71.8053 43.504C71.7622 43.8988 71.4964 44.2339 71.1218 44.3657C70.7471 44.4975 70.3301 44.4027 70.0492 44.1219L51.4385 25.5112L43.9707 32.979L46.6957 35.704L50.7086 31.6911C51.1117 31.288 51.7653 31.288 52.1685 31.6911L69.9646 49.4872C70.2449 49.7675 70.3399 50.1835 70.2091 50.5577C65.8468 63.0394 53.9748 72 40 72C26.4996 72 14.9636 63.6364 10.2626 51.8161C10.1103 51.4331 10.2004 50.9962 10.4918 50.7047L29.5055 31.6911C29.9086 31.288 30.5622 31.288 30.9653 31.6911L52.8798 53.6056L55.6048 50.8806L30.2354 25.5112L10.1466 45.5999C9.87212 45.8744 9.46683 45.9717 9.09764 45.8517C8.72846 45.7317 8.4578 45.4148 8.39713 45.0314C8.13783 43.3926 8 41.7127 8 40Z" fill="#43C5FF"/>
</svg>
