<svg width="16" height="16" viewBox="0 0 16 16" fill="none" xmlns="http://www.w3.org/2000/svg">
<g clip-path="url(#clip0_77_1088)">
<path d="M8.9177 3.9124e-05C9.16739 0.0408455 9.41849 0.074453 9.6665 0.12371C10.7812 0.345113 11.7679 0.832403 12.6218 1.58041C13.7222 2.54431 14.4216 3.7471 14.7077 5.18155C14.9829 6.56114 14.7971 7.88701 14.2132 9.16421C13.6503 10.3956 12.8694 11.4814 12.0031 12.5111C10.9377 13.7776 9.75465 14.924 8.46484 15.9606C8.45287 15.9703 8.43914 15.9777 8.4051 16C8.0711 15.7142 7.72767 15.4295 7.39433 15.1334C6.04334 13.9336 4.81704 12.6191 3.77196 11.1423C3.07801 10.1617 2.49018 9.1229 2.19577 7.94691C1.83191 6.49349 1.97894 5.08143 2.60606 3.72179C3.19633 2.44212 4.12106 1.46649 5.34838 0.785454C6.10907 0.363345 6.9277 0.102427 7.80032 0.0294213C7.84011 0.0260957 7.87884 0.010094 7.91805 0C8.25127 3.9124e-05 8.58449 3.9124e-05 8.9177 3.9124e-05ZM8.41296 14.3577C8.458 14.3216 8.49524 14.2947 8.52924 14.2641C9.39322 13.4873 10.2216 12.6747 10.9743 11.7885C11.8288 10.7827 12.5989 9.72157 13.1306 8.50196C13.6873 7.22507 13.7169 5.93367 13.2477 4.63181C12.8633 3.56522 12.1827 2.71904 11.2356 2.10045C10.1584 1.397 8.97326 1.13827 7.69653 1.31081C6.8946 1.41918 6.15684 1.70346 5.49795 2.16861C4.31281 3.00527 3.58158 4.14038 3.33905 5.57576C3.23087 6.21591 3.22485 6.85785 3.37469 7.49628C3.60138 8.46213 4.06069 9.32024 4.60377 10.1366C5.55812 11.5711 6.73216 12.8141 7.99258 13.9799C8.12928 14.1064 8.26954 14.229 8.41296 14.3577Z" fill="#43C5FF"/>
<path d="M8.41053 9.37461C6.76106 9.36742 5.44411 8.0408 5.44966 6.39203C5.45522 4.75039 6.79377 3.4278 8.44077 3.43657C10.0736 3.44525 11.3921 4.78196 11.386 6.42232C11.3799 8.05903 10.0468 9.38177 8.41053 9.37461ZM8.41644 8.12233C9.35921 8.12265 10.1374 7.34533 10.1359 6.40471C10.1345 5.46605 9.34626 4.68196 8.41151 4.68936C7.47414 4.69679 6.70351 5.46777 6.69983 6.40185C6.69612 7.34181 7.47457 8.12202 8.41644 8.12233Z" fill="#43C5FF"/>
</g>
<defs>
<clipPath id="clip0_77_1088">
<rect width="16" height="16" fill="white"/>
</clipPath>
</defs>
</svg>
