<svg width="16" height="17" viewBox="0 0 16 17" fill="none" xmlns="http://www.w3.org/2000/svg">
<g clip-path="url(#clip0_77_1082)">
<path d="M6.26631 7.59379C6.94427 8.68156 7.80974 9.54451 8.89343 10.2185C8.93712 10.1513 8.97485 10.097 9.00891 10.0404C9.2376 9.66095 9.46208 9.27886 9.69474 8.90178C9.91878 8.53862 10.3062 8.40385 10.702 8.56071C12.03 9.08694 13.3564 9.61698 14.6811 10.1511C15.0296 10.2917 15.202 10.5596 15.2012 10.9397C15.199 12.0081 15.2027 13.0765 15.1999 14.1449C15.1963 15.4971 14.0026 16.5954 12.6553 16.4934C9.08265 16.2231 6.05683 14.791 3.60463 12.19C1.79106 10.2664 0.649334 7.9852 0.182712 5.3826C0.0698935 4.75375 -0.0105189 4.10722 0.0011191 3.4708C0.0198803 2.44494 0.902911 1.51533 1.92565 1.34374C2.07278 1.31905 2.22357 1.30543 2.37271 1.30493C3.42419 1.30167 4.47572 1.30288 5.5272 1.30333C5.93974 1.30348 6.19809 1.47101 6.35244 1.8545C6.87821 3.16083 7.40191 4.46797 7.92216 5.77646C8.0883 6.1943 7.95723 6.57379 7.57232 6.80898C7.14653 7.06932 6.71688 7.32344 6.26631 7.59379ZM6.18449 5.76519C5.81178 4.83453 5.44784 3.92085 5.07562 3.01058C5.05611 2.96285 4.96672 2.91577 4.90953 2.91537C4.06458 2.90941 3.21957 2.90841 2.37461 2.91267C1.90453 2.91502 1.56156 3.28194 1.59607 3.75172C1.62115 4.09344 1.65602 4.43561 1.70929 4.77398C2.09721 7.23665 3.14302 9.38439 4.86965 11.1835C7.01289 13.4167 9.64277 14.6481 12.7349 14.8837C13.2186 14.9206 13.5861 14.5795 13.5883 14.1001C13.5923 13.2629 13.5872 12.4256 13.5925 11.5883C13.5932 11.4754 13.5531 11.4262 13.4522 11.3867C12.7552 11.1136 12.0605 10.8347 11.3651 10.5576C11.1541 10.4735 10.9431 10.3894 10.7454 10.3107C10.7185 10.3333 10.7122 10.3364 10.7092 10.3415C10.4484 10.7746 10.1887 11.2084 9.92695 11.6409C9.64413 12.1083 9.22822 12.2263 8.74329 11.9764C6.88508 11.0191 5.47297 9.61573 4.51444 7.75922C4.25766 7.26189 4.37223 6.85135 4.85004 6.56407C5.28857 6.30048 5.7281 6.03834 6.18449 5.76519Z" fill="#43C5FF"/>
<path d="M10.6369 0.500061C13.2393 0.63123 15.3654 2.44516 15.896 5.0122C15.9687 5.36384 15.9902 5.7296 15.9997 6.08981C16.0116 6.54186 15.6802 6.87762 15.24 6.90257C14.8057 6.92716 14.4334 6.61964 14.4062 6.16819C14.3709 5.58486 14.3022 5.0122 14.0462 4.47981C13.355 3.04256 12.2158 2.24873 10.619 2.11977C10.5254 2.11221 10.4313 2.1113 10.3381 2.10144C9.87608 2.05251 9.56265 1.69681 9.5915 1.25653C9.62069 0.810279 9.96728 0.497907 10.4306 0.500011C10.4994 0.500311 10.5682 0.500061 10.6369 0.500061Z" fill="#43C5FF"/>
<path d="M10.4732 3.7033C11.7677 3.71296 12.879 4.8986 12.7955 6.18089C12.7698 6.5764 12.4134 6.90129 12.0013 6.90495C11.5778 6.90871 11.2311 6.58932 11.1881 6.156C11.131 5.58104 10.9114 5.35942 10.349 5.30948C9.89896 5.26952 9.57274 4.9041 9.58955 4.46903C9.6062 4.03711 9.98735 3.65537 10.4732 3.7033Z" fill="#43C5FF"/>
</g>
<defs>
<clipPath id="clip0_77_1082">
<rect width="16" height="16" fill="white" transform="translate(0 0.5)"/>
</clipPath>
</defs>
</svg>
