<svg width="16" height="17" viewBox="0 0 16 17" fill="none" xmlns="http://www.w3.org/2000/svg">
<path d="M2.98998 14.2274C2.35503 13.6102 1.75214 13.0243 1.14951 12.4381C0.949759 12.2439 0.747719 12.0519 0.551628 11.854C-0.179586 11.1164 -0.187474 9.935 0.549602 9.20122C2.94938 6.81213 5.35295 4.4268 7.75979 2.04473C8.49695 1.31518 9.67139 1.32018 10.4326 2.04922C10.8892 2.48654 11.3321 2.93798 11.7808 3.38329C12.8154 4.40982 13.8489 5.43729 14.8847 6.46258C15.2065 6.78112 15.4199 7.15175 15.4783 7.60443C15.5603 8.24141 15.3607 8.78139 14.9088 9.23278C13.2978 10.8421 11.6858 12.4504 10.0736 14.0585C10.0281 14.1038 9.97684 14.1433 9.92826 14.1855C9.93218 14.1995 9.93606 14.2134 9.93998 14.2274C9.994 14.2274 10.0481 14.2274 10.1021 14.2274C11.85 14.2274 13.5979 14.2263 15.3458 14.2282C15.8127 14.2288 16.1243 14.674 15.9519 15.0932C15.8488 15.3441 15.6479 15.471 15.3795 15.4965C15.3369 15.5006 15.2936 15.4992 15.2506 15.4992C10.6629 15.4993 6.07519 15.4991 1.48751 15.5C1.264 15.5 1.05752 15.4601 0.904195 15.2839C0.731554 15.0854 0.682758 14.8602 0.789834 14.6152C0.89566 14.3732 1.08641 14.2344 1.35254 14.2301C1.84719 14.222 2.34209 14.2275 2.83691 14.2274C2.87351 14.2274 2.91006 14.2274 2.98998 14.2274ZM1.55816 11.0424C1.59817 11.0887 1.62239 11.1215 1.65123 11.1496C2.68005 12.1509 3.7084 13.1527 4.74135 14.1497C4.79075 14.1974 4.88175 14.2239 4.95352 14.2242C5.94825 14.229 6.94301 14.2256 7.93774 14.23C8.05455 14.2305 8.13551 14.1976 8.2181 14.115C10.1268 12.2057 12.0383 10.2992 13.9492 8.39219C14.3175 8.02464 14.3175 7.69699 13.948 7.3302C12.549 5.94138 11.1498 4.55277 9.7504 3.16429C9.70997 3.12417 9.66691 3.08657 9.60923 3.03315C9.52896 3.43561 9.45245 3.81531 9.37762 4.19531C9.04557 5.88175 8.71507 7.56845 8.38143 9.2546C8.31138 9.60872 8.1421 9.76848 7.78846 9.83619C7.5359 9.88453 7.28334 9.9329 7.03091 9.98167C5.67383 10.2438 4.31671 10.5059 2.95972 10.7685C2.49909 10.8576 2.03871 10.9484 1.55816 11.0424ZM8.2209 3.43813C6.12395 5.51925 4.02471 7.60263 1.93444 9.67712C1.91569 9.67245 1.92125 9.6757 1.92603 9.67476C3.64193 9.34421 5.35769 9.01331 7.07358 8.68284C7.1585 8.6665 7.20527 8.63639 7.22501 8.53429C7.5071 7.07626 7.79712 5.61976 8.08438 4.16272C8.13314 3.91561 8.17775 3.66774 8.2209 3.43813Z" fill="#43C5FF"/>
</svg>
