<svg width="30" height="30" viewBox="0 0 30 30" fill="none" xmlns="http://www.w3.org/2000/svg">
<g clip-path="url(#clip0_77_1097)">
<path d="M15 29.5C6.99187 29.5 0.5 23.0082 0.5 15C0.5 6.99187 6.99187 0.5 15 0.5C23.0082 0.5 29.5 6.99187 29.5 15C29.5 23.0082 23.0082 29.5 15 29.5Z" stroke="white"/>
<g clip-path="url(#clip1_77_1097)">
<path d="M14.8154 11.6311C12.9521 11.6311 11.4492 13.134 11.4492 14.9973C11.4492 16.8606 12.9521 18.3635 14.8154 18.3635C16.6787 18.3635 18.1816 16.8606 18.1816 14.9973C18.1816 13.134 16.6787 11.6311 14.8154 11.6311ZM14.8154 17.1858C13.6113 17.1858 12.627 16.2043 12.627 14.9973C12.627 13.7903 13.6084 12.8088 14.8154 12.8088C16.0225 12.8088 17.0039 13.7903 17.0039 14.9973C17.0039 16.2043 16.0195 17.1858 14.8154 17.1858V17.1858ZM19.1045 11.4934C19.1045 11.9299 18.7529 12.2786 18.3193 12.2786C17.8828 12.2786 17.5342 11.927 17.5342 11.4934C17.5342 11.0598 17.8857 10.7083 18.3193 10.7083C18.7529 10.7083 19.1045 11.0598 19.1045 11.4934ZM21.334 12.2903C21.2842 11.2385 21.0439 10.3069 20.2734 9.53931C19.5059 8.77173 18.5742 8.53149 17.5225 8.47876C16.4385 8.41724 13.1895 8.41724 12.1055 8.47876C11.0566 8.52856 10.125 8.7688 9.35449 9.53638C8.58398 10.304 8.34668 11.2356 8.29395 12.2874C8.23242 13.3713 8.23242 16.6204 8.29395 17.7043C8.34375 18.7561 8.58398 19.6877 9.35449 20.4553C10.125 21.2229 11.0537 21.4631 12.1055 21.5159C13.1895 21.5774 16.4385 21.5774 17.5225 21.5159C18.5742 21.4661 19.5059 21.2258 20.2734 20.4553C21.041 19.6877 21.2813 18.7561 21.334 17.7043C21.3955 16.6204 21.3955 13.3743 21.334 12.2903V12.2903ZM19.9336 18.8674C19.7051 19.4417 19.2627 19.884 18.6855 20.1155C17.8213 20.4583 15.7705 20.3792 14.8154 20.3792C13.8604 20.3792 11.8066 20.4553 10.9453 20.1155C10.3711 19.887 9.92871 19.4446 9.69727 18.8674C9.35449 18.0032 9.43359 15.9524 9.43359 14.9973C9.43359 14.0422 9.35742 11.9885 9.69727 11.1272C9.92578 10.553 10.3682 10.1106 10.9453 9.87915C11.8096 9.53638 13.8604 9.61548 14.8154 9.61548C15.7705 9.61548 17.8242 9.53931 18.6855 9.87915C19.2598 10.1077 19.7021 10.55 19.9336 11.1272C20.2764 11.9915 20.1973 14.0422 20.1973 14.9973C20.1973 15.9524 20.2764 18.0061 19.9336 18.8674Z" fill="white"/>
</g>
</g>
<defs>
<clipPath id="clip0_77_1097">
<rect width="30" height="30" fill="white"/>
</clipPath>
<clipPath id="clip1_77_1097">
<rect width="13.125" height="15" fill="white" transform="translate(8.25 7.5)"/>
</clipPath>
</defs>
</svg>
