<svg width="163" height="35" viewBox="0 0 163 35" fill="none" xmlns="http://www.w3.org/2000/svg">
<path d="M67.028 11.214C68.5533 11.214 69.7633 11.676 70.658 12.6C71.5673 13.524 72.022 14.8073 72.022 16.45V23.622H68.282V16.956C68.282 16.164 68.0693 15.5553 67.644 15.13C67.2333 14.69 66.6613 14.47 65.928 14.47C65.1947 14.47 64.6153 14.69 64.19 15.13C63.7793 15.5553 63.574 16.164 63.574 16.956V23.622H59.834V16.956C59.834 16.164 59.6213 15.5553 59.196 15.13C58.7853 14.69 58.2133 14.47 57.48 14.47C56.7467 14.47 56.1673 14.69 55.742 15.13C55.3313 15.5553 55.126 16.164 55.126 16.956V23.622H51.364V11.346H55.126V12.886C55.5073 12.3727 56.006 11.9693 56.622 11.676C57.238 11.368 57.9347 11.214 58.712 11.214C59.636 11.214 60.4573 11.412 61.176 11.808C61.9093 12.204 62.4813 12.7687 62.892 13.502C63.3173 12.8273 63.8967 12.2773 64.63 11.852C65.3633 11.4267 66.1627 11.214 67.028 11.214Z" fill="white"/>
<path d="M76.5451 10.07C75.8851 10.07 75.3424 9.87933 74.9171 9.498C74.5064 9.102 74.3011 8.618 74.3011 8.046C74.3011 7.45933 74.5064 6.97533 74.9171 6.594C75.3424 6.198 75.8851 6 76.5451 6C77.1904 6 77.7184 6.198 78.1291 6.594C78.5544 6.97533 78.7671 7.45933 78.7671 8.046C78.7671 8.618 78.5544 9.102 78.1291 9.498C77.7184 9.87933 77.1904 10.07 76.5451 10.07ZM78.4151 11.346V23.622H74.6531V11.346H78.4151Z" fill="white"/>
<path d="M84.9034 13.084C85.2554 12.512 85.7614 12.05 86.4214 11.698C87.0814 11.346 87.8367 11.17 88.6874 11.17C89.6994 11.17 90.616 11.4267 91.4374 11.94C92.2587 12.4533 92.904 13.1867 93.3734 14.14C93.8574 15.0933 94.0994 16.2007 94.0994 17.462C94.0994 18.7233 93.8574 19.838 93.3734 20.806C92.904 21.7593 92.2587 22.5 91.4374 23.028C90.616 23.5413 89.6994 23.798 88.6874 23.798C87.822 23.798 87.0667 23.6293 86.4214 23.292C85.776 22.94 85.27 22.478 84.9034 21.906V23.622H81.1414V7.342H84.9034V13.084ZM90.2714 17.462C90.2714 16.5233 90.0074 15.79 89.4794 15.262C88.966 14.7193 88.328 14.448 87.5654 14.448C86.8174 14.448 86.1794 14.7193 85.6514 15.262C85.138 15.8047 84.8814 16.5453 84.8814 17.484C84.8814 18.4227 85.138 19.1633 85.6514 19.706C86.1794 20.2487 86.8174 20.52 87.5654 20.52C88.3134 20.52 88.9514 20.2487 89.4794 19.706C90.0074 19.1487 90.2714 18.4007 90.2714 17.462Z" fill="white"/>
<path d="M100.737 11.17C101.602 11.17 102.358 11.346 103.003 11.698C103.663 12.05 104.169 12.512 104.521 13.084V11.346H108.283V23.6C108.283 24.7293 108.056 25.7487 107.601 26.658C107.161 27.582 106.479 28.3153 105.555 28.858C104.646 29.4007 103.509 29.672 102.145 29.672C100.326 29.672 98.8523 29.2393 97.723 28.374C96.5937 27.5233 95.9483 26.3647 95.787 24.898H99.505C99.6223 25.3673 99.901 25.734 100.341 25.998C100.781 26.2767 101.324 26.416 101.969 26.416C102.746 26.416 103.362 26.1887 103.817 25.734C104.286 25.294 104.521 24.5827 104.521 23.6V21.862C104.154 22.434 103.648 22.9033 103.003 23.27C102.358 23.622 101.602 23.798 100.737 23.798C99.725 23.798 98.8083 23.5413 97.987 23.028C97.1657 22.5 96.513 21.7593 96.029 20.806C95.5597 19.838 95.325 18.7233 95.325 17.462C95.325 16.2007 95.5597 15.0933 96.029 14.14C96.513 13.1867 97.1657 12.4533 97.987 11.94C98.8083 11.4267 99.725 11.17 100.737 11.17ZM104.521 17.484C104.521 16.5453 104.257 15.8047 103.729 15.262C103.216 14.7193 102.585 14.448 101.837 14.448C101.089 14.448 100.451 14.7193 99.923 15.262C99.4097 15.79 99.153 16.5233 99.153 17.462C99.153 18.4007 99.4097 19.1487 99.923 19.706C100.451 20.2487 101.089 20.52 101.837 20.52C102.585 20.52 103.216 20.2487 103.729 19.706C104.257 19.1633 104.521 18.4227 104.521 17.484Z" fill="white"/>
<path d="M114.767 13.392C115.207 12.7173 115.757 12.1893 116.417 11.808C117.077 11.412 117.81 11.214 118.617 11.214V15.196H117.583C116.644 15.196 115.94 15.4013 115.471 15.812C115.001 16.208 114.767 16.912 114.767 17.924V23.622H111.005V11.346H114.767V13.392Z" fill="white"/>
<path d="M126.003 23.798C124.8 23.798 123.715 23.5413 122.747 23.028C121.793 22.5147 121.038 21.7813 120.481 20.828C119.938 19.8747 119.667 18.76 119.667 17.484C119.667 16.2227 119.945 15.1153 120.503 14.162C121.06 13.194 121.823 12.4533 122.791 11.94C123.759 11.4267 124.844 11.17 126.047 11.17C127.249 11.17 128.335 11.4267 129.303 11.94C130.271 12.4533 131.033 13.194 131.591 14.162C132.148 15.1153 132.427 16.2227 132.427 17.484C132.427 18.7453 132.141 19.86 131.569 20.828C131.011 21.7813 130.241 22.5147 129.259 23.028C128.291 23.5413 127.205 23.798 126.003 23.798ZM126.003 20.542C126.721 20.542 127.33 20.278 127.829 19.75C128.342 19.222 128.599 18.4667 128.599 17.484C128.599 16.5013 128.349 15.746 127.851 15.218C127.367 14.69 126.765 14.426 126.047 14.426C125.313 14.426 124.705 14.69 124.221 15.218C123.737 15.7313 123.495 16.4867 123.495 17.484C123.495 18.4667 123.729 19.222 124.199 19.75C124.683 20.278 125.284 20.542 126.003 20.542Z" fill="white"/>
<path d="M146.545 11.346V23.622H142.783V21.95C142.401 22.4927 141.881 22.9327 141.221 23.27C140.575 23.5927 139.857 23.754 139.065 23.754C138.126 23.754 137.297 23.5487 136.579 23.138C135.86 22.7127 135.303 22.104 134.907 21.312C134.511 20.52 134.313 19.5887 134.313 18.518V11.346H138.053V18.012C138.053 18.8333 138.265 19.4713 138.691 19.926C139.116 20.3807 139.688 20.608 140.407 20.608C141.14 20.608 141.719 20.3807 142.145 19.926C142.57 19.4713 142.783 18.8333 142.783 18.012V11.346H146.545Z" fill="white"/>
<path d="M153.009 13.084C153.375 12.512 153.881 12.05 154.527 11.698C155.172 11.346 155.927 11.17 156.793 11.17C157.805 11.17 158.721 11.4267 159.543 11.94C160.364 12.4533 161.009 13.1867 161.479 14.14C161.963 15.0933 162.205 16.2007 162.205 17.462C162.205 18.7233 161.963 19.838 161.479 20.806C161.009 21.7593 160.364 22.5 159.543 23.028C158.721 23.5413 157.805 23.798 156.793 23.798C155.942 23.798 155.187 23.622 154.527 23.27C153.881 22.918 153.375 22.4633 153.009 21.906V29.474H149.247V11.346H153.009V13.084ZM158.377 17.462C158.377 16.5233 158.113 15.79 157.585 15.262C157.071 14.7193 156.433 14.448 155.671 14.448C154.923 14.448 154.285 14.7193 153.757 15.262C153.243 15.8047 152.987 16.5453 152.987 17.484C152.987 18.4227 153.243 19.1633 153.757 19.706C154.285 20.2487 154.923 20.52 155.671 20.52C156.419 20.52 157.057 20.2487 157.585 19.706C158.113 19.1487 158.377 18.4007 158.377 17.462Z" fill="white"/>
<g clip-path="url(#clip0_81_1117)">
<path fill-rule="evenodd" clip-rule="evenodd" d="M34.8934 19.4168L23.964 8.48734L18.9189 13.5324L21.2838 15.8973L23.964 13.2171L34.0206 23.2737C31.6346 30.1006 25.1413 35 17.5 35C10.1182 35 3.80869 30.4273 1.2373 23.9618L11.982 13.2171L24.7784 26.0135L27.1433 23.6486L11.982 8.48734L0.217252 20.2521C0.0753604 19.3553 0 18.4365 0 17.5C0 7.83495 7.83495 0 17.5 0C27.165 0 35 7.83495 35 17.5C35 18.148 34.9622 18.7871 34.8934 19.4168Z" fill="#43C5FF"/>
</g>
<defs>
<clipPath id="clip0_81_1117">
<rect width="35" height="35" fill="white"/>
</clipPath>
</defs>
</svg>
