<svg width="80" height="80" viewBox="0 0 80 80" fill="none" xmlns="http://www.w3.org/2000/svg">
<g clip-path="url(#clip0_22_128)">
<path d="M80 53.0035C79.6254 53.5184 79.1352 53.791 78.4829 53.7773C76.503 53.7356 74.6217 54.1957 72.7915 54.9136C68.1829 56.7215 63.5741 56.7174 58.9635 54.9136C54.9359 53.3378 50.9045 53.3436 46.8789 54.9196C42.2943 56.7144 37.7104 56.7187 33.1266 54.9284C29.0718 53.3446 25.0224 53.3448 20.967 54.9282C16.3835 56.7179 11.7981 56.7205 7.21556 54.9159C5.36186 54.1859 3.45219 53.7527 1.44545 53.7646C0.556572 53.7699 0.0543982 53.336 0.00390687 52.6512C-0.0534341 51.8725 0.505298 51.3884 1.42412 51.3903C3.60327 51.395 5.71647 51.7538 7.73789 52.5775C11.9858 54.3085 16.2036 54.2499 20.4789 52.5914C25.0087 50.8338 29.5652 50.9813 34.0856 52.7432C38.0074 54.2717 41.9495 54.2764 45.8682 52.7528C50.6129 50.9081 55.3225 50.9263 60.0659 52.7798C63.9001 54.2781 67.785 54.2621 71.6315 52.806C73.7629 51.9992 75.9167 51.4156 78.2162 51.3995C78.9354 51.3944 79.5407 51.478 80 52.0661C80 52.3784 80 52.691 80 53.0035Z" fill="#43C5FF"/>
<path d="M27.0524 56.2557C29.504 56.3197 31.8097 56.8671 34.0601 57.7438C38.0053 59.2805 41.9651 59.2819 45.9117 57.7468C50.5986 55.9236 55.2565 55.9588 59.9694 57.7243C61.4536 58.2802 63.0787 58.4607 64.6401 58.81C64.7917 58.8439 64.9499 58.849 65.1017 58.8816C65.872 59.0474 66.3229 59.5889 66.2225 60.2208C66.1186 60.8759 65.5424 61.3017 64.7827 61.2477C62.9363 61.1164 61.1219 60.8164 59.4054 60.0876C56.5346 58.8689 53.5474 58.447 50.4802 58.9617C49.1118 59.1912 47.7677 59.6419 46.4544 60.1099C42.1233 61.6534 37.7877 61.7405 33.5043 60.0647C29.1789 58.3722 24.9087 58.3004 20.6151 60.0758C18.892 60.7884 17.0862 61.1103 15.24 61.2465C14.4411 61.3054 13.843 60.8559 13.7687 60.1684C13.7023 59.5551 14.1284 58.9331 14.8709 58.9096C17.5277 58.8257 19.884 57.6601 22.3772 56.9857C23.8908 56.5761 25.4911 56.4882 27.0524 56.2557Z" fill="#43C5FF"/>
<path d="M40.0169 29.8319C32.197 29.9442 25.2825 35.6525 23.9491 43.2783C23.7358 44.4979 23.7734 45.7615 23.698 47.005C23.6902 47.1344 23.7135 47.2657 23.7061 47.3953C23.6622 48.1644 23.1912 48.7108 22.5504 48.7427C21.9342 48.7732 21.3255 48.2446 21.3138 47.4882C21.2948 46.268 21.279 45.0292 21.4578 43.8274C22.3465 37.8618 25.3725 33.2716 30.5551 30.1691C33.8313 28.2078 37.3974 27.3686 41.2279 27.6563C47.0237 28.0913 51.6154 30.6901 55.123 35.2807C55.7201 36.0621 55.7168 36.7189 55.1074 37.1987C54.5293 37.6541 53.8191 37.5062 53.2421 36.7314C50.9741 33.6853 48.0439 31.5768 44.3746 30.5924C42.9566 30.2116 41.4716 30.0781 40.0169 29.8319Z" fill="#43C5FF"/>
<path d="M55.6154 48.7607C52.6767 48.7607 49.7381 48.7632 46.7994 48.7595C45.4261 48.7577 44.9991 48.2978 45.1134 46.9676C45.6309 40.9478 52.157 37.7273 57.2711 40.9474C57.5705 41.1361 58.0455 41.1836 58.4056 41.1173C62.357 40.3895 66.0307 43.2696 66.2288 47.2817C66.2767 48.2552 65.7675 48.7526 64.6651 48.7573C62.2466 48.7677 59.8281 48.7607 57.4096 48.7607C56.8116 48.7607 56.2135 48.7607 55.6154 48.7607ZM63.5547 46.2954C63.1423 44.229 60.6765 42.8818 58.5288 43.5836C57.6429 43.873 56.9828 43.7507 56.236 43.1804C54.387 41.7682 52.3485 41.65 50.3125 42.7373C48.9183 43.4818 48.001 44.6623 47.638 46.2954C53.0061 46.2954 58.276 46.2954 63.5547 46.2954Z" fill="#43C5FF"/>
<path d="M15.5044 30.3859C12.5635 30.3859 9.6227 30.3897 6.68188 30.3842C5.27477 30.3816 4.86791 29.9088 5.03895 28.509C5.51275 24.6321 9.09274 22.0396 12.878 22.7978C13.2164 22.8655 13.6667 22.7862 13.9603 22.6052C18.8153 19.6109 24.8844 22.2052 26.0322 27.7868C26.0635 27.9389 26.0745 28.0958 26.0864 28.2512C26.2291 30.1088 25.9704 30.3855 24.0928 30.3857C21.2298 30.3861 18.3671 30.3859 15.5044 30.3859ZM7.67996 27.9635C12.9731 27.9635 18.2616 27.9635 23.5593 27.9635C22.8653 24.4072 18.6957 22.5355 15.549 24.4935C14.363 25.2315 13.4141 25.4744 12.0561 25.1213C10.165 24.6299 7.96627 26.1777 7.67996 27.9635Z" fill="#43C5FF"/>
<path d="M39.9876 66.2714C37.5967 66.2782 35.2885 65.8587 33.0753 64.9402C31.2314 64.175 29.3104 63.793 27.3123 63.7756C26.4109 63.7678 25.8756 63.2975 25.8768 62.5808C25.8782 61.8675 26.4023 61.4285 27.2373 61.417C29.4458 61.3861 31.58 61.7706 33.6235 62.6012C37.8693 64.3267 42.1037 64.3251 46.3501 62.6035C48.3689 61.7851 50.4745 61.3933 52.6578 61.4181C53.5468 61.4283 54.0355 61.7808 54.0768 62.5025C54.1201 63.2599 53.6275 63.7691 52.7394 63.7707C50.5495 63.775 48.4746 64.2746 46.4604 65.1011C44.3887 65.9516 42.2131 66.2594 39.9876 66.2714Z" fill="#43C5FF"/>
<path d="M12.4211 47.5099C11.2504 47.5097 10.0791 47.5301 8.90878 47.5033C7.97939 47.482 7.38778 46.8577 7.51929 46.105C7.63319 45.4529 8.13928 45.1018 9.06221 45.0956C10.9613 45.0824 12.8608 45.0912 14.7599 45.0912C15.1241 45.0912 15.4887 45.0826 15.8525 45.094C16.8537 45.1253 17.3494 45.5279 17.3498 46.2972C17.3502 47.0628 16.8324 47.4955 15.8549 47.5072C14.7108 47.5207 13.5657 47.5101 12.4211 47.5099Z" fill="#43C5FF"/>
<path d="M41.2099 18.8005C41.2101 19.945 41.2273 21.0899 41.2035 22.2339C41.1898 22.8954 40.9962 23.4833 40.2263 23.6267C39.41 23.7788 38.8106 23.2672 38.7979 22.3036C38.7668 19.937 38.7726 17.5695 38.7948 15.2027C38.8026 14.3696 39.3026 13.8232 39.9633 13.8007C40.6524 13.777 41.1817 14.3426 41.2025 15.2111C41.2309 16.4071 41.2097 17.604 41.2099 18.8005Z" fill="#43C5FF"/>
<path d="M57.0752 30.64C55.9894 30.6742 55.3769 29.7309 55.7857 28.9597C55.9045 28.7354 56.0896 28.5389 56.271 28.3565C57.8484 26.7697 59.4293 25.1863 61.0147 23.6076C61.745 22.8803 62.4386 22.7936 62.9748 23.3428C63.4899 23.8704 63.4091 24.5565 62.7212 25.2489C61.126 26.8549 59.5289 28.4588 57.9145 30.045C57.6314 30.3233 57.2599 30.5116 57.0752 30.64Z" fill="#43C5FF"/>
<path d="M72.7009 57.4258C73.0156 57.7282 73.5314 58.0002 73.6271 58.3785C73.7228 58.7572 73.5228 59.4926 73.2357 59.6349C72.2492 60.1242 71.1857 60.5028 70.1111 60.7426C69.797 60.8126 69.1502 60.3545 69.0173 60.0022C68.8854 59.6521 69.0766 58.8736 69.3557 58.7304C70.3593 58.2153 71.4599 57.8894 72.7009 57.4258Z" fill="#43C5FF"/>
<path d="M30.1874 20.8184C30.3514 20.955 30.7827 21.1605 30.9672 21.5C31.3737 22.248 31.6907 23.0512 31.9778 23.8555C32.2195 24.5325 31.9121 25.1573 31.3109 25.4069C30.7191 25.6525 30.094 25.3959 29.783 24.7166C29.438 23.9628 29.1126 23.1962 28.8401 22.4138C28.5585 21.6046 29.1124 20.8307 30.1874 20.8184Z" fill="#43C5FF"/>
<path d="M51.4178 21.9169C50.8902 23.071 50.481 24.1385 49.9056 25.1072C49.7551 25.3607 49.0126 25.4857 48.6799 25.3446C48.3474 25.2037 47.9202 24.58 47.9994 24.2992C48.2983 23.2404 48.7218 22.1999 49.2472 21.2333C49.3878 20.975 50.1066 20.838 50.4686 20.9474C50.8293 21.0564 51.0755 21.5449 51.4178 21.9169Z" fill="#43C5FF"/>
<path d="M15.6365 34.8754C16.7848 35.4085 17.8504 35.8241 18.8164 36.4056C19.0656 36.5555 19.1331 37.2533 19.0493 37.6498C18.9378 38.1769 18.4137 38.4886 17.8943 38.3168C16.8927 37.9855 15.9052 37.5843 14.9638 37.1087C14.4795 36.8641 14.3609 36.2694 14.6294 35.8059C14.8388 35.4449 15.2625 35.2081 15.6365 34.8754Z" fill="#43C5FF"/>
<path d="M65.4647 36.515C65.3139 36.685 65.0816 37.1177 64.7205 37.3166C64.0209 37.7021 63.2584 37.9833 62.5036 38.2567C61.772 38.5215 61.1446 38.2387 60.8916 37.5984C60.6536 36.9964 60.9023 36.4013 61.5986 36.0783C62.3503 35.7298 63.1173 35.4051 63.8997 35.1341C64.7076 34.8542 65.4649 35.4153 65.4647 36.515Z" fill="#43C5FF"/>
<path d="M7.97234 57.6916C8.69488 57.9505 9.63993 58.235 10.5364 58.6298C11.119 58.8863 11.23 59.4717 11.0171 60.0345C10.8006 60.607 10.3071 60.9201 9.70881 60.7582C8.83578 60.5222 7.97391 60.2201 7.14217 59.8641C6.5944 59.6296 6.33176 59.1441 6.51886 58.5186C6.70027 57.9125 7.11692 57.6323 7.97234 57.6916Z" fill="#43C5FF"/>
</g>
<defs>
<clipPath id="clip0_22_128">
<rect width="80" height="80" fill="white"/>
</clipPath>
</defs>
</svg>
