<svg width="16" height="16" viewBox="0 0 16 16" fill="none" xmlns="http://www.w3.org/2000/svg">
<path fill-rule="evenodd" clip-rule="evenodd" d="M0.260345 0.260345C0.607471 -0.0867816 1.17027 -0.0867816 1.5174 0.260345L15.7397 14.4826C16.0868 14.8297 16.0868 15.3925 15.7397 15.7397C15.3925 16.0868 14.8297 16.0868 14.4826 15.7397L0.260345 1.5174C-0.0867816 1.17027 -0.0867816 0.607471 0.260345 0.260345Z" fill="#202020"/>
<path fill-rule="evenodd" clip-rule="evenodd" d="M15.7397 0.260345C16.0868 0.607471 16.0868 1.17027 15.7397 1.5174L1.51741 15.7397C1.17029 16.0868 0.607485 16.0868 0.260359 15.7397C-0.0867674 15.3925 -0.0867671 14.8297 0.260359 14.4826L14.4826 0.260345C14.8297 -0.0867816 15.3925 -0.0867816 15.7397 0.260345Z" fill="#202020"/>
</svg>
