<svg width="40" height="40" viewBox="0 0 40 40" fill="none" xmlns="http://www.w3.org/2000/svg">
<g clip-path="url(#clip0_207_375)">
<path d="M20 39.5C9.23044 39.5 0.5 30.7696 0.5 20C0.5 9.23044 9.23044 0.5 20 0.5C30.7696 0.5 39.5 9.23044 39.5 20C39.5 30.7696 30.7696 39.5 20 39.5Z" stroke="#D9D9D9"/>
<g clip-path="url(#clip1_207_375)">
<path d="M27.3437 11.9492C26.8476 11.4922 24.8398 10.0351 20.3632 10.0156C20.3632 10.0156 15.0859 9.69921 12.5155 12.0586C11.0859 13.4883 10.5819 15.5859 10.5273 18.1836C10.4726 20.7812 10.4062 25.6484 15.0976 26.9687H15.1015L15.0976 28.9844C15.0976 28.9844 15.0663 29.8008 15.6054 29.9648C16.2538 30.168 16.6366 29.5469 17.2577 28.8789C17.5976 28.5117 18.0663 27.9726 18.4218 27.5625C21.6327 27.832 24.0976 27.2148 24.3788 27.125C25.0273 26.9141 28.6952 26.4453 29.289 21.5781C29.9062 16.5547 28.9921 13.3828 27.3437 11.9492ZM27.8866 21.2109C27.3827 25.2734 24.4101 25.5312 23.8632 25.707C23.6288 25.7812 21.4609 26.3203 18.7382 26.1445C18.7382 26.1445 16.7069 28.5937 16.0741 29.2305C15.8671 29.4375 15.6405 29.418 15.6444 29.0078C15.6444 28.7383 15.6601 25.6601 15.6601 25.6601C15.6562 25.6601 15.6562 25.6601 15.6601 25.6601C11.6835 24.5586 11.9179 20.4141 11.9609 18.2461C12.0038 16.0781 12.414 14.3008 13.6249 13.1055C15.8007 11.1328 20.2812 11.4258 20.2812 11.4258C24.0663 11.4414 25.8788 12.582 26.3007 12.9648C27.6952 14.1601 28.4062 17.0195 27.8866 21.2109ZM22.4569 18.0547C22.4726 18.3906 21.9687 18.4141 21.953 18.0781C21.9101 17.2187 21.5077 16.8008 20.6796 16.7539C20.3437 16.7344 20.3749 16.2305 20.7069 16.25C21.7968 16.3086 22.4023 16.9336 22.4569 18.0547ZM23.2499 18.4961C23.289 16.8398 22.2538 15.543 20.289 15.3984C19.9569 15.375 19.9921 14.8711 20.3241 14.8945C22.5898 15.0586 23.7968 16.6172 23.7538 18.5078C23.7499 18.8437 23.2421 18.8281 23.2499 18.4961ZM25.0859 19.0195C25.0898 19.3555 24.5819 19.3594 24.5819 19.0234C24.5585 15.8398 22.4374 14.1055 19.8632 14.0859C19.5312 14.082 19.5312 13.582 19.8632 13.582C22.7421 13.6016 25.0585 15.5898 25.0859 19.0195ZM24.6444 22.8516V22.8594C24.2226 23.6016 23.4335 24.4219 22.621 24.1601L22.6132 24.1484C21.789 23.918 19.8476 22.918 18.621 21.9414C17.9882 21.4414 17.4101 20.8516 16.9648 20.2851C16.5624 19.7812 16.1562 19.1836 15.7616 18.4648C14.9296 16.9609 14.746 16.2891 14.746 16.2891C14.4843 15.4766 15.3007 14.6875 16.0468 14.2656H16.0546C16.414 14.0781 16.7577 14.1406 16.9882 14.418C16.9882 14.418 17.4726 14.9961 17.6796 15.2812C17.8749 15.5469 18.1366 15.9726 18.2734 16.2109C18.5116 16.6367 18.3632 17.0703 18.1288 17.25L17.6601 17.625C17.4218 17.8164 17.453 18.1719 17.453 18.1719C17.453 18.1719 18.1484 20.8008 20.746 21.4648C20.746 21.4648 21.1015 21.4961 21.2929 21.2578L21.6679 20.7891C21.8476 20.5547 22.2812 20.4062 22.7069 20.6445C23.2812 20.9687 24.0116 21.4726 24.496 21.9297C24.7694 22.1523 24.8319 22.4922 24.6444 22.8516Z" fill="#BEBEBE"/>
</g>
</g>
<defs>
<clipPath id="clip0_207_375">
<rect width="40" height="40" fill="white"/>
</clipPath>
<clipPath id="clip1_207_375">
<rect width="20" height="20" fill="white" transform="translate(10 10)"/>
</clipPath>
</defs>
</svg>
