<svg width="40" height="40" viewBox="0 0 40 40" fill="none" xmlns="http://www.w3.org/2000/svg">
<g clip-path="url(#clip0_207_379)">
<path d="M20 39.5C9.23044 39.5 0.5 30.7696 0.5 20C0.5 9.23044 9.23044 0.5 20 0.5C30.7696 0.5 39.5 9.23044 39.5 20C39.5 30.7696 30.7696 39.5 20 39.5Z" stroke="#D9D9D9"/>
<g clip-path="url(#clip1_207_379)">
<path d="M25.8789 13.793C24.2422 12.1523 22.0625 11.25 19.7461 11.25C14.9648 11.25 11.0742 15.1406 11.0742 19.9219C11.0742 21.4492 11.4727 22.9414 12.2305 24.2578L11 28.75L15.5977 27.543C16.8633 28.2344 18.2891 28.5977 19.7422 28.5977H19.7461C24.5234 28.5977 28.5 24.707 28.5 19.9258C28.5 17.6094 27.5156 15.4336 25.8789 13.793ZM19.7461 27.1367C18.4492 27.1367 17.1797 26.7891 16.0742 26.1328L15.8125 25.9766L13.0859 26.6914L13.8125 24.0312L13.6406 23.7578C12.918 22.6094 12.5391 21.2852 12.5391 19.9219C12.5391 15.9492 15.7734 12.7148 19.75 12.7148C21.6758 12.7148 23.4844 13.4648 24.8438 14.8281C26.2031 16.1914 27.0391 18 27.0352 19.9258C27.0352 23.9023 23.7188 27.1367 19.7461 27.1367ZM23.6992 21.7383C23.4844 21.6289 22.418 21.1055 22.2188 21.0352C22.0195 20.9609 21.875 20.9258 21.7305 21.1445C21.5859 21.3633 21.1719 21.8477 21.043 21.9961C20.918 22.1406 20.7891 22.1602 20.5742 22.0508C19.3008 21.4141 18.4648 20.9141 17.625 19.4727C17.4023 19.0898 17.8477 19.1172 18.2617 18.2891C18.332 18.1445 18.2969 18.0195 18.2422 17.9102C18.1875 17.8008 17.7539 16.7344 17.5742 16.3008C17.3984 15.8789 17.2188 15.9375 17.0859 15.9297C16.9609 15.9219 16.8164 15.9219 16.6719 15.9219C16.5273 15.9219 16.293 15.9766 16.0938 16.1914C15.8945 16.4102 15.3359 16.9336 15.3359 18C15.3359 19.0664 16.1133 20.0977 16.2188 20.2422C16.3281 20.3867 17.7461 22.5742 19.9219 23.5156C21.2969 24.1094 21.8359 24.1602 22.5234 24.0586C22.9414 23.9961 23.8047 23.5352 23.9844 23.0273C24.1641 22.5195 24.1641 22.0859 24.1094 21.9961C24.0586 21.8984 23.9141 21.8438 23.6992 21.7383Z" fill="#BEBEBE"/>
</g>
</g>
<defs>
<clipPath id="clip0_207_379">
<rect width="40" height="40" fill="white"/>
</clipPath>
<clipPath id="clip1_207_379">
<rect width="17.5" height="20" fill="white" transform="translate(11 10)"/>
</clipPath>
</defs>
</svg>
