<svg width="16" height="17" viewBox="0 0 16 17" fill="none" xmlns="http://www.w3.org/2000/svg">
<g clip-path="url(#clip0_74_993)">
<path d="M6.26629 7.59379C6.94426 8.68156 7.80973 9.54451 8.89341 10.2185C8.93711 10.1513 8.97483 10.097 9.00889 10.0404C9.23759 9.66095 9.46207 9.27886 9.69473 8.90178C9.91876 8.53862 10.3062 8.40385 10.702 8.56071C12.0299 9.08694 13.3564 9.61698 14.6811 10.1511C15.0296 10.2917 15.202 10.5596 15.2012 10.9397C15.199 12.0081 15.2026 13.0765 15.1998 14.1449C15.1963 15.4971 14.0026 16.5954 12.6553 16.4934C9.08263 16.2231 6.05681 14.791 3.60461 12.19C1.79104 10.2664 0.649319 7.9852 0.182696 5.3826C0.0698782 4.75375 -0.0105341 4.10722 0.00110384 3.4708C0.019865 2.44494 0.902896 1.51533 1.92563 1.34374C2.07276 1.31905 2.22355 1.30543 2.37269 1.30493C3.42417 1.30167 4.4757 1.30288 5.52718 1.30333C5.93973 1.30348 6.19807 1.47101 6.35243 1.8545C6.87819 3.16083 7.4019 4.46797 7.92215 5.77646C8.08829 6.1943 7.95721 6.57379 7.5723 6.80898C7.14652 7.06932 6.71686 7.32344 6.26629 7.59379ZM6.18448 5.76519C5.81176 4.83453 5.44782 3.92085 5.07561 3.01058C5.0561 2.96285 4.9667 2.91577 4.90952 2.91537C4.06456 2.90941 3.21955 2.90841 2.3746 2.91267C1.90451 2.91502 1.56154 3.28194 1.59606 3.75172C1.62114 4.09344 1.656 4.43561 1.70928 4.77398C2.09719 7.23665 3.143 9.38439 4.86964 11.1835C7.01288 13.4167 9.64276 14.6481 12.7348 14.8837C13.2186 14.9206 13.5861 14.5795 13.5883 14.1001C13.5923 13.2629 13.5872 12.4256 13.5924 11.5883C13.5931 11.4754 13.5531 11.4262 13.4522 11.3867C12.7552 11.1136 12.0605 10.8347 11.3651 10.5576C11.154 10.4735 10.9431 10.3894 10.7454 10.3107C10.7185 10.3333 10.7122 10.3364 10.7091 10.3415C10.4483 10.7746 10.1887 11.2084 9.92694 11.6409C9.64411 12.1083 9.22821 12.2263 8.74327 11.9764C6.88506 11.0191 5.47296 9.61573 4.51443 7.75922C4.25764 7.26189 4.37221 6.85135 4.85002 6.56407C5.28855 6.30048 5.72809 6.03834 6.18448 5.76519Z" fill="#43C5FF"/>
<path d="M10.6369 0.500061C13.2392 0.63123 15.3654 2.44516 15.896 5.0122C15.9687 5.36384 15.9902 5.7296 15.9997 6.08981C16.0116 6.54186 15.6802 6.87762 15.24 6.90257C14.8057 6.92716 14.4334 6.61964 14.4062 6.16819C14.3709 5.58486 14.3022 5.0122 14.0462 4.47981C13.355 3.04256 12.2158 2.24873 10.6189 2.11977C10.5254 2.11221 10.4313 2.1113 10.3381 2.10144C9.87607 2.05251 9.56265 1.69681 9.59149 1.25653C9.62069 0.810279 9.96727 0.497907 10.4306 0.500011C10.4994 0.500311 10.5682 0.500061 10.6369 0.500061Z" fill="#43C5FF"/>
<path d="M10.4732 3.70305C11.7677 3.71272 12.879 4.89835 12.7955 6.18065C12.7698 6.57616 12.4133 6.90105 12.0013 6.90471C11.5778 6.90846 11.231 6.58908 11.1881 6.15575C11.131 5.58079 10.9113 5.35917 10.349 5.30924C9.89895 5.26927 9.57273 4.90386 9.58954 4.46878C9.60619 4.03686 9.98733 3.65512 10.4732 3.70305Z" fill="#43C5FF"/>
</g>
<defs>
<clipPath id="clip0_74_993">
<rect width="16" height="16" fill="white" transform="translate(0 0.5)"/>
</clipPath>
</defs>
</svg>
