<svg width="16" height="16" viewBox="0 0 16 16" fill="none" xmlns="http://www.w3.org/2000/svg">
<g clip-path="url(#clip0_74_1005)">
<path d="M15.9956 7.43644C15.9956 7.81151 15.9956 8.18654 15.9956 8.5616C15.9855 8.60155 15.9724 8.64099 15.9658 8.68147C15.9018 9.07566 15.8595 9.47474 15.7715 9.86345C15.5616 10.7898 15.174 11.643 14.648 12.433C14.4974 12.6592 14.2782 12.7546 14.0151 12.711C13.758 12.6684 13.5854 12.5093 13.5149 12.2544C13.4566 12.044 13.5203 11.8592 13.6372 11.6804C14.2418 10.7552 14.6006 9.74216 14.711 8.63241C13.9915 8.63241 13.2758 8.63241 12.5512 8.63241C12.4455 10.5305 12.0544 12.3437 11.0657 13.9944C11.2167 13.9266 11.3516 13.8493 11.4879 13.7747C11.809 13.5989 12.1799 13.6951 12.3551 13.9984C12.5307 14.3028 12.4314 14.6724 12.1147 14.8624C11.2782 15.3644 10.3803 15.7059 9.41849 15.8733C9.13306 15.923 8.84513 15.9582 8.55835 16C8.18335 16 7.80839 16 7.43339 16C7.25393 15.9772 7.07404 15.9574 6.89512 15.9311C5.35061 15.7036 3.96354 15.1119 2.79308 14.0736C0.565223 12.0974 -0.326189 9.61227 0.105633 6.67452C0.339373 5.08436 1.04019 3.69131 2.15582 2.53263C4.12264 0.489919 6.53186 -0.312206 9.32826 0.108439C10.9009 0.344997 12.2711 1.04346 13.4349 2.12954C14.7388 3.34633 15.5596 4.83212 15.8722 6.59212C15.922 6.872 15.9549 7.1549 15.9956 7.43644ZM7.33173 7.36801C7.33173 5.37373 7.33173 3.39251 7.33173 1.36358C7.13334 1.49269 6.95107 1.59093 6.79218 1.71829C6.17045 2.2167 5.77961 2.8827 5.46272 3.59811C5.02279 4.5913 4.79972 5.63956 4.68583 6.71418C4.6631 6.9288 4.65659 7.14516 4.64215 7.36801C5.55 7.36801 6.43371 7.36801 7.33173 7.36801ZM7.33298 8.63598C6.42789 8.63598 5.5403 8.63598 4.63417 8.63598C4.66016 8.91853 4.68182 9.18784 4.71018 9.45642C4.81779 10.475 5.05021 11.4625 5.46406 12.4021C5.77942 13.1182 6.17217 13.7833 6.7945 14.2811C6.95332 14.4081 7.13522 14.5063 7.33302 14.6349C7.33298 12.6042 7.33298 10.6227 7.33298 8.63598ZM8.60077 1.3643C8.60077 3.39633 8.60077 5.38128 8.60077 7.36297C9.49989 7.36297 10.3877 7.36297 11.2951 7.36297C11.2691 7.08142 11.2473 6.8123 11.219 6.54387C11.1115 5.52542 10.8793 4.53801 10.466 3.59814C10.1532 2.88674 9.76349 2.22588 9.14915 1.72797C8.98698 1.59654 8.80039 1.49529 8.60077 1.3643ZM8.5978 8.62985C8.5978 10.6246 8.5978 12.6057 8.5978 14.6068C8.90001 14.4829 9.14251 14.2998 9.36163 14.0852C9.91101 13.547 10.2714 12.888 10.558 12.1843C10.9373 11.2533 11.1381 10.2792 11.2432 9.28333C11.2658 9.06874 11.2724 8.8525 11.2868 8.62985C10.3789 8.62985 9.49519 8.62985 8.5978 8.62985ZM11.0713 2.00779C11.5528 2.81802 11.895 3.68201 12.1359 4.58826C12.3778 5.49855 12.5007 6.42747 12.5509 7.36628C13.2835 7.36628 13.995 7.36628 14.722 7.36628C14.4161 4.95046 13.1987 3.17104 11.0713 2.00779ZM4.8217 13.9342C4.35106 13.1292 4.01867 12.2716 3.78336 11.3751C3.54793 10.4781 3.42477 9.56324 3.38003 8.63295C2.67361 8.63295 1.97903 8.63295 1.27033 8.63295C1.56737 11.0044 2.75279 12.7641 4.8217 13.9342ZM3.38019 7.36635C3.42471 6.43129 3.54878 5.51643 3.78405 4.61923C4.01895 3.72346 4.35297 2.86724 4.85298 2.05782C3.18132 2.84701 1.48835 4.86984 1.28542 7.36635C1.9764 7.36635 2.66679 7.36635 3.38019 7.36635Z" fill="#43C5FF"/>
</g>
<defs>
<clipPath id="clip0_74_1005">
<rect width="15.9956" height="16" fill="white"/>
</clipPath>
</defs>
</svg>
