<svg width="35" height="35" viewBox="0 0 35 35" fill="none" xmlns="http://www.w3.org/2000/svg">
<g clip-path="url(#clip0_81_1106)">
<path fill-rule="evenodd" clip-rule="evenodd" d="M34.8934 19.4168L23.964 8.48734L18.9189 13.5324L21.2838 15.8973L23.964 13.2171L34.0206 23.2737C31.6346 30.1006 25.1413 35 17.5 35C10.1182 35 3.80869 30.4273 1.2373 23.9618L11.982 13.2171L24.7784 26.0135L27.1433 23.6486L11.982 8.48734L0.217252 20.2521C0.0753604 19.3553 0 18.4365 0 17.5C0 7.83495 7.83495 0 17.5 0C27.165 0 35 7.83495 35 17.5C35 18.148 34.9622 18.7871 34.8934 19.4168Z" fill="#43C5FF"/>
</g>
<defs>
<clipPath id="clip0_81_1106">
<rect width="35" height="35" fill="white"/>
</clipPath>
</defs>
</svg>
