<svg width="16" height="16" viewBox="0 0 16 16" fill="none" xmlns="http://www.w3.org/2000/svg">
<path fill-rule="evenodd" clip-rule="evenodd" d="M13.3667 8.00005C13.3667 7.61345 13.0533 7.30005 12.6667 7.30005H3.33333C2.94673 7.30005 2.63333 7.61345 2.63333 8.00005C2.63333 8.38665 2.94673 8.70005 3.33333 8.70005H12.6667C13.0533 8.70005 13.3667 8.38665 13.3667 8.00005Z" fill="white"/>
<path fill-rule="evenodd" clip-rule="evenodd" d="M2.83836 7.50507C2.56499 7.77844 2.56499 8.22166 2.83836 8.49502L6.83836 12.495C7.11172 12.7684 7.55494 12.7684 7.82831 12.495C8.10167 12.2217 8.10167 11.7784 7.82831 11.5051L3.82831 7.50507C3.55494 7.23171 3.11172 7.23171 2.83836 7.50507Z" fill="white"/>
<path fill-rule="evenodd" clip-rule="evenodd" d="M7.82831 3.50507C7.55494 3.23171 7.11172 3.23171 6.83836 3.50507L2.83836 7.50507C2.56499 7.77844 2.56499 8.22166 2.83836 8.49502C3.11172 8.76839 3.55494 8.76839 3.82831 8.49502L7.82831 4.49502C8.10167 4.22166 8.10167 3.77844 7.82831 3.50507Z" fill="white"/>
</svg>
