<svg width="16" height="16" viewBox="0 0 16 16" fill="none" xmlns="http://www.w3.org/2000/svg">
<path fill-rule="evenodd" clip-rule="evenodd" d="M2.63334 8.00005C2.63334 7.61345 2.94674 7.30005 3.33333 7.30005H12.6667C13.0533 7.30005 13.3667 7.61345 13.3667 8.00005C13.3667 8.38665 13.0533 8.70005 12.6667 8.70005H3.33333C2.94674 8.70005 2.63334 8.38665 2.63334 8.00005Z" fill="white"/>
<path fill-rule="evenodd" clip-rule="evenodd" d="M13.1616 7.50507C13.435 7.77844 13.435 8.22166 13.1616 8.49502L9.16164 12.495C8.88828 12.7684 8.44506 12.7684 8.17169 12.495C7.89833 12.2217 7.89833 11.7784 8.17169 11.5051L12.1717 7.50507C12.4451 7.23171 12.8883 7.23171 13.1616 7.50507Z" fill="white"/>
<path fill-rule="evenodd" clip-rule="evenodd" d="M8.17169 3.50507C8.44506 3.23171 8.88828 3.23171 9.16164 3.50507L13.1616 7.50507C13.435 7.77844 13.435 8.22166 13.1616 8.49502C12.8883 8.76839 12.4451 8.76839 12.1717 8.49502L8.17169 4.49502C7.89833 4.22166 7.89833 3.77844 8.17169 3.50507Z" fill="white"/>
</svg>
