<svg width="15" height="15" viewBox="0 0 15 15" fill="none" xmlns="http://www.w3.org/2000/svg">
<g clip-path="url(#clip0_192_89)">
<path d="M3.89609 0.530084C3.77305 0.56563 3.60078 0.746099 3.56523 0.874615C3.54609 0.942974 3.53516 1.67579 3.53516 3.04844V5.11563L2.92812 5.12657C2.36211 5.13751 2.29922 5.14571 2.07227 5.21407C1.36953 5.42461 0.808984 5.98516 0.590234 6.69336L0.513672 6.93946V11.5879L0.590234 11.834C0.808984 12.5422 1.36953 13.1027 2.07227 13.3133C2.29922 13.3816 2.36211 13.3898 2.92539 13.4008L3.52969 13.4117L3.54062 13.7699C3.54883 14.0926 3.55703 14.1418 3.61445 14.2348C3.65 14.2922 3.7293 14.3715 3.78945 14.4125L3.90156 14.4863H11.0984L11.2105 14.4125C11.2707 14.3715 11.35 14.2922 11.3855 14.2348C11.443 14.1418 11.4512 14.0926 11.4594 13.7699L11.4703 13.4117L12.0746 13.4008C12.6379 13.3898 12.7008 13.3816 12.9277 13.3133C13.8273 13.0426 14.4727 12.2113 14.4836 11.3117C14.4863 11.0574 14.4809 11.0301 14.4125 10.9262C14.3004 10.7539 14.1664 10.6856 13.9504 10.6856C13.8027 10.6856 13.7535 10.6992 13.6605 10.7594C13.4992 10.866 13.4363 10.9836 13.4035 11.2461C13.3406 11.7574 13.1191 12.0664 12.6926 12.2359C12.5641 12.2879 12.4793 12.2988 12.0062 12.307L11.4648 12.318V10.0484L11.7082 10.0375C11.9133 10.0293 11.968 10.0156 12.0609 9.95547C12.2305 9.84336 12.2988 9.70938 12.2988 9.49336C12.2988 9.34571 12.2852 9.29649 12.225 9.20352C12.184 9.14336 12.1047 9.06407 12.0473 9.02852L11.9434 8.9629H3.05391L2.9418 9.03672C2.77227 9.14883 2.70117 9.28282 2.70117 9.4961C2.70117 9.70938 2.77227 9.84336 2.93906 9.95547C3.03203 10.0156 3.08672 10.0293 3.2918 10.0375L3.53516 10.0484V12.318L2.99648 12.307C2.5125 12.2961 2.43867 12.2879 2.29648 12.2332C1.9957 12.1156 1.76328 11.8723 1.65664 11.5633C1.61016 11.4348 1.60742 11.2707 1.60742 9.25001V7.07618L1.67031 6.91758C1.79336 6.61407 2.03398 6.38438 2.34297 6.27774C2.47422 6.23126 2.74219 6.22852 7.5 6.22852C12.2578 6.22852 12.5258 6.23126 12.657 6.27774C12.966 6.38438 13.2094 6.6168 13.327 6.91758C13.3844 7.06524 13.3898 7.12813 13.4035 7.87188L13.4199 8.66758L13.4937 8.77696C13.6059 8.94649 13.7398 9.01758 13.9531 9.01758C14.1664 9.01758 14.3004 8.94649 14.4125 8.77696L14.4863 8.66485V7.80352L14.4836 6.93946L14.4098 6.69336C14.191 5.98516 13.6305 5.42461 12.9277 5.21407C12.7008 5.14571 12.6379 5.13751 12.0746 5.12657L11.4648 5.11563L11.4594 2.99102L11.4512 0.866412L11.3773 0.754302C11.3363 0.694146 11.257 0.614849 11.1996 0.579302L11.0957 0.513677L7.54102 0.508209C5.34805 0.505474 3.95078 0.513677 3.89609 0.530084ZM10.3711 5.1211H4.62891V1.59376H10.3711V5.1211ZM10.3711 13.4063H4.62891V10.043H10.3711V13.4063Z" fill="#BEBEBE"/>
<path d="M6.08359 11.2488C5.95508 11.2871 5.78555 11.4676 5.74727 11.607C5.68437 11.8504 5.78008 12.1047 5.98789 12.2332L6.0918 12.2988H8.9082L9.01211 12.2332C9.06953 12.1977 9.14883 12.1184 9.18984 12.0582C9.25273 11.9652 9.26367 11.916 9.26367 11.7656C9.26367 11.6152 9.25273 11.566 9.18984 11.4731C9.14883 11.4129 9.06953 11.3336 9.01211 11.2981L8.9082 11.2324L7.54102 11.227C6.72617 11.2242 6.13828 11.2324 6.08359 11.2488Z" fill="#BEBEBE"/>
<path d="M11.8258 7.06524C11.6945 7.10352 11.5277 7.28399 11.4895 7.42344C11.4266 7.6668 11.5223 7.9211 11.7301 8.04961C11.8859 8.14805 12.1512 8.14258 12.3043 8.04141C12.4738 7.9293 12.5449 7.79532 12.5449 7.58204C12.5449 7.37149 12.4738 7.23477 12.3125 7.12813C12.1949 7.04883 11.9707 7.02149 11.8258 7.06524Z" fill="#BEBEBE"/>
</g>
<defs>
<clipPath id="clip0_192_89">
<rect width="14" height="14" fill="white" transform="translate(0.5 0.5)"/>
</clipPath>
</defs>
</svg>
