<svg width="15" height="15" viewBox="0 0 15 15" fill="none" xmlns="http://www.w3.org/2000/svg">
<path d="M3.52167 1.7168C2.68769 1.90273 2.05331 2.47695 1.77714 3.28906L1.68964 3.54883L1.68144 7.40977C1.67324 11.6371 1.66777 11.4211 1.8373 11.8613C1.94941 12.1539 2.11074 12.3945 2.35683 12.6434C2.60566 12.8895 2.84628 13.0508 3.13886 13.1629C3.5791 13.3324 3.36308 13.327 7.59042 13.3187L11.4514 13.3105L11.7111 13.2203C12.0967 13.0863 12.3428 12.9359 12.6135 12.668C12.8869 12.3973 13.0455 12.1676 13.1631 11.8613C13.3217 11.4512 13.3244 11.4375 13.3244 9.61094C13.3244 8.01406 13.3217 7.9293 13.2725 7.83359C13.0455 7.39062 12.4549 7.39062 12.2279 7.83359C12.1787 7.9293 12.176 8.01406 12.176 9.47422C12.176 10.3328 12.165 11.0848 12.1486 11.175C12.0666 11.6754 11.6756 12.0664 11.1752 12.1484C10.9592 12.184 4.0412 12.184 3.82519 12.1484C3.3248 12.0664 2.93378 11.6754 2.85175 11.175C2.8162 10.959 2.8162 4.04101 2.85175 3.825C2.93378 3.32461 3.3248 2.93359 3.82519 2.85156C3.91542 2.83516 4.66738 2.82422 5.51777 2.82422C6.95058 2.82422 7.05722 2.81875 7.15839 2.77226C7.60683 2.56445 7.6123 1.95742 7.1666 1.72773C7.07089 1.67851 6.98613 1.67578 5.37558 1.67851C4.06581 1.67851 3.65019 1.68945 3.52167 1.7168Z" fill="#BEBEBE"/>
<path d="M8.97402 1.73867C8.90839 1.77422 8.81816 1.85625 8.77167 1.91914C8.69785 2.02578 8.68964 2.05586 8.68964 2.24727C8.68964 2.4332 8.69785 2.47148 8.76347 2.56719C8.80449 2.62461 8.88378 2.70391 8.94121 2.74219L9.04238 2.81055L11.3393 2.82695L9.16269 5.00625C7.40175 6.76992 6.98066 7.20469 6.95331 7.29219C6.9041 7.44805 6.92871 7.69414 7.01074 7.81172C7.15839 8.0332 7.44824 8.12891 7.708 8.04688C7.7955 8.01953 8.233 7.5957 9.99394 5.8375L12.1732 3.66094L12.1896 5.95781L12.258 6.05898C12.2963 6.11641 12.3756 6.1957 12.433 6.23672C12.5287 6.30234 12.567 6.31055 12.7502 6.31055C12.9334 6.31055 12.9717 6.30234 13.0674 6.23672C13.1248 6.1957 13.2041 6.11641 13.2424 6.05898L13.3107 5.95781V2.03945L13.2369 1.93281C13.1959 1.87539 13.1166 1.79609 13.0592 1.75781L12.958 1.68945L11.0275 1.68125L9.09706 1.67578L8.97402 1.73867Z" fill="#BEBEBE"/>
</svg>
