<svg width="18" height="18" viewBox="0 0 18 18" fill="none" xmlns="http://www.w3.org/2000/svg">
<path d="M0 10.9518C0.0452746 10.7855 0.0833635 10.6168 0.137092 10.4531C0.369195 9.74636 0.820485 9.21595 1.4741 8.86027C1.59109 8.7966 1.62233 8.72961 1.62214 8.60511C1.61847 6.31837 1.61894 4.03157 1.61993 1.74478C1.62012 1.28554 1.93225 0.983229 2.38105 1.00072C2.70662 1.01341 3.00038 1.28023 3.02222 1.60652C3.03805 1.84316 3.02532 2.08166 3.02532 2.34936C3.08981 2.31335 3.12926 2.29535 3.16443 2.27114C3.79325 1.83816 4.48905 1.61725 5.2551 1.61725C7.75084 1.61729 10.2466 1.61748 12.7423 1.61715C13.5082 1.61706 14.2044 1.83565 14.8327 2.26983C14.8655 2.2925 14.9001 2.31251 14.9723 2.35794C14.9723 2.09341 14.9611 1.85827 14.975 1.62462C14.9956 1.27915 15.2908 1.00879 15.6351 1.00039C16.0591 0.990039 16.3709 1.28662 16.3798 1.70928C16.381 1.76745 16.3801 1.82566 16.3801 1.88383C16.3801 4.12407 16.3811 6.36427 16.3773 8.60451C16.3771 8.72938 16.411 8.79468 16.5252 8.86018C17.4722 9.403 17.9751 10.2162 17.9975 11.3089C18.0006 11.4586 18.0032 11.6153 17.964 11.7573C17.8688 12.1025 17.5427 12.2919 17.1744 12.2415C16.8505 12.1971 16.5888 11.8986 16.5959 11.5553C16.6049 11.117 16.5326 10.7098 16.2181 10.3765C15.9585 10.1013 15.6429 9.94442 15.2598 9.93122C15.2013 9.92922 15.1427 9.92637 15.0842 9.92637C11.0301 9.92614 6.97591 9.92661 2.92181 9.92516C2.64241 9.92507 2.37377 9.95846 2.12838 10.102C1.6799 10.3643 1.42258 10.7578 1.41347 11.2695C1.39553 12.2758 1.40835 13.2826 1.40896 14.2892C1.40896 14.2996 1.41629 14.31 1.42761 14.3399C1.49458 14.3399 1.56878 14.3399 1.64299 14.3399C6.83365 14.3399 12.0244 14.3398 17.215 14.34C17.6138 14.34 17.8784 14.5186 17.9745 14.8556C17.9916 14.916 17.9979 14.9812 17.9982 15.0442C18.0002 15.4573 18.0006 15.8705 17.9989 16.2836C17.9973 16.6936 17.6987 16.9933 17.2954 16.9931C16.8928 16.9928 16.5961 16.6925 16.5937 16.2818C16.5927 16.1084 16.5935 15.9349 16.5935 15.751C11.5309 15.751 6.48343 15.751 1.40596 15.751C1.40596 15.9131 1.40619 16.0788 1.40591 16.2445C1.40525 16.6297 1.18616 16.9198 0.846457 16.9856C0.491775 17.0543 0.186453 16.8756 0.0307154 16.509C0.0243281 16.4939 0.0104263 16.482 0 16.4686C0 14.6297 0 12.7907 0 10.9518ZM9.0167 5.96031C9.05206 5.90937 9.0708 5.87135 9.09931 5.84304C9.61264 5.33361 10.2277 5.02803 10.9563 5.01339C11.8871 4.99468 12.8187 5.00681 13.7499 5.01357C14.1116 5.01623 14.4515 5.12468 14.7778 5.27517C14.8338 5.30096 14.8887 5.32895 14.9464 5.35703C14.9566 5.32718 14.9629 5.31663 14.9635 5.30577C15.0267 4.09529 14.012 3.02606 12.787 3.02424C10.2739 3.02051 7.76079 3.02219 5.24772 3.0235C4.28846 3.02401 3.449 3.62971 3.14753 4.53367C3.05947 4.79774 3.02532 5.06791 3.0404 5.34607C3.27161 5.25837 3.47849 5.15864 3.69674 5.10304C3.91564 5.04725 4.14559 5.01147 4.37121 5.00872C5.23796 4.99818 6.10498 5.00037 6.97182 5.00755C7.15724 5.00909 7.3452 5.03811 7.527 5.07724C8.10477 5.2016 8.58475 5.49944 9.0167 5.96031ZM3.01001 8.49983C4.80367 8.49983 6.54505 8.49983 8.29258 8.49983C8.29258 8.2318 8.30846 7.97553 8.28963 7.72177C8.2328 6.95686 7.64376 6.41352 6.8747 6.40993C6.05497 6.40611 5.23518 6.40583 4.41545 6.41087C3.78701 6.41474 3.23042 6.82709 3.09732 7.43564C3.02288 7.77607 3.03688 8.13552 3.01001 8.49983ZM14.9587 8.5044C14.9587 8.24225 14.9761 7.98672 14.9554 7.73432C14.8892 6.92552 14.3211 6.41138 13.5049 6.40933C12.7028 6.40732 11.9005 6.40126 11.0986 6.41525C10.9057 6.41861 10.6974 6.45989 10.5248 6.54264C9.69798 6.93895 9.63495 7.6552 9.7308 8.50445C11.4686 8.5044 13.2061 8.5044 14.9587 8.5044Z" fill="#43C5FF"/>
</svg>
