<svg width="18" height="18" viewBox="0 0 18 18" fill="none" xmlns="http://www.w3.org/2000/svg">
<g clip-path="url(#clip0_192_171)">
<path d="M15.6052 18C15.5761 17.9844 15.5479 17.9668 15.5178 17.9533C15.0457 17.7425 14.9252 17.1832 15.2784 16.804C15.4933 16.5733 15.7229 16.3563 15.9776 16.1014C15.8771 16.1014 15.811 16.1014 15.7448 16.1014C12.0851 16.1014 8.42525 16.0919 4.76553 16.1064C3.41792 16.1117 2.22803 15.1797 1.9588 13.8682C1.918 13.6695 1.90075 13.4625 1.90057 13.2594C1.89719 9.58704 1.89811 5.91472 1.89811 2.24235C1.89811 2.17437 1.89811 2.1064 1.89811 2.03842C1.87867 2.02503 1.8592 2.01165 1.83977 1.99826C1.67173 2.18205 1.49316 2.35739 1.33776 2.55133C0.967062 3.01391 0.290633 3.04226 0 2.35602C0 2.23883 0 2.12165 0 2.00446C0.133293 1.83134 0.25282 1.64505 0.402837 1.48788C0.706003 1.17017 1.02434 0.866835 1.33888 0.560115C2.10224 -0.184283 3.16485 -0.187065 3.92775 0.554938C4.30988 0.926608 4.69082 1.29962 5.06486 1.67939C5.28726 1.9052 5.33303 2.20259 5.20907 2.47218C5.08376 2.74477 4.81926 2.92163 4.51637 2.87284C4.34907 2.8459 4.17423 2.75361 4.04231 2.64347C3.7959 2.43777 3.57828 2.19752 3.34849 1.97184C3.34462 1.96804 3.33831 1.96667 3.31768 1.95663C3.31261 2.00446 3.3042 2.0468 3.3042 2.08914C3.3036 5.79186 3.30283 9.49455 3.30434 13.1973C3.30462 13.9204 3.69179 14.4507 4.35664 14.636C4.50102 14.6762 4.65642 14.6931 4.80679 14.6932C8.49105 14.6963 12.1753 14.6956 15.8596 14.6956C15.9098 14.6956 15.9601 14.6956 16.0405 14.6956C15.7737 14.4263 15.5285 14.1864 15.2921 13.9382C14.9813 13.6118 15.0106 13.1325 15.3499 12.8727C15.6185 12.6671 15.9869 12.6614 16.2367 12.8982C16.6998 13.3373 17.1654 13.7769 17.5926 14.2501C18.1478 14.8652 18.1315 15.8983 17.5684 16.5061C17.1507 16.9569 16.7032 17.3804 16.2617 17.8085C16.1774 17.8902 16.0592 17.937 15.9566 18C15.8395 18 15.7223 18 15.6052 18Z" fill="#43C5FF"/>
<path d="M17.995 6.6094C17.995 8.15565 17.996 9.70189 17.9942 11.2481C17.9937 11.6126 17.7301 11.9107 17.3848 11.9501C17.0204 11.9917 16.6933 11.7697 16.6076 11.414C16.5874 11.3303 16.5903 11.2399 16.5903 11.1525C16.5894 8.18302 16.5893 5.21356 16.5903 2.24407C16.5903 2.03456 16.5629 1.83651 16.4233 1.66797C16.2603 1.47128 16.0443 1.4064 15.7994 1.40651C14.6517 1.40693 13.504 1.40668 12.3563 1.40668C10.5059 1.40668 8.65554 1.40623 6.80517 1.40711C6.51486 1.40725 6.29622 1.28344 6.16057 1.02969C6.03126 0.787749 6.04851 0.541682 6.198 0.31446C6.33992 0.0987208 6.54834 -0.000255211 6.80891 6.17941e-05C8.23767 0.00185816 9.66644 0.000907141 11.0952 0.000907141C12.6762 0.000907141 14.2572 0.000308354 15.8382 0.00111848C17.081 0.00175249 17.9943 0.917932 17.9949 2.16404C17.9956 3.64579 17.995 5.12758 17.995 6.6094Z" fill="#43C5FF"/>
<path d="M4.70995 9.15457C4.70995 8.44582 4.71393 7.737 4.70805 7.02828C4.70562 6.73413 4.80385 6.49962 5.0628 6.35218C5.32026 6.20555 5.57509 6.22746 5.82471 6.38628C5.86435 6.41153 5.93413 6.41512 5.98064 6.39998C6.61824 6.19273 7.21562 6.26698 7.76446 6.65601C7.85762 6.72205 7.91476 6.69951 7.99363 6.64566C9.1312 5.86868 10.641 6.42918 10.9782 7.75545C11.0138 7.89554 11.0327 8.04372 11.0333 8.18827C11.0379 9.2309 11.0367 10.2736 11.0355 11.3162C11.0351 11.745 10.7397 12.0556 10.3363 12.057C9.93219 12.0585 9.63156 11.7478 9.63096 11.3223C9.62955 10.3147 9.63011 9.30723 9.63075 8.29972C9.63089 8.06647 9.55656 7.8737 9.3393 7.7607C8.97956 7.5736 8.58461 7.82988 8.57743 8.26161C8.57014 8.7008 8.5757 9.1402 8.57567 9.57954C8.57563 10.1419 8.57588 10.7042 8.5756 11.2665C8.57535 11.746 8.30095 12.0568 7.87727 12.0583C7.4451 12.0599 7.17038 11.749 7.17028 11.2576C7.1701 10.2852 7.17126 9.31286 7.16859 8.3405C7.16831 8.2423 7.15898 8.14002 7.13042 8.04678C7.06698 7.83953 6.84863 7.69445 6.63239 7.69927C6.42115 7.70399 6.21431 7.8482 6.15417 8.04988C6.12629 8.1434 6.11724 8.24551 6.11699 8.34378C6.11439 9.34541 6.11671 10.3471 6.11464 11.3487C6.11386 11.7157 5.85481 12.0141 5.51045 12.0553C5.14416 12.0991 4.82036 11.8817 4.72974 11.5244C4.7114 11.4521 4.7109 11.3739 4.71076 11.2984C4.70942 10.5838 4.70995 9.86921 4.70995 9.15457Z" fill="#43C5FF"/>
<path d="M14.2846 7.1563C14.4217 7.17289 14.5634 7.17166 14.6939 7.20949C15.0312 7.30727 15.2294 7.63674 15.1787 7.9859C15.1306 8.31753 14.8398 8.57479 14.496 8.57691C13.8637 8.58082 13.2313 8.58025 12.599 8.57722C12.2964 8.57578 12.0684 8.43894 11.9439 8.16075C11.8229 7.89059 11.8591 7.62892 12.0608 7.41163C12.3235 7.12858 12.616 6.8723 12.8682 6.58073C13.1466 6.25893 13.3963 5.91209 13.6529 5.57198C13.716 5.48847 13.7769 5.37963 13.6732 5.29027C13.6196 5.24406 13.5251 5.21232 13.4569 5.22314C13.3294 5.24332 13.2949 5.35385 13.2828 5.47435C13.2411 5.88702 12.931 6.14449 12.5142 6.11829C12.1491 6.09532 11.8739 5.77948 11.8801 5.39066C11.8934 4.55147 12.5666 3.84853 13.4029 3.80052C14.2607 3.75128 14.9909 4.34415 15.1233 5.17456C15.1862 5.5686 15.0907 5.92101 14.8955 6.24756C14.7101 6.55769 14.493 6.84891 14.2846 7.1563Z" fill="#43C5FF"/>
</g>
<defs>
<clipPath id="clip0_192_171">
<rect width="18" height="18" fill="white"/>
</clipPath>
</defs>
</svg>
