<svg width="18" height="18" viewBox="0 0 18 18" fill="none" xmlns="http://www.w3.org/2000/svg">
<g clip-path="url(#clip0_192_159)">
<path d="M0 9.17606C0.111483 9.47431 0.285879 9.71633 0.613701 9.79189C0.75968 9.82556 0.914404 9.82126 1.08183 9.83561C1.08463 9.89736 1.08976 9.95925 1.08982 10.0211C1.0903 11.1225 1.089 12.224 1.09051 13.3254C1.09276 14.9582 2.1041 16.3095 3.67175 16.7712C3.78044 16.8032 3.82026 16.8537 3.81281 16.9673C3.80564 17.0772 3.81739 17.1896 3.83153 17.2995C3.8868 17.7276 4.24918 18.0191 4.69552 17.999C5.0948 17.9809 5.42836 17.6446 5.44926 17.2355C5.45431 17.1368 5.45001 17.0377 5.45001 16.9246C7.81676 16.9246 10.1681 16.9246 12.5501 16.9246C12.5501 17.0237 12.5458 17.127 12.5509 17.2298C12.5716 17.6483 12.9088 17.9856 13.317 17.9993C13.7627 18.0143 14.1135 17.7221 14.1715 17.2876C14.1769 17.247 14.1953 17.2038 14.1871 17.1664C14.1225 16.8703 14.2893 16.791 14.5384 16.6996C15.8245 16.2283 16.5904 15.2962 16.8626 13.9598C16.9053 13.7498 16.9074 13.5292 16.9083 13.3134C16.9126 12.2237 16.9103 11.1339 16.9103 10.0442C16.9103 9.98008 16.9103 9.91594 16.9103 9.83506C17.0379 9.82618 17.1581 9.82023 17.2779 9.80903C17.6881 9.77078 18.0003 9.41945 18 8.99893C17.9997 8.57896 17.6865 8.22852 17.2752 8.19157C17.1704 8.18214 17.0648 8.17913 16.9595 8.17913C12.3076 8.17852 7.65582 8.17866 3.00395 8.17866C2.92287 8.17866 2.84185 8.17866 2.75113 8.17866C2.74505 8.11868 2.73665 8.07407 2.73665 8.02946C2.73604 6.36555 2.7333 4.70163 2.73761 3.03778C2.73932 2.37967 3.11448 1.87841 3.71971 1.69752C4.54524 1.45078 5.38184 2.04536 5.44454 2.93477C5.46463 3.21921 5.44769 3.50626 5.44769 3.79665C5.31291 3.80853 5.19125 3.81495 5.07075 3.8306C4.64887 3.88531 4.34666 4.24572 4.36176 4.67185C4.37672 5.0925 4.71246 5.44212 5.13995 5.44806C5.89553 5.45851 6.65139 5.45845 7.40697 5.44806C7.83234 5.44226 8.16309 5.09756 8.18625 4.67041C8.20873 4.25658 7.8947 3.88477 7.47343 3.83026C7.35772 3.81529 7.24084 3.80942 7.09834 3.79712C7.09834 3.6797 7.09643 3.5592 7.09868 3.43877C7.10811 2.92759 7.09363 2.41963 6.89519 1.93681C6.45773 0.872665 5.67598 0.234504 4.54012 0.0342848C4.51388 0.0296397 4.48998 0.0118105 4.46497 6.10352e-05C4.21885 6.10352e-05 3.9728 6.10352e-05 3.72668 6.10352e-05C3.64921 0.0194613 3.57216 0.0405694 3.49428 0.0579887C2.04091 0.383627 1.0914 1.5678 1.09044 3.05978C1.08935 4.69398 1.09017 6.32818 1.09017 7.96231C1.09017 8.02974 1.09017 8.09716 1.09017 8.16424C0.914198 8.17934 0.759476 8.17504 0.613495 8.20878C0.28581 8.2844 0.111483 8.52636 6.67572e-05 8.82454C0 8.94169 0 9.05884 0 9.17606ZM2.73604 9.83431C6.92695 9.83431 11.0887 9.83431 15.255 9.83431C15.2587 9.8867 15.264 9.92714 15.264 9.96758C15.2643 11.0981 15.2646 12.2286 15.2632 13.3591C15.2631 13.4582 15.2615 13.5593 15.2433 13.6562C15.0574 14.6419 14.3114 15.263 13.3048 15.2637C10.4346 15.2658 7.56449 15.2647 4.69429 15.2637C4.57762 15.2636 4.45848 15.2644 4.34454 15.2431C3.35869 15.0582 2.73904 14.3117 2.73658 13.3052C2.73392 12.2039 2.73597 11.1028 2.7359 10.0015C2.73604 9.94948 2.73604 9.8975 2.73604 9.83431Z" fill="#43C5FF"/>
</g>
<defs>
<clipPath id="clip0_192_159">
<rect width="18" height="18" fill="white" transform="matrix(-1 0 0 1 18 0)"/>
</clipPath>
</defs>
</svg>
