<svg width="18" height="18" viewBox="0 0 18 18" fill="none" xmlns="http://www.w3.org/2000/svg">
<g clip-path="url(#clip0_207_359)">
<path d="M1.58906 1.75784C1.20586 1.85979 0.931641 2.01799 0.632812 2.32034C0.326953 2.62268 0.172266 2.89338 0.0703125 3.29065C0.00703125 3.52971 0 3.68088 0 4.54924V5.53713L3.93047 8.45862C6.08906 10.0653 7.95586 11.4293 8.07539 11.4926C8.64492 11.7774 9.35508 11.7774 9.92109 11.4926C10.132 11.3871 10.3746 11.2114 12.5543 9.59065C13.1062 9.17932 14.5582 8.10002 15.7816 7.19299L18 5.54065V4.55276C18 3.68088 17.993 3.52971 17.9297 3.29065C17.8277 2.89338 17.673 2.62268 17.3672 2.32034C17.0648 2.01448 16.7941 1.85979 16.3969 1.75784C16.1297 1.68752 15.9855 1.68752 8.98594 1.69104C2.0707 1.69104 1.83867 1.69456 1.58906 1.75784ZM16.2527 3.19573C16.3266 3.24143 16.4285 3.34338 16.4812 3.42073C16.5727 3.56135 16.5762 3.57542 16.5867 4.19768L16.5973 4.83401L13.0254 7.48831C11.0637 8.94729 9.39023 10.1778 9.30937 10.2199C9.11953 10.3254 8.88047 10.3254 8.69063 10.2199C8.60977 10.1778 6.93984 8.94729 4.97813 7.48831L1.40977 4.83401L1.40625 4.27151C1.40625 3.96213 1.42383 3.64924 1.44492 3.57542C1.49062 3.41018 1.71562 3.17815 1.87031 3.13245C1.94414 3.11135 4.6582 3.10081 9.05273 3.10432L16.1191 3.11135L16.2527 3.19573Z" fill="#43C5FF"/>
<path d="M0 10.8738C0 14.3086 0.00351562 14.4492 0.0703125 14.7094C0.172266 15.1066 0.326953 15.3773 0.632812 15.6797C0.935156 15.9855 1.20586 16.1402 1.60312 16.2422C1.87031 16.3125 2.01797 16.3125 9 16.3125C15.982 16.3125 16.1297 16.3125 16.3969 16.2422C16.7941 16.1402 17.0648 15.9855 17.3672 15.6797C17.673 15.3773 17.8277 15.1066 17.9297 14.7094C17.9965 14.4492 18 14.3086 18 10.8738C18 8.91563 17.993 7.3125 17.9824 7.3125C17.9719 7.3125 17.659 7.54453 17.2793 7.82578L16.5938 8.33555L16.5867 11.3871L16.5762 14.4352L16.4812 14.5793C16.4285 14.6566 16.3266 14.7586 16.2527 14.8043L16.1191 14.8887H8.99648H1.87734L1.7332 14.7938C1.65586 14.741 1.55391 14.6391 1.5082 14.5652L1.42383 14.4316L1.41328 11.3836L1.40625 8.33203L0.717187 7.82227C0.341016 7.54102 0.0246094 7.3125 0.0175781 7.3125C0.00703125 7.3125 0 8.91563 0 10.8738Z" fill="#43C5FF"/>
</g>
<defs>
<clipPath id="clip0_207_359">
<rect width="18" height="18" fill="white"/>
</clipPath>
</defs>
</svg>
