<svg width="18" height="18" viewBox="0 0 18 18" fill="none" xmlns="http://www.w3.org/2000/svg">
<g clip-path="url(#clip0_207_345)">
<path d="M2.90052 0.0527172C2.39075 0.144125 1.94427 0.379671 1.54349 0.77342C0.214582 2.07772 -0.295184 4.23983 0.17591 6.57772C0.780598 9.59061 2.77747 12.6703 5.58997 14.9414C6.11028 15.3597 6.26146 15.416 6.58841 15.3211C6.88021 15.2332 7.10521 14.8746 7.05599 14.5722C7.0138 14.3191 6.92943 14.2137 6.38802 13.7742C3.66341 11.5523 1.78607 8.46912 1.45911 5.6742C1.31146 4.40858 1.50833 3.28006 2.02513 2.42225C2.21849 2.10233 2.47864 1.78592 2.66849 1.6453C2.88646 1.48709 3.21341 1.39569 3.49466 1.41678C3.88489 1.44842 4.11693 1.58553 4.50364 2.00389C5.4845 3.05858 5.88177 3.88826 5.71654 4.53514C5.61458 4.92537 5.48802 5.09412 4.6056 5.99061C3.74427 6.86951 3.69153 6.94686 3.69153 7.22811C3.69505 7.44608 4.02904 8.08592 4.54583 8.85936C5.69896 10.582 7.4181 12.3012 9.14075 13.4543C9.91419 13.9711 10.554 14.3051 10.772 14.3086C11.0533 14.3086 11.1306 14.2558 12.0095 13.3945C12.906 12.5121 13.0747 12.3855 13.465 12.2836C14.1118 12.1183 14.9415 12.5156 15.9962 13.4965C16.4146 13.8832 16.5517 14.1152 16.5833 14.5055C16.6044 14.7867 16.513 15.1137 16.3548 15.3316C16.0314 15.7676 15.2333 16.2351 14.4599 16.4355C13.2118 16.7625 11.3732 16.5269 9.8263 15.8449C9.4888 15.6972 9.18294 15.6902 8.97552 15.8273C8.75755 15.9715 8.66614 16.1437 8.66614 16.418C8.66614 16.5972 8.68372 16.6746 8.75052 16.7801C8.86302 16.9629 9.00013 17.0437 9.59778 17.2722C11.3978 17.9613 13.0536 18.1582 14.5372 17.8523C15.6271 17.6308 16.5376 17.1562 17.2267 16.4566C17.9861 15.6797 18.197 14.6285 17.7997 13.6019C17.6099 13.1097 17.2794 12.7195 16.5271 12.0902C15.3388 11.0953 14.3158 10.7086 13.3279 10.8773C12.6177 11.0004 12.1607 11.2816 11.2642 12.143L10.6454 12.7371L10.5365 12.6738C10.3185 12.5508 9.647 12.1008 9.35169 11.8828C7.83997 10.7683 6.28607 9.07733 5.41771 7.60428L5.26653 7.34764L5.86068 6.7324C6.71849 5.83944 6.99974 5.38241 7.12279 4.67225C7.23528 4.02537 7.09466 3.32225 6.722 2.6367C6.31068 1.88084 5.40716 0.812094 4.88685 0.457014C4.32435 0.0773277 3.58958 -0.0738449 2.90052 0.0527172Z" fill="#43C5FF"/>
<path d="M9.10545 0.833223C8.95076 0.914083 8.89451 0.970333 8.81365 1.12502C8.72576 1.29025 8.71521 1.3465 8.72928 1.50822C8.75389 1.73322 8.8699 1.92658 9.05623 2.0426C9.16873 2.1094 9.26717 2.12697 9.791 2.16565C10.7402 2.23596 11.4328 2.40822 12.1816 2.75627C13.4965 3.3715 14.6355 4.51057 15.2402 5.81838C15.5953 6.58479 15.764 7.25979 15.8344 8.21252C15.873 8.76799 15.8871 8.83127 15.9715 8.95783C16.091 9.14064 16.2703 9.24611 16.4953 9.27072C16.6535 9.28479 16.7097 9.27424 16.875 9.18635C17.0297 9.10549 17.0859 9.04924 17.1668 8.89455C17.2687 8.70119 17.2687 8.70119 17.2476 8.22658C17.1492 6.08908 16.2879 4.24338 14.7094 2.77385C13.3875 1.5469 11.6543 0.836739 9.77342 0.752364C9.29881 0.73127 9.29881 0.73127 9.10545 0.833223Z" fill="#43C5FF"/>
<path d="M10.7405 3.98318C10.3924 4.12029 10.2061 4.46834 10.301 4.8199C10.3678 5.06951 10.5717 5.23826 10.9655 5.37537C11.7987 5.66365 12.3752 6.25779 12.6565 7.11912C12.8393 7.67459 13.3104 7.87849 13.7569 7.59373C14.0522 7.4074 14.1225 7.09451 13.9748 6.64099C13.7604 5.97654 13.4897 5.5406 12.9764 5.0238C12.4561 4.50701 12.0307 4.23982 11.3698 4.02537C11.078 3.93045 10.9057 3.9199 10.7405 3.98318Z" fill="#43C5FF"/>
</g>
<defs>
<clipPath id="clip0_207_345">
<rect width="18" height="18" fill="white"/>
</clipPath>
</defs>
</svg>
