<svg width="18" height="18" viewBox="0 0 18 18" fill="none" xmlns="http://www.w3.org/2000/svg">
<g clip-path="url(#clip0_26_219)">
<path d="M1.90735e-06 9.17612C0.111486 9.47437 0.285883 9.7164 0.613708 9.79195C0.759687 9.82562 0.914412 9.82132 1.08184 9.83567C1.08464 9.89742 1.08977 9.95931 1.08983 10.0211C1.09031 11.1226 1.08901 12.224 1.09052 13.3255C1.09277 14.9583 2.10412 16.3096 3.67178 16.7713C3.78047 16.8032 3.82029 16.8537 3.81285 16.9674C3.80567 17.0773 3.81742 17.1897 3.83156 17.2995C3.88683 17.7277 4.24922 18.0192 4.69556 17.999C5.09484 17.981 5.4284 17.6446 5.4493 17.2356C5.45436 17.1369 5.45005 17.0378 5.45005 16.9246C7.81682 16.9246 10.1682 16.9246 12.5502 16.9246C12.5502 17.0238 12.5459 17.127 12.551 17.2298C12.5717 17.6483 12.9089 17.9856 13.3171 17.9994C13.7628 18.0144 14.1136 17.7222 14.1716 17.2877C14.177 17.2471 14.1954 17.2039 14.1872 17.1665C14.1226 16.8703 14.2894 16.791 14.5385 16.6997C15.8246 16.2284 16.5905 15.2962 16.8627 13.9599C16.9055 13.7499 16.9076 13.5292 16.9085 13.3134C16.9128 12.2237 16.9104 11.134 16.9104 10.0442C16.9104 9.98014 16.9104 9.916 16.9104 9.83512C17.038 9.82624 17.1583 9.8203 17.278 9.80909C17.6882 9.77084 18.0005 9.41952 18.0001 8.99899C17.9998 8.57902 17.6867 8.22858 17.2754 8.19163C17.1706 8.1822 17.0649 8.1792 16.9596 8.1792C12.3077 8.17858 7.65588 8.17872 3.00397 8.17872C2.92289 8.17872 2.84187 8.17872 2.75116 8.17872C2.74508 8.11874 2.73668 8.07413 2.73668 8.02953C2.73606 6.36561 2.73333 4.70169 2.73763 3.03784C2.73934 2.37973 3.1145 1.87847 3.71974 1.69758C4.54527 1.45084 5.38188 2.04542 5.44459 2.93483C5.46467 3.21927 5.44773 3.50632 5.44773 3.79671C5.31295 3.80859 5.19129 3.81501 5.07079 3.83066C4.6489 3.88537 4.34669 4.24578 4.36179 4.67191C4.37675 5.09257 4.7125 5.44218 5.13999 5.44812C5.89558 5.45858 6.65144 5.45851 7.40702 5.44812C7.8324 5.44232 8.16316 5.09762 8.18632 4.67047C8.20879 4.25664 7.89476 3.88483 7.47349 3.83032C7.35777 3.81536 7.24089 3.80948 7.0984 3.79719C7.0984 3.67976 7.09648 3.55926 7.09874 3.43883C7.10816 2.92766 7.09368 2.4197 6.89524 1.93687C6.45778 0.872726 5.67603 0.234565 4.54015 0.0343458C4.51392 0.0297007 4.49001 0.0118716 4.46501 0.00012207C4.21889 0.00012207 3.97283 0.00012207 3.7267 0.00012207C3.64924 0.0195224 3.57219 0.0406305 3.49431 0.0580497C2.04093 0.383688 1.09141 1.56786 1.09045 3.05984C1.08936 4.69404 1.09018 6.32824 1.09018 7.96238C1.09018 8.0298 1.09018 8.09722 1.09018 8.1643C0.914207 8.1794 0.759483 8.1751 0.613503 8.20884C0.285814 8.28446 0.111485 8.52642 6.86646e-05 8.8246C1.90735e-06 8.94175 1.90735e-06 9.0589 1.90735e-06 9.17612ZM2.73606 9.83437C6.927 9.83437 11.0888 9.83437 15.2551 9.83437C15.2588 9.88676 15.2641 9.9272 15.2641 9.96764C15.2644 11.0981 15.2648 12.2287 15.2633 13.3591C15.2632 13.4583 15.2616 13.5594 15.2434 13.6562C15.0575 14.642 14.3116 15.263 13.3049 15.2638C10.4347 15.2658 7.56455 15.2647 4.69433 15.2637C4.57765 15.2637 4.45852 15.2645 4.34458 15.2432C3.35871 15.0583 2.73907 14.3117 2.73661 13.3052C2.73394 12.204 2.73599 11.1028 2.73592 10.0016C2.73606 9.94954 2.73606 9.89756 2.73606 9.83437Z" fill="#43C5FF"/>
</g>
<defs>
<clipPath id="clip0_26_219">
<rect width="18.0001" height="18" fill="white" transform="matrix(-1 0 0 1 18.0001 0)"/>
</clipPath>
</defs>
</svg>
