<svg width="18" height="19" viewBox="0 0 18 19" fill="none" xmlns="http://www.w3.org/2000/svg">
<path d="M15.6053 18.5C15.5762 18.4844 15.548 18.4668 15.5179 18.4533C15.0459 18.2425 14.9253 17.6832 15.2785 17.304C15.4934 17.0733 15.7231 16.8563 15.9777 16.6014C15.8772 16.6014 15.8111 16.6014 15.745 16.6014C12.0852 16.6014 8.42538 16.5919 4.76567 16.6064C3.41805 16.6117 2.22817 15.6797 1.95894 14.3682C1.91814 14.1695 1.90089 13.9625 1.90071 13.7594C1.89733 10.087 1.89824 6.41472 1.89824 2.74235C1.89824 2.67437 1.89824 2.6064 1.89824 2.53842C1.87881 2.52503 1.85934 2.51165 1.83991 2.49826C1.67186 2.68205 1.4933 2.85739 1.33789 3.05133C0.967199 3.51391 0.29077 3.54226 0.000137329 2.85602C0.000137329 2.73883 0.000137329 2.62165 0.000137329 2.50446C0.13343 2.33134 0.252958 2.14505 0.402974 1.98788C0.70614 1.67017 1.02448 1.36684 1.33902 1.06012C2.10237 0.315717 3.16499 0.312935 3.92788 1.05494C4.31002 1.42661 4.69096 1.79962 5.065 2.17939C5.2874 2.4052 5.33317 2.70259 5.2092 2.97218C5.0839 3.24477 4.81939 3.42163 4.51651 3.37284C4.34921 3.3459 4.17437 3.25361 4.04245 3.14347C3.79604 2.93777 3.57842 2.69752 3.34863 2.47184C3.34475 2.46804 3.33845 2.46667 3.31782 2.45663C3.31275 2.50446 3.30434 2.5468 3.30434 2.58914C3.30374 6.29186 3.30296 9.99455 3.30448 13.6973C3.30476 14.4204 3.69193 14.9507 4.35677 15.136C4.50116 15.1762 4.65656 15.1931 4.80693 15.1932C8.49119 15.1963 12.1755 15.1956 15.8597 15.1956C15.91 15.1956 15.9602 15.1956 16.0406 15.1956C15.7738 14.9263 15.5286 14.6864 15.2922 14.4382C14.9814 14.1118 15.0107 13.6325 15.35 13.3727C15.6186 13.1671 15.987 13.1614 16.2368 13.3982C16.7 13.8373 17.1655 14.2769 17.5927 14.7501C18.148 15.3652 18.1317 16.3983 17.5685 17.0061C17.1508 17.4569 16.7034 17.8804 16.2619 18.3085C16.1775 18.3902 16.0594 18.437 15.9568 18.5C15.8396 18.5 15.7225 18.5 15.6053 18.5Z" fill="#43C5FF"/>
<path d="M17.995 7.10934C17.995 8.65559 17.996 10.2018 17.9942 11.748C17.9938 12.1125 17.7301 12.4106 17.3848 12.45C17.0205 12.4916 16.6934 12.2697 16.6076 11.914C16.5874 11.8302 16.5903 11.7398 16.5903 11.6524C16.5895 8.68296 16.5893 5.7135 16.5903 2.74401C16.5903 2.5345 16.563 2.33645 16.4233 2.1679C16.2604 1.97122 16.0444 1.90634 15.7994 1.90645C14.6517 1.90687 13.504 1.90662 12.3563 1.90662C10.5059 1.90662 8.65556 1.90616 6.8052 1.90705C6.51488 1.90719 6.29625 1.78338 6.1606 1.52963C6.03128 1.28769 6.04853 1.04162 6.19802 0.814399C6.33994 0.59866 6.54836 0.499684 6.80893 0.500001C8.23769 0.501797 9.66646 0.500846 11.0952 0.500846C12.6762 0.500846 14.2573 0.500247 15.8383 0.501057C17.081 0.501691 17.9944 1.41787 17.9949 2.66398C17.9956 4.14573 17.9951 5.62752 17.995 7.10934Z" fill="#43C5FF"/>
<path d="M4.71001 9.65451C4.71001 8.94576 4.71398 8.23694 4.70811 7.52822C4.70568 7.23407 4.8039 6.99956 5.06285 6.85212C5.32032 6.70549 5.57514 6.72739 5.82476 6.88621C5.8644 6.91147 5.93418 6.91506 5.98069 6.89992C6.61829 6.69266 7.21568 6.76691 7.76452 7.15595C7.85768 7.22199 7.91482 7.19945 7.99368 7.14559C9.13125 6.36862 10.641 6.92912 10.9783 8.25539C11.0139 8.39547 11.0327 8.54366 11.0334 8.68821C11.038 9.73084 11.0367 10.7735 11.0356 11.8162C11.0351 12.2449 10.7398 12.5555 10.3363 12.557C9.93224 12.5584 9.63161 12.2478 9.63101 11.8222C9.6296 10.8147 9.63017 9.80717 9.6308 8.79966C9.63094 8.56641 9.55662 8.37364 9.33936 8.26064C8.97961 8.07354 8.58466 8.32982 8.57748 8.76154C8.57019 9.20074 8.57575 9.64014 8.57572 10.0795C8.57568 10.6418 8.57593 11.2041 8.57565 11.7665C8.5754 12.246 8.301 12.5567 7.87732 12.5582C7.44516 12.5598 7.17044 12.249 7.17033 11.7575C7.17016 10.7852 7.17132 9.8128 7.16864 8.84044C7.16836 8.74224 7.15903 8.63996 7.13048 8.54672C7.06703 8.33947 6.84868 8.19439 6.63244 8.19921C6.4212 8.20393 6.21436 8.34814 6.15423 8.54982C6.12634 8.64334 6.11729 8.74545 6.11705 8.84372C6.11444 9.84535 6.11677 10.847 6.11469 11.8487C6.11391 12.2157 5.85486 12.514 5.5105 12.5552C5.14421 12.5991 4.82041 12.3816 4.72979 12.0244C4.71145 11.952 4.71096 11.8738 4.71082 11.7983C4.70948 11.0837 4.71001 10.3691 4.71001 9.65451Z" fill="#43C5FF"/>
<path d="M14.2849 7.65624C14.422 7.67283 14.5638 7.6716 14.6942 7.70943C15.0316 7.80721 15.2297 8.13668 15.179 8.48584C15.1309 8.81747 14.8401 9.07473 14.4963 9.07685C13.864 9.08076 13.2317 9.08019 12.5994 9.07716C12.2968 9.07572 12.0688 8.93888 11.9442 8.66069C11.8232 8.39053 11.8595 8.12886 12.0612 7.91157C12.3238 7.62852 12.6163 7.37224 12.8686 7.08067C13.1469 6.75887 13.3966 6.41203 13.6533 6.07192C13.7163 5.98841 13.7773 5.87957 13.6736 5.79021C13.6199 5.744 13.5255 5.71226 13.4573 5.72308C13.3298 5.74326 13.2953 5.85379 13.2831 5.97428C13.2414 6.38695 12.9314 6.64443 12.5146 6.61823C12.1495 6.59526 11.8742 6.27942 11.8804 5.89059C11.8938 5.05141 12.5669 4.34847 13.4033 4.30046C14.261 4.25122 14.9913 4.84409 15.1237 5.6745C15.1865 6.06854 15.0911 6.42094 14.8958 6.74749C14.7104 7.05763 14.4934 7.34885 14.2849 7.65624Z" fill="#43C5FF"/>
</svg>
