<svg width="40" height="40" viewBox="0 0 40 40" fill="none" xmlns="http://www.w3.org/2000/svg">
<g clip-path="url(#clip0_311_8)">
<path d="M20 39.5C9.23044 39.5 0.5 30.7696 0.5 20C0.5 9.23044 9.23044 0.5 20 0.5C30.7696 0.5 39.5 9.23044 39.5 20C39.5 30.7696 30.7696 39.5 20 39.5Z" stroke="#D9D9D9"/>
<path d="M30 20C30 14.5 25.5 10 20 10C14.5 10 10 14.5 10 20C10 25 13.625 29.125 18.375 29.875V22.875H15.875V20H18.375V17.75C18.375 15.25 19.875 13.875 22.125 13.875C23.25 13.875 24.375 14.125 24.375 14.125V16.625H23.125C21.875 16.625 21.5 17.375 21.5 18.125V20H24.25L23.75 22.875H21.375V30C26.375 29.25 30 25 30 20Z" fill="#BEBEBE"/>
</g>
<defs>
<clipPath id="clip0_311_8">
<rect width="40" height="40" fill="white"/>
</clipPath>
</defs>
</svg>
