<svg width="40" height="40" viewBox="0 0 40 40" fill="none" xmlns="http://www.w3.org/2000/svg">
<g clip-path="url(#clip0_311_15)">
<path d="M20 39.5C9.23044 39.5 0.5 30.7696 0.5 20C0.5 9.23044 9.23044 0.5 20 0.5C30.7696 0.5 39.5 9.23044 39.5 20C39.5 30.7696 30.7696 39.5 20 39.5Z" stroke="#D9D9D9"/>
<g clip-path="url(#clip1_311_15)">
<path d="M19.6875 10.3125C14.3372 10.3125 10 14.6497 10 20C10 25.3503 14.3372 29.6875 19.6875 29.6875C25.0378 29.6875 29.375 25.3503 29.375 20C29.375 14.6497 25.0378 10.3125 19.6875 10.3125ZM24.1778 16.9008C24.032 18.4326 23.4012 22.1499 23.0802 23.8656C22.9444 24.5916 22.677 24.835 22.4181 24.8588C21.8556 24.9106 21.4284 24.487 20.8835 24.1298C20.0309 23.5709 19.5492 23.223 18.7215 22.6776C17.7651 22.0473 18.3851 21.7011 18.9302 21.1346C19.0729 20.9865 21.5516 18.7319 21.5995 18.5274C21.6055 18.5018 21.6112 18.4063 21.5545 18.3561C21.4977 18.306 21.4142 18.323 21.3539 18.3366C21.2684 18.356 19.9063 19.2563 17.2676 21.0375C16.881 21.3029 16.5308 21.4323 16.2171 21.4255C15.8712 21.418 15.2058 21.23 14.7112 21.0691C14.1045 20.872 13.6223 20.7677 13.6643 20.4328C13.6862 20.2583 13.9264 20.0799 14.385 19.8976C17.2091 18.6672 19.0923 17.856 20.0345 17.464C22.7248 16.345 23.2839 16.1506 23.6482 16.1441C23.7284 16.1428 23.9076 16.1627 24.0236 16.2568C24.1008 16.3239 24.15 16.4175 24.1615 16.5192C24.1812 16.6454 24.1867 16.7734 24.1778 16.9008Z" fill="#BEBEBE"/>
</g>
</g>
<defs>
<clipPath id="clip0_311_15">
<rect width="40" height="40" fill="white"/>
</clipPath>
<clipPath id="clip1_311_15">
<rect width="19.375" height="20" fill="white" transform="translate(10 10)"/>
</clipPath>
</defs>
</svg>
