<svg width="40" height="40" viewBox="0 0 40 40" fill="none" xmlns="http://www.w3.org/2000/svg">
<g clip-path="url(#clip0_311_11)">
<path d="M20 39.5C9.23044 39.5 0.5 30.7696 0.5 20C0.5 9.23044 9.23044 0.5 20 0.5C30.7696 0.5 39.5 9.23044 39.5 20C39.5 30.7696 30.7696 39.5 20 39.5Z" stroke="#D9D9D9"/>
<path d="M14.5313 15.8594C12.9805 16.0508 11.6992 17.043 11.1211 18.5C10.9219 19 10.8477 19.4219 10.8477 20C10.8477 20.5781 10.9219 21 11.1211 21.5C11.6641 22.875 12.8008 23.8125 14.2773 24.1055C14.4727 24.1445 14.8789 24.1602 15.7227 24.1602H16.8945L17.0781 24.0508C17.5195 23.793 17.625 23.1953 17.3008 22.8008C17.0781 22.5312 17.0313 22.5234 15.7031 22.4961C14.625 22.4766 14.4883 22.4688 14.2578 22.3906C13.0234 21.9805 12.2969 20.7305 12.5586 19.4727C12.707 18.7617 13.2227 18.0977 13.8672 17.7773C14.3672 17.5352 14.582 17.5 15.7578 17.5C16.9102 17.5 17.0117 17.4805 17.25 17.2461C17.6328 16.8633 17.5508 16.2266 17.0781 15.9492L16.8945 15.8398L15.8398 15.832C15.2617 15.832 14.6719 15.8438 14.5313 15.8594Z" fill="#BEBEBE"/>
<path d="M23.1332 15.8555C22.9066 15.9141 22.7113 16.0742 22.6019 16.293C22.43 16.6406 22.4808 16.9766 22.7464 17.2422C22.9886 17.4844 23.0863 17.5 24.2425 17.5C25.4183 17.5 25.6332 17.5352 26.1332 17.7773C26.9457 18.1797 27.5004 19.0781 27.5004 20C27.5004 21.0742 26.7816 22.0469 25.7308 22.3945C25.516 22.4648 25.3558 22.4766 24.2738 22.4961L23.0589 22.5195L22.8988 22.6289C22.6644 22.7812 22.5355 22.9961 22.5121 23.2695C22.4847 23.582 22.6332 23.8711 22.9105 24.043L23.098 24.1602H24.2933C25.3011 24.1602 25.5394 24.1484 25.8129 24.0898C26.6214 23.9102 27.2699 23.5742 27.848 23.0273C28.2464 22.6523 28.4886 22.3203 28.7347 21.8164C29.3949 20.4531 29.2933 18.9414 28.4457 17.6602C28.2504 17.3633 27.7777 16.875 27.4613 16.6406C27.1761 16.4297 26.6254 16.1406 26.3089 16.0391C25.7933 15.875 25.5902 15.8516 24.4144 15.8398C23.7816 15.832 23.2035 15.8398 23.1332 15.8555Z" fill="#BEBEBE"/>
<path d="M16.3281 19.2422C15.6523 19.5351 15.6992 20.5781 16.3984 20.7812C16.5 20.8125 17.6406 20.8203 20.0859 20.8125L23.625 20.8008L23.7968 20.6836C24.3359 20.3047 24.2578 19.4883 23.664 19.2383C23.5351 19.1875 23.0898 19.1797 19.9921 19.1797C16.9296 19.1836 16.4453 19.1914 16.3281 19.2422Z" fill="#BEBEBE"/>
</g>
<defs>
<clipPath id="clip0_311_11">
<rect width="40" height="40" fill="white"/>
</clipPath>
</defs>
</svg>
