<svg width="30" height="30" viewBox="0 0 30 30" fill="none" xmlns="http://www.w3.org/2000/svg">
<g clip-path="url(#clip0_210_58)">
<path d="M13.6495 0.0562834C11.6733 0.262656 9.48449 1.04437 7.83977 2.14502C5.90737 3.43329 4.35645 5.19683 3.33084 7.27306C1.97379 10.0247 1.64234 13.1265 2.39279 16.022C3.54972 20.4809 7.58962 25.2963 13.4181 29.1736C14.575 29.9428 14.8127 30.0553 15.2004 29.9803C15.5881 29.9052 17.7581 28.4294 19.3091 27.1911C21.7293 25.24 23.7867 23.0949 25.2001 21.0312C27.3513 17.8919 28.2519 14.8463 27.9392 11.7382C27.3138 5.55329 22.4484 0.687908 16.251 0.0562834C15.5193 -0.0187611 14.3874 -0.0187611 13.6495 0.0562834ZM16.1509 2.05122C19.9469 2.48898 23.1488 4.7278 24.8624 8.14858C26.0506 10.5312 26.307 13.2391 25.5815 15.7719C24.4871 19.5929 20.7662 23.9267 15.5443 27.4663L14.994 27.8415L14.4437 27.4663C10.1474 24.5583 6.7954 21.0437 5.2007 17.7793C4.01875 15.3466 3.71857 13.1703 4.23763 10.7001C4.90052 7.53572 7.02678 4.75282 9.93476 3.23942C11.8734 2.23883 14.0747 1.81358 16.1509 2.05122Z" fill="#43C5FF"/>
<path d="M13.9488 7.08553C12.6918 7.31066 11.6662 7.86099 10.7406 8.79904C9.93387 9.61202 9.41481 10.5376 9.1334 11.657C8.98331 12.2511 8.98331 13.7395 9.1334 14.3336C9.41481 15.453 9.93387 16.3785 10.7406 17.1915C11.8475 18.3172 13.1483 18.8988 14.7117 18.9801C16.444 19.0676 17.9574 18.4735 19.2144 17.2165C20.0711 16.3598 20.5652 15.4905 20.8528 14.3336C21.0029 13.7395 21.0029 12.2511 20.8528 11.657C20.6965 11.0379 20.4026 10.3437 20.0711 9.80589C19.6834 9.16801 18.7829 8.28624 18.1262 7.87975C16.9005 7.1293 15.3433 6.82912 13.9488 7.08553ZM15.8374 9.08671C17.1882 9.36813 18.3951 10.4813 18.8266 11.8383C19.0205 12.4575 19.0205 13.5331 18.8266 14.1522C18.4327 15.3967 17.3945 16.4348 16.1501 16.8288C15.7936 16.9414 15.5685 16.9664 14.9619 16.9664C14.3115 16.9601 14.1489 16.9351 13.7549 16.7975C13.0982 16.5599 12.6542 16.2785 12.1477 15.7782C10.603 14.2398 10.6155 11.7445 12.179 10.1811C13.1483 9.20553 14.4928 8.8053 15.8374 9.08671Z" fill="#43C5FF"/>
</g>
<defs>
<clipPath id="clip0_210_58">
<rect width="30" height="30" fill="white"/>
</clipPath>
</defs>
</svg>
