<svg width="30" height="30" viewBox="0 0 30 30" fill="none" xmlns="http://www.w3.org/2000/svg">
<path d="M6.18572 2.06341C5.44909 2.19556 4.8039 2.53611 4.22476 3.10539C2.30444 4.99112 1.5678 8.11706 2.24855 11.4971C3.12235 15.8531 6.00791 20.3057 10.0721 23.5892C10.824 24.1941 11.0424 24.2754 11.5149 24.1382C11.9365 24.0111 12.2617 23.4926 12.1905 23.0555C12.1296 22.6895 12.0077 22.5371 11.2253 21.9017C7.28813 18.6894 4.57529 14.2317 4.10283 10.1909C3.88946 8.36104 4.17396 6.72945 4.92075 5.48924C5.20016 5.0267 5.5761 4.56924 5.85043 4.36593C6.1654 4.1372 6.63786 4.00505 7.04428 4.03555C7.60818 4.08129 7.94348 4.27952 8.5023 4.88438C9.91968 6.40923 10.4937 7.60878 10.255 8.54402C10.1077 9.10821 9.92476 9.35219 8.64963 10.6483C7.40497 11.919 7.32877 12.0308 7.32877 12.4375C7.33385 12.7526 7.81647 13.6777 8.56326 14.7959C10.2296 17.2865 12.7138 19.772 15.2031 21.4392C16.3208 22.1863 17.2454 22.6692 17.5603 22.6743C17.9668 22.6743 18.0785 22.5981 19.3486 21.3528C20.644 20.077 20.8879 19.894 21.4518 19.7466C22.3865 19.5077 23.5855 20.0821 25.1095 21.5002C25.7141 22.0593 25.9122 22.3947 25.9579 22.9589C25.9884 23.3656 25.8563 23.8383 25.6277 24.1534C25.1603 24.7837 24.0071 25.4597 22.8895 25.7494C21.086 26.2221 18.4291 25.8816 16.1938 24.8955C15.7061 24.682 15.2641 24.6719 14.9643 24.8701C14.6494 25.0785 14.5173 25.3275 14.5173 25.724C14.5173 25.9832 14.5427 26.095 14.6392 26.2475C14.8018 26.5118 14.9999 26.6287 15.8635 26.9591C18.4646 27.9554 20.8574 28.24 23.0012 27.7978C24.5761 27.4776 25.8919 26.7914 26.8876 25.7799C27.9849 24.6566 28.2898 23.1368 27.7157 21.6526C27.4414 20.9411 26.9638 20.3769 25.8767 19.467C24.1595 18.0286 22.6812 17.4695 21.2537 17.7135C20.2274 17.8913 19.567 18.298 18.2716 19.5433L17.3774 20.4023L17.22 20.3108C16.905 20.1329 15.9347 19.4823 15.5079 19.1671C13.3234 17.5559 11.078 15.111 9.82316 12.9813L9.60471 12.6103L10.4633 11.7208C11.7028 10.4298 12.1093 9.76898 12.2871 8.74225C12.4496 7.80701 12.2464 6.79044 11.7079 5.79929C11.1135 4.70648 9.80792 3.1613 9.05605 2.64793C8.24321 2.09899 7.18145 1.88042 6.18572 2.06341Z" fill="#43C5FF"/>
<path d="M15.1523 3.1918C14.9288 3.3087 14.8475 3.39003 14.7307 3.61367C14.6036 3.85257 14.5884 3.93389 14.6087 4.1677C14.6443 4.493 14.8119 4.77256 15.0812 4.94029C15.2438 5.03687 15.386 5.06228 16.143 5.11819C17.5146 5.21985 18.5154 5.46891 19.5975 5.97211C21.4975 6.8616 23.1435 8.50844 24.0173 10.3993C24.5304 11.5073 24.7742 12.4832 24.8758 13.8607C24.9317 14.6638 24.9521 14.7552 25.074 14.9382C25.2467 15.2025 25.5058 15.355 25.8309 15.3906C26.0595 15.4109 26.1408 15.3957 26.3796 15.2686C26.6031 15.1517 26.6844 15.0704 26.8013 14.8467C26.9486 14.5672 26.9486 14.5672 26.9181 13.881C26.7759 10.7906 25.5312 8.12215 23.2502 5.99752C21.34 4.22361 18.8355 3.19688 16.1176 3.07489C15.4317 3.04439 15.4317 3.04439 15.1523 3.1918Z" fill="#43C5FF"/>
<path d="M17.5146 7.74601C17.0117 7.94424 16.7424 8.44744 16.8796 8.95573C16.9761 9.31661 17.2708 9.56059 17.8397 9.75882C19.0438 10.1756 19.8769 11.0346 20.2833 12.2799C20.5475 13.083 21.2282 13.3778 21.8734 12.9661C22.3002 12.6967 22.4018 12.2443 22.1884 11.5886C21.8785 10.628 21.4873 9.99771 20.7456 9.25053C19.9938 8.50336 19.379 8.11706 18.424 7.80701C18.0023 7.66977 17.7534 7.65452 17.5146 7.74601Z" fill="#43C5FF"/>
</svg>
