<svg width="30" height="30" viewBox="0 0 30 30" fill="none" xmlns="http://www.w3.org/2000/svg">
<path d="M4.29531 4.09817C3.7418 4.24544 3.3457 4.47395 2.91406 4.91067C2.47227 5.34739 2.24883 5.73841 2.10156 6.31223C2.01016 6.65755 2 6.87591 2 8.1302V9.55716L7.67734 13.7771C10.7953 16.0978 13.4918 18.0681 13.6645 18.1595C14.4871 18.5708 15.5129 18.5708 16.3305 18.1595C16.6352 18.0072 16.9855 17.7532 20.134 15.4122C20.9312 14.8181 23.0285 13.2591 24.7957 11.949L28 9.56223V8.13528C28 6.87591 27.9898 6.65755 27.8984 6.31223C27.7512 5.73841 27.5277 5.34739 27.0859 4.91067C26.6492 4.46887 26.2582 4.24544 25.6844 4.09817C25.2984 3.99661 25.0902 3.99661 14.9797 4.00169C4.99102 4.00169 4.65586 4.00676 4.29531 4.09817ZM25.4762 6.17512C25.5828 6.24114 25.7301 6.38841 25.8062 6.50012C25.9383 6.70325 25.9434 6.72356 25.9586 7.62239L25.9738 8.54153L20.8145 12.3755C17.9809 14.4829 15.5637 16.2603 15.4469 16.3212C15.1727 16.4736 14.8273 16.4736 14.5531 16.3212C14.4363 16.2603 12.0242 14.4829 9.19062 12.3755L4.03633 8.54153L4.03125 7.72903C4.03125 7.28216 4.05664 6.8302 4.08711 6.72356C4.15313 6.48489 4.47812 6.14973 4.70156 6.08372C4.8082 6.05325 8.72851 6.03801 15.0762 6.04309L25.2832 6.05325L25.4762 6.17512Z" fill="#43C5FF"/>
<path d="M2 17.2657C2 22.2271 2.00508 22.4302 2.10156 22.806C2.24883 23.3798 2.47227 23.7708 2.91406 24.2075C3.35078 24.6493 3.7418 24.8728 4.31562 25.02C4.70156 25.1216 4.91484 25.1216 15 25.1216C25.0852 25.1216 25.2984 25.1216 25.6844 25.02C26.2582 24.8728 26.6492 24.6493 27.0859 24.2075C27.5277 23.7708 27.7512 23.3798 27.8984 22.806C27.9949 22.4302 28 22.2271 28 17.2657C28 14.4372 27.9898 12.1216 27.9746 12.1216C27.9594 12.1216 27.5074 12.4568 26.959 12.863L25.9688 13.5993L25.9586 18.0072L25.9434 22.4099L25.8062 22.6181C25.7301 22.7298 25.5828 22.8771 25.4762 22.9431L25.2832 23.065H4.71172L4.50352 22.9279C4.3918 22.8517 4.24453 22.7044 4.17852 22.5978L4.05664 22.4048L4.04141 18.0021L4.03125 13.5943L3.03594 12.8579C2.49258 12.4517 2.03555 12.1216 2.02539 12.1216C2.01016 12.1216 2 14.4372 2 17.2657Z" fill="#43C5FF"/>
</svg>
