<svg width="40" height="40" viewBox="0 0 40 40" fill="none" xmlns="http://www.w3.org/2000/svg">
<g clip-path="url(#clip0_210_31)">
<path d="M20 39.5C9.23044 39.5 0.5 30.7696 0.5 20C0.5 9.23044 9.23044 0.5 20 0.5C30.7696 0.5 39.5 9.23044 39.5 20C39.5 30.7696 30.7696 39.5 20 39.5Z" stroke="#D1D1D1"/>
<path d="M27.9441 15.9264C27.9568 16.1041 27.9568 16.2818 27.9568 16.4594C27.9568 21.8782 23.8325 28.1218 16.2944 28.1218C13.9721 28.1218 11.8147 27.4492 10 26.2818C10.33 26.3198 10.6472 26.3325 10.9898 26.3325C12.9061 26.3325 14.67 25.6853 16.0787 24.5813C14.2766 24.5432 12.7665 23.363 12.2462 21.7386C12.5 21.7766 12.7538 21.802 13.0203 21.802C13.3883 21.802 13.7564 21.7513 14.099 21.6625C12.2208 21.2817 10.8121 19.632 10.8121 17.6396V17.5889C11.3578 17.8934 11.9924 18.0838 12.6649 18.1091C11.5609 17.3731 10.8375 16.1168 10.8375 14.6954C10.8375 13.934 11.0405 13.2361 11.3959 12.6269C13.4137 15.1142 16.4467 16.7386 19.8477 16.9163C19.7842 16.6117 19.7461 16.2945 19.7461 15.9772C19.7461 13.7183 21.5736 11.8782 23.8451 11.8782C25.0253 11.8782 26.0913 12.3731 26.84 13.1726C27.7664 12.995 28.6547 12.6523 29.4416 12.1828C29.137 13.1346 28.4898 13.9341 27.6395 14.4416C28.4644 14.3529 29.2639 14.1244 29.9999 13.8071C29.4416 14.6193 28.7436 15.3426 27.9441 15.9264Z" fill="#D1D1D1"/>
</g>
<defs>
<clipPath id="clip0_210_31">
<rect width="40" height="40" fill="white"/>
</clipPath>
</defs>
</svg>
