<svg width="80" height="80" viewBox="0 0 80 80" fill="none" xmlns="http://www.w3.org/2000/svg">
<path d="M0 75.2889C0 74.4369 0 73.6393 0 72.7733C1.63602 72.7733 3.2382 72.7733 4.92875 72.7733C4.92875 50.5266 4.92875 28.3486 4.92875 6.00098C14.9492 10.0782 24.8343 14.1005 34.8235 18.165C34.8235 14.0809 34.8235 10.1155 34.8235 6.03912C36.4573 6.70056 37.9925 7.31609 39.5233 7.94239C48.4548 11.5959 57.3834 15.2563 66.3202 18.8965C66.8885 19.1279 67.1113 19.398 67.1105 20.0558C67.0868 37.2466 67.0917 54.4376 67.0917 71.6287C67.0917 71.9748 67.0917 72.3207 67.0917 72.7186C68.9282 72.7186 70.7129 72.7186 72.5468 72.7186C72.5468 70.8909 72.5468 69.0737 72.5468 67.442C71.5166 66.7682 70.4539 66.2691 69.6418 65.5038C67.5258 63.5091 67.2637 60.2166 68.9377 57.8454C69.2101 57.4597 69.2982 57.1413 69.2006 56.6842C68.7739 54.6894 69.57 52.7482 71.2328 51.6292C72.8533 50.5386 74.9891 50.5391 76.6223 51.6305C78.2684 52.7305 79.0514 54.6997 78.7012 56.704C78.6417 57.0448 78.7159 57.4972 78.9049 57.7795C81.1836 61.1798 79.7715 65.6003 75.9178 66.9605C75.3869 67.148 75.243 67.4008 75.255 67.9342C75.2902 69.5112 75.2675 71.0894 75.2675 72.7505C76.4645 72.7505 77.5533 72.7505 78.6777 72.7505C78.6777 73.6328 78.6777 74.4307 78.6777 75.2886C52.4738 75.2889 26.2707 75.2889 0 75.2889ZM64.5326 67.6896C64.5326 67.3277 64.5326 67.0605 64.5326 66.7935C64.5326 51.8091 64.527 36.8248 64.5503 21.8405C64.5514 21.1581 64.3223 20.8752 63.7175 20.631C57.0293 17.9283 50.3531 15.1962 43.6732 12.4729C41.6184 11.6351 39.5626 10.8 37.4597 9.94437C37.4597 29.2404 37.4597 48.452 37.4597 67.6898C46.4873 67.6896 55.4579 67.6896 64.5326 67.6896ZM7.6232 62.5559C11.7914 62.5559 15.8673 62.5559 20.0101 62.5559C20.0101 61.222 20.0101 59.9362 20.0101 58.6504C20.0101 44.3683 20.0088 30.0861 20.0154 15.804C20.0157 15.3005 20.0172 14.9106 19.4135 14.6723C15.6731 13.1955 11.9506 11.6735 8.22019 10.1711C8.03506 10.0965 7.83247 10.0648 7.62341 10.0092C7.6232 27.552 7.6232 45.0275 7.6232 62.5559ZM22.5769 62.5462C26.6977 62.5462 30.7396 62.5462 34.7713 62.5462C34.7713 60.1873 34.7713 57.8875 34.7713 55.5038C33.3911 55.5038 32.0607 55.5038 30.7096 55.5038C30.7096 54.6036 30.7096 53.7887 30.7096 52.8984C32.0997 52.8984 33.4312 52.8984 34.7698 52.8984C34.7698 50.3904 34.7698 47.9595 34.7698 45.4476C33.3877 45.4476 32.057 45.4476 30.71 45.4476C30.71 44.5491 30.71 43.7329 30.71 42.8292C32.1019 42.8292 33.4362 42.8292 34.7601 42.8292C34.7601 40.6587 34.7601 38.5779 34.7601 36.4177C33.3681 36.4177 32.0376 36.4177 30.6934 36.4177C30.6934 35.5422 30.6934 34.7478 30.6934 33.85C32.0855 33.85 33.4375 33.85 34.7795 33.85C34.7795 31.6855 34.7795 29.6253 34.7795 27.4708C33.4062 27.4708 32.0745 27.4708 30.7023 27.4708C30.7023 26.5593 30.7023 25.7431 30.7023 24.8436C32.0827 24.8436 33.4131 24.8436 34.8228 24.8436C34.8228 23.7468 34.7827 22.7299 34.8386 21.7183C34.8698 21.1517 34.6418 20.9409 34.1526 20.7456C30.8659 19.4338 27.5925 18.0878 24.3144 16.754C23.7554 16.5266 23.194 16.3046 22.6092 16.0706C22.6092 17.5908 22.6092 19.0032 22.6092 20.5068C23.9073 20.5068 25.1539 20.5068 26.3735 20.5068C26.3735 21.3959 26.3735 22.1916 26.3735 23.078C25.0787 23.078 23.8319 23.078 22.5978 23.078C22.5978 25.3658 22.5978 27.5613 22.5978 29.8497C23.8836 29.8497 25.1302 29.8497 26.3572 29.8497C26.3572 30.7603 26.3572 31.5758 26.3572 32.4562C25.0651 32.4562 23.839 32.4562 22.6155 32.4562C22.6155 34.7403 22.6155 36.9552 22.6155 39.2404C23.9004 39.2404 25.1265 39.2404 26.3744 39.2404C26.3744 40.1311 26.3744 40.9501 26.3744 41.8781C25.0832 41.8781 23.8375 41.8781 22.5993 41.8781C22.5993 44.1836 22.5993 46.3789 22.5993 48.6845C23.8845 48.6845 25.1291 48.6845 26.3589 48.6845C26.3589 49.613 26.3589 50.4285 26.3589 51.3124C25.0696 51.3124 23.8446 51.3124 22.6075 51.3124C22.6075 53.5988 22.6075 55.8144 22.6075 58.1241C23.9037 58.1241 25.1505 58.1241 26.3772 58.1241C26.3772 59.0168 26.3772 59.8138 26.3772 60.7086C25.0862 60.7086 23.8388 60.7086 22.5769 60.7086C22.5769 61.3688 22.5769 61.9296 22.5769 62.5462ZM37.3683 72.7043C46.4799 72.7043 55.4624 72.7043 64.438 72.7043C64.438 71.8961 64.438 71.1558 64.438 70.3974C55.4014 70.3974 46.4159 70.3974 37.3683 70.3974C37.3683 70.9259 37.3683 71.4056 37.3683 71.8851C37.3683 72.1485 37.3683 72.4119 37.3683 72.7043ZM75.2539 57.9142C75.4766 57.537 75.693 57.2008 75.8796 56.8487C76.3921 55.882 76.1893 54.7391 75.3996 54.0699C74.574 53.3702 73.3434 53.3671 72.514 54.0624C71.7272 54.7221 71.5149 55.8853 72.0203 56.8413C72.217 57.2133 72.4429 57.5698 72.6455 57.9161C70.1954 60.3554 69.8603 62.133 71.4972 63.7757C72.8636 65.1471 75.0535 65.1339 76.4029 63.7464C78.0053 62.0988 77.6639 60.2793 75.2539 57.9142ZM30.5809 72.711C32.0232 72.711 33.4056 72.711 34.7689 72.711C34.7689 70.1901 34.7689 67.7299 34.7689 65.2415C33.356 65.2415 31.9967 65.2415 30.5809 65.2415C30.5809 67.7379 30.5809 70.1976 30.5809 72.711ZM7.6482 65.2473C7.6482 67.8098 7.6482 70.2698 7.6482 72.7216C9.04542 72.7216 10.3789 72.7216 11.7254 72.7216C11.7254 70.211 11.7254 67.7504 11.7254 65.2473C10.3474 65.2473 9.01783 65.2473 7.6482 65.2473ZM25.2276 65.2081C25.2276 67.7437 25.2276 70.2026 25.2276 72.6968C26.1186 72.6968 27.0126 72.6968 27.9266 72.6968C27.9266 70.1696 27.9266 67.6954 27.9266 65.2081C27.0287 65.2081 26.2022 65.2081 25.2276 65.2081ZM17.1751 72.7158C17.1751 70.1651 17.1751 67.6894 17.1751 65.2544C16.238 65.2544 15.3664 65.2544 14.5028 65.2544C14.5028 67.7795 14.5028 70.2314 14.5028 72.7158C15.4164 72.7158 16.2658 72.7158 17.1751 72.7158ZM19.8346 72.692C20.7708 72.692 21.6381 72.692 22.4918 72.692C22.4918 70.158 22.4918 67.6816 22.4918 65.246C21.5814 65.246 20.7381 65.246 19.8346 65.246C19.8346 65.6027 19.8346 65.8943 19.8346 66.1861C19.8346 68.3308 19.8346 70.4754 19.8346 72.692Z" fill="#43C5FF"/>
<path d="M55.1984 30.5087C55.1984 29.6482 55.1984 28.829 55.1984 27.9624C56.7226 27.9624 58.2071 27.9624 59.7494 27.9624C59.7494 28.8102 59.7494 29.626 59.7494 30.5087C58.2362 30.5087 56.7288 30.5087 55.1984 30.5087Z" fill="#43C5FF"/>
<path d="M59.7625 57.5633C59.7625 58.458 59.7625 59.2528 59.7625 60.1004C58.2349 60.1004 56.751 60.1004 55.2124 60.1004C55.2124 59.2683 55.2124 58.4508 55.2124 57.5633C56.7053 57.5633 58.209 57.5633 59.7625 57.5633Z" fill="#43C5FF"/>
<path d="M46.6125 27.9606C46.6125 28.8436 46.6125 29.6611 46.6125 30.5262C45.1025 30.5262 43.6422 30.5262 42.1146 30.5262C42.1146 29.674 42.1146 28.8408 42.1146 27.9606C43.6008 27.9606 45.0594 27.9606 46.6125 27.9606Z" fill="#43C5FF"/>
<path d="M42.0919 60.1071C42.0919 59.2272 42.0919 58.4092 42.0919 57.5431C43.596 57.5431 45.0562 57.5431 46.5896 57.5431C46.5896 58.3946 46.5896 59.2265 46.5896 60.1071C45.1028 60.1071 43.6435 60.1071 42.0919 60.1071Z" fill="#43C5FF"/>
<path d="M55.1971 33.9075C56.7426 33.9075 58.2299 33.9075 59.7619 33.9075C59.7619 34.7414 59.7619 35.5338 59.7619 36.3892C58.2474 36.3892 56.7418 36.3892 55.1971 36.3892C55.1971 35.575 55.1971 34.7806 55.1971 33.9075Z" fill="#43C5FF"/>
<path d="M59.7461 42.3704C58.2028 42.3704 56.7336 42.3704 55.2116 42.3704C55.2116 41.5206 55.2116 40.7035 55.2116 39.8244C56.7105 39.8244 58.1976 39.8244 59.7461 39.8244C59.7461 40.6581 59.7461 41.4738 59.7461 42.3704Z" fill="#43C5FF"/>
<path d="M59.6985 45.7226C59.747 45.8097 59.7685 45.8314 59.7711 45.8551C60.0237 48.3058 60.0237 48.3058 57.5922 48.3058C56.8161 48.3058 56.0402 48.3058 55.2118 48.3058C55.2118 47.4218 55.2118 46.6015 55.2118 45.7228C56.701 45.7226 58.1901 45.7226 59.6985 45.7226Z" fill="#43C5FF"/>
<path d="M59.7491 54.1766C58.2 54.1766 56.7316 54.1766 55.2109 54.1766C55.2109 53.3367 55.2109 52.5236 55.2109 51.6634C56.7146 51.6634 58.2028 51.6634 59.7491 51.6634C59.7491 52.4841 59.7491 53.2969 59.7491 54.1766Z" fill="#43C5FF"/>
<path d="M46.6172 33.9189C46.6172 34.7808 46.6172 35.575 46.6172 36.4099C45.1088 36.4099 43.645 36.4099 42.1141 36.4099C42.1141 35.5989 42.1141 34.7866 42.1141 33.9189C43.5857 33.9189 45.07 33.9189 46.6172 33.9189Z" fill="#43C5FF"/>
<path d="M46.609 39.8236C46.609 40.6861 46.609 41.5018 46.609 42.3607C45.0913 42.3607 43.6269 42.3607 42.1049 42.3607C42.1049 41.5167 42.1049 40.7005 42.1049 39.8236C43.5842 39.8236 45.0487 39.8236 46.609 39.8236Z" fill="#43C5FF"/>
<path d="M46.5905 48.2634C45.0808 48.2634 43.6161 48.2634 42.0993 48.2634C42.0993 47.4034 42.0993 46.5855 42.0993 45.7159C43.5894 45.7159 45.0536 45.7159 46.5905 45.7159C46.5905 46.5355 46.5905 47.3498 46.5905 48.2634Z" fill="#43C5FF"/>
<path d="M46.6226 54.1715C45.0803 54.1715 43.6172 54.1715 42.1008 54.1715C42.1008 53.3279 42.1008 52.516 42.1008 51.6632C43.6141 51.6632 45.0984 51.6632 46.6226 51.6632C46.6226 52.5035 46.6226 53.2984 46.6226 54.1715Z" fill="#43C5FF"/>
<path d="M14.7854 27.9757C14.7854 28.8503 14.7854 29.6544 14.7854 30.5165C13.2727 30.5165 11.7832 30.5165 10.2325 30.5165C10.2325 29.6691 10.2325 28.8535 10.2325 27.9757C11.7401 27.9757 13.2267 27.9757 14.7854 27.9757Z" fill="#43C5FF"/>
<path d="M10.214 60.0875C10.214 59.2364 10.214 58.4383 10.214 57.5672C11.7166 57.5672 13.2052 57.5672 14.752 57.5672C14.752 58.3799 14.752 59.1996 14.752 60.0875C13.2864 60.0875 11.7985 60.0875 10.214 60.0875Z" fill="#43C5FF"/>
<path d="M14.7595 36.4229C13.2179 36.4229 11.7511 36.4229 10.2282 36.4229C10.2282 35.5823 10.2282 34.77 10.2282 33.911C11.7407 33.911 13.225 33.911 14.7595 33.911C14.7595 34.7353 14.7595 35.5478 14.7595 36.4229Z" fill="#43C5FF"/>
<path d="M14.7662 54.1659C13.2431 54.1659 11.7582 54.1659 10.2226 54.1659C10.2226 53.3204 10.2226 52.5081 10.2226 51.6565C11.7534 51.6565 13.2382 51.6565 14.7662 51.6565C14.7662 52.482 14.7662 53.2762 14.7662 54.1659Z" fill="#43C5FF"/>
<path d="M10.2248 39.8165C11.7569 39.8165 13.2425 39.8165 14.7688 39.8165C14.7688 40.6755 14.7688 41.4941 14.7688 42.3583C13.2485 42.3583 11.7631 42.3583 10.2248 42.3583C10.2248 41.4997 10.2248 40.6846 10.2248 39.8165Z" fill="#43C5FF"/>
<path d="M10.1752 45.6987C11.7735 45.6987 13.2405 45.6987 14.7585 45.6987C14.7585 46.548 14.7585 47.3649 14.7585 48.2944C13.3429 48.2944 11.9338 48.305 10.5254 48.2754C10.4058 48.2729 10.1989 48.008 10.1909 47.8567C10.1547 47.1662 10.1752 46.4728 10.1752 45.6987Z" fill="#43C5FF"/>
</svg>
