<svg width="80" height="81" viewBox="0 0 80 81" fill="none" xmlns="http://www.w3.org/2000/svg">
<g clip-path="url(#clip0_63_900)">
<path d="M22.3436 0.687012C25.9373 0.687012 29.5311 0.687012 33.1248 0.687012C33.6854 1.15856 33.8176 1.76392 33.7944 2.4755C33.7516 3.78788 33.7821 5.10253 33.7821 6.47652C34.1985 6.47652 34.5079 6.47528 34.817 6.47673C36.1882 6.48379 36.5552 6.85576 36.5554 8.24365C36.556 11.5615 36.5556 14.8796 36.5556 18.1974C36.5556 18.4678 36.5556 18.7381 36.5556 18.9953C38.3466 18.9953 40.0033 18.9953 41.7394 18.9953C41.7394 18.6752 41.7394 18.397 41.7394 18.1188C41.7394 15.0601 41.7394 12.0013 41.7396 8.94278C41.7396 8.73553 41.7269 8.52641 41.748 8.32103C41.8202 7.61733 42.3281 7.10927 42.9637 7.14848C43.6584 7.19121 44.0531 7.59036 44.1261 8.2812C44.1533 8.53803 44.1487 8.79859 44.1487 9.0575C44.1501 12.0644 44.1485 15.0713 44.1514 18.0782C44.1516 18.3781 44.1771 18.6781 44.1934 19.0383C46.1922 19.0383 48.1137 19.037 50.0351 19.0387C51.433 19.0399 51.7393 19.337 51.7399 20.7089C51.7418 26.4115 51.7407 32.1143 51.7407 37.8169C51.7407 38.1206 51.7407 38.4243 51.7407 38.7561C53.3413 38.7561 54.8568 38.7561 56.4142 38.7561C56.4142 35.2289 56.4088 31.7581 56.4161 28.2873C56.4207 26.1279 57.8209 24.5079 59.9663 24.2724C60.59 24.204 61.2417 24.3874 61.8952 24.4569C63.2604 21.3464 67.6915 21.2033 69.2585 24.5237C69.3516 24.5073 69.4572 24.5046 69.5505 24.4697C72.1462 23.5003 74.8677 25.7568 74.6953 28.3015C74.6306 29.2562 74.6847 30.219 74.6845 31.1781C74.6845 32.2272 74.6845 33.2763 74.6845 34.3393C74.8604 34.32 74.9393 34.3188 75.0145 34.3019C77.7542 33.6908 79.9887 35.4396 79.9914 38.2163C79.9965 43.4004 80.0129 48.585 79.9702 53.7689C79.9601 54.978 79.8101 56.1999 79.5875 57.3905C79.0377 60.3343 77.8214 63.0033 76.0287 65.4104C75.1483 66.5927 74.7145 67.9003 74.8757 69.4232C75.1099 69.434 75.2877 69.4467 75.4656 69.4496C76.9305 69.4726 77.1989 69.7361 77.1998 71.1686C77.2012 73.6311 77.1812 76.0938 77.2123 78.5559C77.2213 79.2613 77.1132 79.8722 76.5608 80.3506C75.1545 80.3506 73.7483 80.3506 72.342 80.3506C71.7784 79.9546 71.5 79.4401 71.7264 78.7524C71.9623 78.036 72.5557 77.9939 73.1855 78.0143C73.722 78.0317 74.2595 78.0178 74.7888 78.0178C74.7888 75.8886 74.7888 73.8591 74.7888 71.8358C67.8483 71.8358 60.9649 71.8358 54.0686 71.8358C54.0686 73.9089 54.0686 75.9364 54.0686 78.0178C54.4088 78.0178 54.691 78.0178 54.9733 78.0178C58.7717 78.0178 62.5699 78.0147 66.3681 78.0201C67.3828 78.0215 67.9633 78.7733 67.6034 79.6459C67.493 79.9137 67.2252 80.1174 67.0294 80.3504C62.1336 80.3504 57.2379 80.3504 52.3419 80.3504C52.0929 79.9507 51.637 79.5555 51.628 79.1503C51.5646 76.3278 51.5777 73.5033 51.6036 70.6798C51.6109 69.8765 52.0854 69.4844 52.909 69.4537C53.1804 69.4436 53.4526 69.4521 53.7148 69.4521C53.8479 67.3041 53.3478 66.4904 51.5046 65.717C51.2418 65.6066 50.9749 65.5058 50.7146 65.3896C48.2239 64.2781 45.8478 62.9937 44.3173 60.627C43.9662 60.0841 43.6007 59.9478 43.0048 59.9482C29.2166 59.9619 15.4281 59.9549 1.63985 59.9702C0.930558 59.9715 0.366963 59.8275 0 59.19C0 58.8788 0 58.5676 0 58.2564C0.414347 57.7239 0.955607 57.5451 1.62691 57.589C2.31679 57.6343 3.0121 57.599 3.74979 57.599C3.74979 57.1743 3.74979 56.8654 3.74979 56.5563C3.74979 47.3769 3.74979 38.1976 3.74979 29.0182C3.74979 27.5002 4.04745 27.1992 5.56915 27.1984C9.6834 27.1963 13.7976 27.1976 17.9119 27.1976C18.2179 27.1976 18.5237 27.1976 18.9203 27.1976C18.9203 26.8441 18.9203 26.5657 18.9203 26.2875C18.9203 24.265 18.9147 22.2422 18.9232 20.2197C18.9272 19.2901 19.2992 18.8406 20.0297 18.8321C20.847 18.8225 21.3081 19.3239 21.3118 20.239C21.3333 25.45 21.3632 30.6609 21.3707 35.8718C21.3809 42.7953 21.3728 49.7185 21.3749 56.642C21.3749 56.9414 21.3995 57.2405 21.4131 57.5469C25.7035 57.5469 29.9079 57.5469 34.125 57.5469C34.125 41.3111 34.125 25.1269 34.125 8.95481C29.8298 8.95481 25.6029 8.95481 21.3133 8.95481C21.3133 10.5205 21.3145 12.0206 21.3129 13.5209C21.3118 14.4157 20.9503 14.8356 20.1673 14.8593C19.3561 14.8837 18.9295 14.4437 18.9241 13.5253C18.9132 11.6584 18.9126 9.79128 18.9243 7.92437C18.9303 6.96509 19.3914 6.51387 20.3671 6.47943C20.7979 6.46428 21.2296 6.47694 21.7124 6.47694C21.7124 5.06893 21.7431 3.77543 21.7003 2.48442C21.6767 1.77824 21.7944 1.16831 22.3436 0.687012ZM56.1618 69.3913C61.656 69.3913 67.058 69.3913 72.5092 69.3913C72.3134 67.0873 73.1999 65.2247 74.4947 63.4483C76.2053 61.1013 77.3503 58.4265 77.4513 55.5456C77.6546 49.7445 77.5899 43.934 77.6339 38.1273C77.6348 38.0244 77.6216 37.9198 77.6026 37.8184C77.454 37.0304 76.9357 36.6037 76.1337 36.6049C75.1606 36.6064 74.683 37.1574 74.6824 38.3011C74.6799 44.9648 74.6813 51.6284 74.6786 58.2921C74.6782 59.3539 74.2998 59.8132 73.3592 59.8142C66.6674 59.8211 59.9757 59.836 53.2841 59.8009C50.9811 59.7889 48.7599 57.9703 48.455 55.6972C48.2189 53.9382 48.3308 52.1323 48.2984 50.3469C48.2771 49.1739 47.7592 48.5727 46.7268 48.5549C45.6499 48.5362 45.0133 49.1673 45.0026 50.3106C44.9882 51.8402 44.9976 53.3702 45.002 54.9C45.0097 57.5828 46.0856 59.753 48.3322 61.2237C49.7558 62.1556 51.2863 62.9433 52.8251 63.6785C54.5132 64.4849 55.6571 65.6772 56.0188 67.5227C56.1361 68.1225 56.1165 68.749 56.1618 69.3913ZM18.8681 57.5617C18.8681 48.2018 18.8681 38.9312 18.8681 29.6628C14.589 29.6628 10.3624 29.6628 6.14444 29.6628C6.14444 38.9917 6.14444 48.2609 6.14444 57.5617C10.4033 57.5617 14.6105 57.5617 18.8681 57.5617ZM49.9349 47.6821C51.3625 44.0711 53.959 42.1625 57.0366 42.4299C60.2777 42.7114 62.7371 44.8843 63.3771 48.0321C63.9638 50.917 62.4342 54.0104 59.7392 55.3898C56.6878 56.9513 53.8532 56.1933 50.7077 52.9069C50.7077 53.603 50.6655 54.2164 50.716 54.822C50.8379 56.2831 52.0234 57.4575 53.4987 57.4679C58.1317 57.5002 62.7651 57.4847 67.398 57.4646C67.5878 57.4637 67.8917 57.266 67.9481 57.0963C68.6075 55.1051 69.9371 53.8067 71.9158 53.1258C72.0809 53.069 72.2929 52.8264 72.2946 52.6684C72.3188 50.3127 72.3113 47.9566 72.3113 45.58C70.2388 45.0061 68.7513 43.8062 68.0612 41.7907C67.8777 41.2549 67.6266 41.1501 67.1189 41.1518C62.7722 41.1655 58.4254 41.1532 54.0786 41.1503C51.4237 41.1487 48.7685 41.1389 46.114 41.1671C45.8476 41.17 45.4093 41.3557 45.3456 41.5515C44.6626 43.6535 43.2269 44.9362 41.1216 45.5476C41.1216 48.0611 41.1216 50.5656 41.1216 53.0455C41.6457 53.2287 42.1225 53.3955 42.656 53.5818C42.656 52.3358 42.6499 51.1703 42.6577 50.005C42.6662 48.7262 43.2256 47.7124 44.2151 46.9282C45.5276 45.8884 47.9285 45.5109 49.9349 47.6821ZM36.6049 21.4068C36.6049 33.5012 36.6049 45.5125 36.6049 57.5606C37.292 57.5606 37.9304 57.5606 38.6783 57.5606C38.6783 57.222 38.6781 56.9189 38.6783 56.6156C38.6841 51.3292 38.6902 46.0428 38.696 40.7564C38.6979 39.0189 38.9116 38.8098 40.6863 38.8096C43.2887 38.8096 45.891 38.8096 48.4934 38.8096C48.77 38.8096 49.0465 38.8096 49.3277 38.8096C49.3277 32.952 49.3277 27.1897 49.3277 21.4066C45.068 21.4068 40.861 21.4068 36.6049 21.4068ZM56.5889 44.8341C54.126 44.8458 52.1711 46.8351 52.1814 49.3196C52.1914 51.7628 54.2057 53.759 56.6572 53.7552C59.1148 53.7515 61.0997 51.7582 61.0995 49.2939C61.0993 46.7849 59.1144 44.8223 56.5889 44.8341ZM66.9712 38.7828C66.9845 38.4824 67.0031 38.254 67.0037 38.0258C67.0154 34.0885 67.0269 30.1511 67.0331 26.2138C67.0348 25.1284 66.4359 24.3861 65.5634 24.366C64.7105 24.3465 64.0931 25.1045 64.0741 26.1949C64.0732 26.2468 64.0739 26.2985 64.0739 26.3503C64.0728 30.2617 64.0709 34.1731 64.0726 38.0845C64.0726 38.3088 64.1004 38.5328 64.1171 38.7826C65.0752 38.7828 65.9792 38.7828 66.9712 38.7828ZM61.717 38.7751C61.717 35.1233 61.7322 31.5264 61.7045 27.9297C61.6988 27.1907 61.0384 26.6727 60.2842 26.6609C59.4893 26.6484 58.8543 27.0795 58.8443 27.8789C58.7986 31.4982 58.8243 35.1183 58.8243 38.7751C59.7814 38.7751 60.6846 38.7751 61.717 38.7751ZM72.3257 38.7868C72.3257 37.898 72.3243 37.0752 72.3259 36.2527C72.3314 33.6375 72.3456 31.0223 72.3408 28.4068C72.3385 27.1795 71.636 26.4926 70.5986 26.6588C69.8181 26.7837 69.3894 27.3805 69.3869 28.3844C69.3783 31.6471 69.3764 34.9096 69.3754 38.1723C69.3754 38.37 69.4071 38.5679 69.4261 38.7866C70.3794 38.7868 71.2841 38.7868 72.3257 38.7868ZM24.1002 6.41055C26.5785 6.41055 28.9782 6.41055 31.3532 6.41055C31.3532 5.24651 31.3532 4.14947 31.3532 3.08045C28.8915 3.08045 26.4908 3.08045 24.0626 3.08045C24.0626 4.12292 24.0615 5.10482 24.064 6.08671C24.0643 6.18546 24.0855 6.28421 24.1002 6.41055ZM72.2731 55.5263C71.3225 55.9713 70.7172 56.5358 70.3903 57.4378C71.0614 57.4378 71.6477 57.4378 72.2731 57.4378C72.2731 56.8175 72.2731 56.2404 72.2731 55.5263ZM72.0619 43.1104C72.1291 43.0471 72.1965 42.9838 72.2637 42.9206C72.2637 42.3602 72.2637 41.7997 72.2637 41.2194C71.6381 41.2194 71.0631 41.2194 70.488 41.2194C70.4373 41.291 70.3865 41.3628 70.3358 41.4343C70.9113 41.993 71.4866 42.5517 72.0619 43.1104ZM41.1512 41.1868C41.1512 41.7634 41.1512 42.3538 41.1512 42.9442C41.2061 42.994 41.261 43.044 41.3157 43.0938C41.8722 42.5222 42.4285 41.9507 42.985 41.3794C42.9317 41.3153 42.8785 41.2509 42.8253 41.1868C42.2907 41.1868 41.7563 41.1868 41.1512 41.1868ZM42.7752 57.3374C42.8274 57.253 42.8796 57.1683 42.9317 57.0839C42.3878 56.5598 41.844 56.0358 41.3 55.5118C41.2424 55.5626 41.1848 55.6134 41.1272 55.6642C41.1272 56.2153 41.1272 56.7665 41.1272 57.3376C41.7102 57.3374 42.2427 57.3374 42.7752 57.3374Z" fill="#43C5FF"/>
<path d="M27.7343 53.2438C26.7975 53.2436 25.8604 53.2609 24.9243 53.2387C24.0684 53.2183 23.5858 52.7702 23.5804 52.0495C23.575 51.3222 24.0419 50.8544 24.9046 50.8427C26.8037 50.817 28.7037 50.816 30.6028 50.8434C31.4515 50.8556 31.9312 51.3498 31.9149 52.0692C31.8988 52.7771 31.3998 53.2216 30.5443 53.2395C29.6079 53.259 28.6709 53.244 27.7343 53.2438Z" fill="#43C5FF"/>
<path d="M27.7481 25.4883C28.6847 25.4883 29.6219 25.4692 30.5577 25.4939C31.4271 25.517 31.907 25.9566 31.9147 26.6717C31.9226 27.4057 31.4006 27.8799 30.5105 27.8867C28.6634 27.9011 26.8161 27.9017 24.9689 27.8863C24.0676 27.8789 23.5693 27.4166 23.5802 26.6634C23.5906 25.9383 24.0542 25.5165 24.9382 25.4935C25.8742 25.4692 26.8115 25.4881 27.7481 25.4883Z" fill="#43C5FF"/>
<path d="M27.7358 21.5307C26.7737 21.5307 25.8114 21.5439 24.8495 21.5263C24.0611 21.5118 23.5833 21.0552 23.5779 20.3598C23.5725 19.649 24.0277 19.1951 24.8278 19.1889C26.7779 19.1737 28.7281 19.1733 30.6781 19.1905C31.467 19.1974 31.9333 19.6737 31.9176 20.3766C31.9024 21.0579 31.4071 21.5141 30.622 21.5269C29.6601 21.5427 28.6978 21.5307 27.7358 21.5307Z" fill="#43C5FF"/>
<path d="M27.7477 34.2096C26.8113 34.2098 25.8744 34.2277 24.9387 34.2047C24.044 34.1827 23.5912 33.7748 23.5804 33.0435C23.5693 32.289 24.0691 31.833 24.9702 31.8272C26.8169 31.8152 28.6638 31.8158 30.5105 31.827C31.3985 31.8324 31.9231 32.3019 31.9147 33.0363C31.9064 33.7592 31.4409 34.1814 30.5567 34.204C29.6209 34.2279 28.6841 34.2094 27.7477 34.2096Z" fill="#43C5FF"/>
<path d="M27.6938 40.5257C26.7317 40.5257 25.7694 40.5394 24.8078 40.5213C24.024 40.5066 23.5635 40.0415 23.5787 39.3301C23.5929 38.661 24.0538 38.1997 24.7919 38.1938C26.7678 38.1785 28.7442 38.1777 30.7201 38.1949C31.4394 38.2011 31.9149 38.694 31.9185 39.3533C31.922 40.0267 31.4668 40.5012 30.7358 40.5176C29.7223 40.5402 28.7079 40.5232 27.6938 40.5232C27.6938 40.524 27.6938 40.5248 27.6938 40.5257Z" fill="#43C5FF"/>
<path d="M27.813 44.531C28.7492 44.5315 29.6856 44.5159 30.6212 44.536C31.4421 44.5539 31.9005 44.9771 31.9149 45.6746C31.9297 46.3882 31.4208 46.8791 30.6005 46.8849C28.7024 46.8979 26.8039 46.8973 24.9059 46.8853C24.0638 46.8799 23.5743 46.4202 23.5789 45.6934C23.5835 44.9615 24.0455 44.5491 24.9266 44.5342C25.8886 44.5182 26.8509 44.5306 27.813 44.531Z" fill="#43C5FF"/>
<path d="M27.731 15.175C26.7689 15.175 25.8066 15.1897 24.8449 15.1704C24.039 15.1545 23.5819 14.7167 23.5787 14.0122C23.5756 13.3135 24.0528 12.8394 24.8328 12.8338C26.7829 12.8197 28.7331 12.8195 30.6832 12.8347C31.4152 12.8405 31.8936 13.3068 31.9155 13.9616C31.9391 14.668 31.4795 15.1476 30.6951 15.1667C29.7075 15.1908 28.7191 15.1725 27.731 15.1725C27.731 15.1733 27.731 15.1742 27.731 15.175Z" fill="#43C5FF"/>
<path d="M13.7726 51.357C13.7726 50.8666 13.7486 50.3745 13.7784 49.8857C13.821 49.1874 14.327 48.6758 14.9451 48.6565C15.5661 48.637 16.1155 49.12 16.146 49.8299C16.1902 50.8602 16.1906 51.8954 16.1441 52.9256C16.1136 53.599 15.7155 54.0216 15.001 54.0494C14.3397 54.0751 13.8383 53.6189 13.7832 52.9053C13.7436 52.392 13.7755 51.8732 13.7755 51.357C13.7745 51.357 13.7736 51.357 13.7726 51.357Z" fill="#43C5FF"/>
<path d="M13.7747 43.4757C13.7747 42.9851 13.745 42.4924 13.7818 42.0044C13.8352 41.2912 14.3331 40.8176 14.9856 40.8406C15.6934 40.8655 16.1107 41.2771 16.1409 41.9542C16.1879 43.0102 16.1871 44.0713 16.1372 45.1271C16.1059 45.787 15.549 46.2785 14.9612 46.2326C14.2798 46.1793 13.8569 45.775 13.7895 45.1011C13.7359 44.5642 13.7786 44.0178 13.7786 43.4757C13.7774 43.4757 13.7761 43.4757 13.7747 43.4757Z" fill="#43C5FF"/>
<path d="M13.7718 35.6228C13.7726 35.156 13.7503 34.688 13.7778 34.2229C13.821 33.4951 14.2909 33.0203 14.9403 33.0035C15.6164 32.986 16.1126 33.4093 16.1476 34.1567C16.1948 35.1656 16.195 36.1796 16.1524 37.1887C16.1205 37.9482 15.6489 38.3662 14.9685 38.3627C14.2754 38.3592 13.8116 37.8829 13.7753 37.1005C13.7523 36.6089 13.7707 36.1153 13.7718 35.6228Z" fill="#43C5FF"/>
<path d="M8.91524 43.501C8.91565 43.0104 8.89603 42.5189 8.92025 42.0295C8.95552 41.3192 9.43708 40.8439 10.0894 40.8356C10.745 40.8271 11.2437 41.291 11.2642 42.0065C11.293 43.0127 11.2921 44.0205 11.2661 45.0267C11.2475 45.7405 10.7478 46.2341 10.1138 46.2405C9.45796 46.2473 8.94655 45.7175 8.91816 44.9725C8.89979 44.4827 8.91482 43.9917 8.91524 43.501Z" fill="#43C5FF"/>
<path d="M11.2665 51.3971C11.2677 51.9132 11.2907 52.4304 11.2619 52.9449C11.2249 53.6046 10.8465 53.9855 10.1873 54.0467C9.5569 54.1052 8.97013 53.6754 8.93987 53.0387C8.88768 51.9315 8.88059 50.8178 8.94029 49.7117C8.97535 49.0652 9.45712 48.7099 10.0944 48.6632C10.6972 48.6192 11.2155 49.1175 11.2579 49.7718C11.293 50.3116 11.2652 50.8552 11.2665 51.3971Z" fill="#43C5FF"/>
<path d="M8.91628 35.7172C8.91628 35.1988 8.89311 34.6793 8.92192 34.1625C8.96137 33.4582 9.46986 32.9906 10.1305 33.0049C10.7814 33.0188 11.2408 33.441 11.2617 34.1405C11.2928 35.1762 11.2938 36.2141 11.26 37.2497C11.2372 37.9474 10.7724 38.359 10.114 38.3638C9.47507 38.3683 8.97389 37.9335 8.92651 37.2719C8.88956 36.7562 8.9192 36.2359 8.9192 35.7174C8.91816 35.7172 8.91712 35.7172 8.91628 35.7172Z" fill="#43C5FF"/>
<path d="M42.961 25.4879C43.8949 25.4879 44.8294 25.4701 45.7627 25.4933C46.5886 25.5138 47.1347 25.996 47.1506 26.6609C47.167 27.3528 46.5886 27.8793 45.737 27.8861C43.8692 27.9013 42.0012 27.9023 40.1334 27.8853C39.2986 27.8776 38.7768 27.4042 38.7595 26.7136C38.7413 25.9962 39.273 25.513 40.1593 25.4929C41.0928 25.4715 42.0271 25.4879 42.961 25.4879Z" fill="#43C5FF"/>
<path d="M43.0161 31.8237C43.9239 31.8237 44.8319 31.8129 45.7395 31.8268C46.5897 31.8401 47.1702 32.3562 47.1504 33.0499C47.1311 33.7207 46.5982 34.1947 45.7595 34.2034C43.8921 34.2227 42.0244 34.2227 40.157 34.204C39.2669 34.1951 38.739 33.7068 38.7595 32.99C38.7799 32.2749 39.3185 31.8351 40.2146 31.8255C41.1485 31.816 42.0822 31.8237 43.0161 31.8237Z" fill="#43C5FF"/>
</g>
<defs>
<clipPath id="clip0_63_900">
<rect width="80" height="79.6636" fill="white" transform="translate(0 0.687012)"/>
</clipPath>
</defs>
</svg>
