<svg width="80" height="80" viewBox="0 0 80 80" fill="none" xmlns="http://www.w3.org/2000/svg">
<path d="M59.7829 39.2387C59.7829 40.3463 59.7829 41.5009 59.7829 42.7096C61.991 43.1023 63.9076 44.043 65.4549 45.6655C69.7606 50.1852 68.8952 57.4162 63.6277 60.7696C63.0986 61.1058 62.8893 61.4397 62.894 62.0841C62.9317 66.1899 62.8964 70.2957 62.9246 74.4038C62.9317 75.3962 62.6683 76.2475 62.024 76.9905C61.8523 77.1904 61.6618 77.3856 61.5372 77.6137C60.4249 79.6431 58.6659 80.184 56.479 79.9488C54.9528 79.7842 53.7865 78.6907 53.7489 77.1434C53.7206 76.0288 53.6313 74.9 53.7794 73.8042C53.897 72.9482 54.3391 72.1369 54.673 71.2081C53.2198 69.3997 53.2668 67.0435 54.9576 64.4897C54.0898 63.7419 53.6783 62.8013 53.7065 61.6255C53.7136 61.3621 53.3491 61.0118 53.0693 60.833C47.9452 57.5573 46.9011 50.6532 50.8494 46.0441C52.3191 44.3299 54.1486 43.3046 56.8576 42.7026C56.8576 41.7079 56.8576 40.6991 56.8576 39.6126C55.5525 40.2146 54.2309 40.5885 52.8388 40.1794C52.1992 39.9912 51.5596 39.7373 50.9858 39.401C48.8082 38.1265 46.6189 36.8637 44.5073 35.4857C42.9999 34.5004 41.328 34.1124 39.6207 33.8819C35.4373 33.3175 32.1357 31.2787 29.4785 28.0877C28.4226 26.8202 27.2328 25.7432 25.5326 25.4775C24.7566 25.3575 23.9594 25.3811 23.4326 25.3528C22.8471 26.2229 22.5132 27.133 21.8618 27.5703C21.1963 28.0171 20.2251 28.13 19.3786 28.1606C17.2645 28.2382 15.1481 28.1959 13.0317 28.1841C11.174 28.1747 10.0076 27.013 10.0053 25.1553C9.99824 17.7926 9.99824 10.4322 10.0053 3.06953C10.0076 1.15772 11.1623 0.0313251 13.0999 0.0242705C15.1575 0.0172158 17.2151 0.0783561 19.2704 0.00545805C21.1563 -0.0603854 22.5861 0.452253 23.0635 2.48634C26.8189 2.48634 30.5249 2.60627 34.2216 2.45577C38.4403 2.28411 42.4943 2.81791 46.499 4.18887C49.9088 5.35524 53.4267 6.2018 56.8717 7.26705C57.5936 7.49045 58.3273 7.93254 58.8588 8.46869C62.4355 12.0736 65.9511 15.7397 69.5089 19.3658C70.4214 20.2946 70.673 21.3246 70.3955 22.5804C69.1774 28.0712 67.9875 33.5668 66.7906 39.0624C66.3202 41.2234 64.6953 42.0888 62.713 41.1106C61.6853 40.6003 60.7635 39.8737 59.7829 39.2387ZM63.9475 38.5568C64.0157 38.3875 64.0769 38.2864 64.1027 38.1758C65.2738 32.8261 66.4543 27.4763 67.5877 22.1171C67.6536 21.8067 67.4419 21.3293 67.2044 21.0801C63.8064 17.5457 60.3873 14.0325 56.9517 10.5334C56.6624 10.2371 56.2462 10.0043 55.8488 9.88668C50.8706 8.41226 45.8876 6.959 40.9 5.5222C40.4014 5.37875 39.8629 5.31291 39.3432 5.31291C34.2592 5.2988 29.1751 5.3035 24.0911 5.3035C23.776 5.3035 23.4609 5.3035 23.1128 5.3035C23.1128 11.0883 23.1128 16.7885 23.1128 22.4745C23.2187 22.5098 23.2727 22.5404 23.3245 22.5404C23.6772 22.5474 24.0299 22.5568 24.3827 22.5521C26.9129 22.5169 28.9988 23.5116 30.7436 25.2893C31.174 25.7291 31.5878 26.19 31.9899 26.6556C34.0852 29.0777 36.6531 30.6415 39.8771 31.0436C42.5743 31.3799 45.0199 32.3275 47.2774 33.8725C49.0175 35.0647 50.8776 36.083 52.7048 37.1412C53.8147 37.7831 55.0093 37.6115 55.87 36.7743C56.7212 35.9466 56.9658 34.5897 56.2956 33.5433C55.9334 32.9742 55.3644 32.5039 54.8047 32.1018C53.1163 30.886 51.3244 29.8043 49.6924 28.5204C47.9523 27.1541 46.4285 25.5457 45.7371 23.354C44.6178 19.7961 47.3409 16.3088 50.9552 16.7861C52.0534 16.9319 53.168 17.4093 54.1369 17.9713C56.8153 19.521 58.9528 21.7173 60.8411 24.13C61.2432 24.6427 61.4173 25.5057 61.3561 26.1759C61.168 28.2758 60.8317 30.3616 60.5284 32.4498C60.1521 35.0342 61.4784 37.461 63.9475 38.5568ZM56.566 77.2492C57.3185 77.1034 58.1557 77.1951 58.4849 76.8283C59.2303 76.0029 60.1474 75.2575 60.1192 73.8724C60.0322 69.5902 60.1192 65.3057 60.051 61.0235C60.0322 59.8642 60.4061 59.2693 61.4643 58.7378C64.1921 57.3739 65.5419 55.0388 65.3396 52.003C65.1421 49.0471 63.529 46.9965 60.7659 45.8795C60.4602 45.7549 60.1286 45.6937 59.7359 45.5832C59.7359 46.4745 59.7359 47.2364 59.7359 47.9959C59.7359 48.7578 59.7547 49.5221 59.7288 50.284C59.6983 51.1799 59.1127 51.7725 58.3156 51.7655C57.5184 51.7584 56.9587 51.1658 56.9187 50.2652C56.9046 49.943 56.914 49.6208 56.914 49.2963C56.914 48.0829 56.914 46.8672 56.914 45.5997C55.5125 45.8795 54.4237 46.4792 53.4902 47.361C49.8335 50.8131 50.8259 56.7108 55.4255 58.8907C56.5731 59.4339 56.6789 59.6808 56.5919 60.9247C56.559 61.3904 56.5754 61.9806 56.8294 62.3216C58.1486 64.0852 58.1886 64.9835 56.8576 66.7143C56.4202 67.281 56.4343 68.8142 56.8788 69.3221C58.0099 70.6155 58.031 71.9041 56.9587 73.2892C56.7871 73.5103 56.5919 73.783 56.5801 74.0394C56.5401 75.0317 56.566 76.0241 56.566 77.2492ZM20.1687 25.3317C20.1687 17.7996 20.1687 10.3429 20.1687 2.91198C17.6878 2.91198 15.2681 2.91198 12.8718 2.91198C12.8718 10.4205 12.8718 17.8561 12.8718 25.3317C15.3151 25.3317 17.7137 25.3317 20.1687 25.3317ZM57.9087 30.8225C58.1251 29.2329 58.3485 27.7655 58.506 26.2887C58.539 25.9878 58.4214 25.5739 58.2168 25.3622C56.9564 24.0595 55.7242 22.7097 54.332 21.5551C53.382 20.7673 52.2439 20.1253 51.0892 19.6832C49.462 19.0601 47.9194 20.5768 48.3709 22.2699C48.5237 22.8484 48.7777 23.4692 49.1704 23.9043C50.1651 25.0072 51.1716 26.1383 52.345 27.0365C54.0804 28.3699 55.9617 29.5127 57.9087 30.8225Z" fill="#43C5FF"/>
<path d="M41.676 58.8154C40.0205 58.9941 39.4444 59.9347 39.2821 61.4538C39.1481 62.7213 38.0499 63.4033 36.5896 63.5538C35.5902 63.6573 34.5908 64.6661 34.5155 65.649C34.4215 66.9095 33.6878 68.0076 32.5096 68.097C31.2374 68.1934 30.5202 68.9435 29.7348 69.7243C29.4268 70.03 29.074 70.2933 28.6037 70.6931C29.2951 71.1799 29.8124 71.8501 30.3062 71.8312C31.3903 71.7913 32.5637 71.9629 33.502 70.9988C35.9359 68.4944 38.4614 66.0817 40.9164 63.5961C41.8429 62.6578 42.673 61.6232 43.6231 60.5462C43.7736 60.612 44.1451 60.7719 44.5167 60.9342C46.4402 61.7854 48.3709 61.8348 50.3273 61.0353C51.355 60.6143 52.1733 60.8754 52.479 61.6725C52.7988 62.5026 52.4108 63.2058 51.3738 63.6384C49.4196 64.4544 47.402 64.6708 45.3421 64.1534C44.7518 64.0053 44.3826 64.1323 43.9617 64.5555C41.1022 67.4244 38.2004 70.2486 35.348 73.127C34.5155 73.9688 33.5914 74.4697 32.4062 74.4932C32.2298 74.4956 32.0487 74.5073 31.8818 74.5567C29.5373 75.2857 27.9312 74.1828 26.5743 72.4426C25.7301 71.3609 25.7489 69.8254 26.6943 68.8119C27.5149 67.9324 28.3286 67.0247 29.2739 66.2933C29.9088 65.7995 30.7624 65.5879 31.6231 65.2046C32.0393 62.7778 33.7395 61.1481 36.6202 60.6496C36.5237 59.488 36.9447 58.5168 37.8218 57.7078C37.9841 57.5597 37.9723 57.1223 37.9112 56.8472C36.5449 50.6014 41.1586 44.7179 47.4326 44.7296C48.4884 44.732 49.1186 45.2258 49.1469 46.0771C49.1751 46.9236 48.5425 47.495 47.5243 47.5421C42.1416 47.789 39.0634 52.7061 41.1939 57.6608C41.335 57.9806 41.4643 58.3051 41.676 58.8154Z" fill="#43C5FF"/>
<path d="M17.7466 22.2958C17.7466 22.6768 17.7983 23.0671 17.7348 23.4363C17.6055 24.1935 17.1234 24.6497 16.3451 24.645C15.5667 24.6403 15.0635 24.1841 14.9718 23.4222C14.8942 22.7849 14.92 22.1336 14.953 21.4892C14.9953 20.6544 15.5902 20.0901 16.3592 20.0948C17.1281 20.0995 17.6949 20.6638 17.7584 21.5033C17.7772 21.7667 17.7607 22.0301 17.7607 22.2958C17.7537 22.2958 17.7489 22.2958 17.7466 22.2958Z" fill="#43C5FF"/>
</svg>
